<?xml version="1.0" encoding="UTF-8"?><svg id="Ebene_2" xmlns="http://www.w3.org/2000/svg" width="60.37" height="83.69" viewBox="0 0 60.37 83.69"><g id="Ebene_1-2"><path d="M3.17,8.43s-.02-.17.14-.15c.02.16-.09.12-.14.15Z"/><path d="M59.68.26l.69,82.5c-.6.41-1.21.17-1.81.2-9.47.54-18.99.25-28.49.35-6.01.06-12.03.33-18.01.36-3.91.02-7.83.05-11.73-.2-.53-.24,0-1.05-.05-1.11-.05-.06-.26.06-.26-.09s.2-.01.25-.14c.02-.04.03-.73.03-.88.01-.46.03-2.31-.03-2.65-.02-.14-.26,0-.25-.14.76-.38,0-.68,0-.74,0-.18.25-.51.29-.87.12-1.21-.13-2.53-.13-3.69.02-22.51.03-45.22-.11-67.78,0-1.15-.07-2.53-.04-3.64,0-.18.02-.77.13-.88.18-.2,1.39-.37,1.73-.37,10.21-.07,20.42-.14,30.68-.25,6.87-.07,13.81-.21,20.65-.2.95,0,6.1-.2,6.48.2ZM39.49,2.42c-.34-.42-.83-1.63-1.31-1.76-.04-.01-.02.51-.62.15-.12.12,1.05,1.88,1.37,1.61l-.34-.88.89.88ZM44.17,1.1c-.06-.08-.67-.74-.55-.22.04.17.38.86.49,1.1.1.21-.03.37.34.29-.06-.42-.27-.73-.27-1.17.13.18.62,1.42.82,1.17.08-.09-.19-1.95-.82-1.47,0,.1,0,.2,0,.29ZM46.09,2.27c0-.32-.15-1.58-.48-1.61s-.07.39-.04.48c.09.34.22.95.52,1.13ZM47.05,2.27c.06-.25-.1-1.6-.34-1.61-.27-.01-.13.41-.11.55.04.24.23.93.45,1.06ZM47.74.66c-.1-.11-.29-.08-.26.21.01.13.24,1.65.54,1.26.04-.06-.23-1.41-.28-1.46ZM34.26,1.83c-.15-.14-.98-1.01-1.1-.88.22.7.72.95,1.17,1.46.15-.07-.02-.46-.07-.59.25.24.39.6.69.59l-.15-.64-1.08-.97c.09.44.37.55.55,1.03ZM35.5,1.54l-.96-.73c.36.33.95,1.44,1.31,1.61.06.03.23.04.2-.07-.34-.22-.4-.52-.55-.81l.96.88c0-.46-.84-1.46-1.17-1.61-.06-.03-.23-.04-.2.07.3.16.3.45.41.66ZM37.56,2.42c.11-.13-.85-1.65-1.24-1.61-.22.29,1.13,1.73,1.24,1.61ZM38.25,2.42c-.38-.56-.66-1.24-1.24-1.61-.05.34,1.02,1.83,1.24,1.61ZM39.76,1.25c-.15-.14-.36-.24-.48-.44-.09.53.66,1.21,1.03,1.61-.05-.47-.47-.67-.55-1.17.21.2.92,1.2,1.1,1.03l-1.03-1.46c-.12.02-.08.34-.07.44ZM41.55,2.42c.11-.12-.78-2.01-1.37-1.61.13.21,1.13,1.87,1.37,1.61ZM41.83,1.39c-.18-.2-.44-.61-.69-.59.08.73,1.41,2.52.69.59.28.32.41.62.63.87.19.22.33.02.33-.07,0-.1-.85-1.69-1.23-1.39.14.2.19.36.28.59ZM43.48,2.13c-.62-.36-.38-1.57-1.24-1.32.24.27.64,1.42.82,1.54.48.33.39-.21.42-.23s.36.21.41.15c-.19-1.44-1.38-2.35-.41-.15ZM45.25.82c-.11-.08-.48-.1-.39.2.03.12.38,1.1.41,1.15.1.2.25.08.42.1-.14-.23-.32-1.37-.43-1.45ZM49.25.81s-.64.13-.82,0c.16.49.37,3.19.55,3.37.08.08.29.11.24-.18-.16-.96-.35-1.92-.38-2.89.38.12,0,1.28.55,1.17.04-.23-.06-1.39-.14-1.46ZM49.81.81c-.63-.06-.05,1.11-.14,1.47.56-.29.09-.99.14-1.47ZM50.36.81c-.78-.19-.1.71-.27,1.32.54.11.18-.98.27-1.32ZM50.9,2.27c.23-.31.07-2-.41-1.47-.06.07.02,1.45.41,1.47ZM51.18,3.3c.33-.17.46-2.01.39-2.25-.06-.19-.2-.28-.39-.25v2.49ZM53.52.81h-.41s0,1.47,0,1.47c.7-.14.34-.87.41-1.47ZM54.48.81s-.3.02-.41,0c.24.47-.03.96,0,1.46.42.07.22-.11.28-.36.04-.19.21-1.04.13-1.11ZM27.8,6.23c-.2-1.18-1.01-2.2-1.84-2.95-.49-.44-.58-.41-.98-.71-.56-.43-.86-1.21-1.44-1.62-.03.27.14.46.28.66.76,1.08,2.06,2.55,2.95,3.6.31.36.66.73,1.03,1.02ZM32.89,2.27c-.53-.76-.78-1.44-1.79-1.32-.2.5.66,1.35,1.03,1.33.1,0,.03-.35.14-.3.14.06.3.42.62.29ZM16.36,1.12c-.19.02-1.33-.22-1.21.19l5.5,11.31c.25.3.84-.05,1.24.06L16.36,1.12ZM18.01,1.12c-.06-.04-.38-.08-.39.05l1.37,2.42c-.03-.34-.87-2.4-.98-2.47ZM22.98,1.39l-.41-.15.21.58c-.25-.16-.54-.85-.89-.66.35.43.83.81,1.17,1.25.09.12.36.29.14.44-.45-.5-.95-.95-1.44-1.39-.11-.1-.27-.39-.41-.15.98.83,1.92,2.19,2.9,2.92.14.11.41.08.61.23.26.19.43.6.75.74.06-.27-.14-.35-.27-.51-.49-.62-1.3-1.16-1.71-1.69-.09-.11-.34-.46-.15-.58l1.65,1.76c.1.02.09-.15.07-.22-.15-.35-1.56-1.59-1.93-2.05-.13-.17-.33-.24-.27-.51l1.51,1.47c-.22-.72-1.01-1.18-1.44-1.76l-.07.29ZM26.42,2.42c.19-1.46.15-1.38-1.24-1.32-.1.09.95,1.64,1.24,1.32ZM17.48,1.83c-.15-.18-.36-.35-.48-.59l.04.54,4.15,8.26c-.47-1.51-1.26-3.01-1.95-4.44-.26-.55-.47-.87-.69-1.31-.31-.61-1.06-1.84-1.07-2.46.55.67.68,1.44,1.24,2.05-.25-.83-.67-1.66-1.17-2.35-.12,0-.07.19-.07.29ZM18.58,1.25c-.32-.04-.32-.01-.22.3l6.41,13.19L18.58,1.25ZM25.04,14.3c-1.24-2.71-2.42-5.47-3.69-8.17-.66-1.39-1.42-3.14-2.15-4.45-.09-.16-.14-.4-.35-.44.05.59.36,1.23.61,1.77,1.06,2.3,2.27,4.55,3.36,6.83.7,1.47,1.19,3.2,2.22,4.45ZM15.42,2.71h-3.99v-.15h3.85c.03-.26-.31-.14-.48-.15-2.04-.08-4.08.04-6.12,0l2.13-.29c1.28-.05,2.57.05,3.85,0,.17,0,.51.11.48-.15-3.04-.06-6.06.05-9.08.14-.04-.19.26-.24.38-.25,1.47-.16,3.14.01,4.65-.03.25,0,.48-.13.7-.13.86-.03,1.74.02,2.6-.02.17,0,.51.11.48-.15-4.1-.28-8.25.42-12.32.3-.52-.02-1.32-.48-1.51.13-.54,1.78,1.73,1.05,2.61,1.03,3.85-.08,7.71.07,11.56,0l.2-.29ZM22.43,4.33c.06-.27-.14-.35-.27-.51-.48-.61-1.09-1.15-1.65-1.69-.06.27.14.35.27.51.48.61,1.09,1.15,1.65,1.69ZM48.43,4.18c-.11-.44-.18-.91-.32-1.35-.05-.15-.03-.44-.23-.41.01.4.02.86.13,1.24.08.25.06.61.42.52ZM49.53,2.42c-.31-.02-.25-.05-.28.22-.06.52.18,1.02.14,1.54.3.02.25.06.28-.22.05-.49-.23-1.02-.14-1.54ZM50.91,2.42c-.17-.24-.25,0-.27.22-.06.48.04,1.05,0,1.54.17.24.25,0,.27-.22.06-.48-.04-1.05,0-1.54ZM39.45,2.9c-.08-.11-.63-.47-.78-.27l1.37,1.69c-.07-.31-.45-1.21-.59-1.42ZM8.4,3.45h7.29l-.36-.24c-2.13.22-4.3,0-6.45.09-.17,0-.51-.11-.48.15ZM8.26,3.3h-3.38s-2.13.29-2.13.29h2.96s2.54-.29,2.54-.29ZM15.97,3.74H4.62s-.2.29-.2.29l11.55-.29ZM15.97,4.03l-14.1.14-.48.3,14.38-.14.2-.29ZM3.38,4.77c2.72-.09,5.46.07,8.18,0l-2.13-.29c-2.41.05-4.81.22-7.23.14-.11.63.92.15,1.17.15ZM28.48,4.62c-.65-.12.17.78.34.96.1.11.51.63.63.5l-.96-1.46ZM23.94,4.77l-1.38.15c.11.64-.06,1.28.06,1.92.18.91,1.03,1.94,1.18,2.92.58-.36.14-1.26.13-1.83-.03-1.05.03-2.11,0-3.16ZM56.27,5.79s.03-.57,0-.73c-.29,0-.31.98-.27,1.03h.96c.15-.54-.59-.18-.69-.29ZM25.82,7.89c-.05-.08-.26-.13-.34-.28-.33-.59-.57-1.42-1.12-1.82-.07.31.29.38.28.66,0,.11-.36,0-.28.29l1.86,3.44c.25.33.26.07.14-.15-.2-.41-.6-.8-.63-1.31.2-.13.58,1.29.68.66-.31-.47-.3-.99-.6-1.49ZM30.55,8.43c-.21-.83-1.11-1.31-1.65-1.91-.17.2,1.41,1.73,1.65,1.91ZM3.31,8.29c.11-.24-.39-.33-.27-.44.36-.33,1.09-.66,1.37-1.17l-.62.29c-.17.03.25-.44-.14-.29s-.59.63-.96.73l.48-.66c.02-.11-.14-.1-.2-.07-.36.18-1.29,1.25-1.72,1.54l.41.07-.21.58c.36-.55.85-.64,1.44-.73.03.03-.46.61-.55.73-.35.23-.69.38-.96.81l.27.15-.55.59c.25.24.52-.34.76-.51.64-.49,1.25-.77,1.72-1.54l-.27-.07ZM6.61,7.55c.27-.29.53-.6.83-.88-.52-.22-1.89,1.05-.83.88-.33.35-1.19,1-.28.81l-.55.66c.53-.1.65-.39.41.29l.55-.29c.06.23-.82.5-.55.73.23.2.55-.65.82-.37-.3.48-1.05.58-.96,1.25l.55-.22-.55.81,3.43-2.57c.07-.97-.86.44-1.23.37l1.24-1.32-1.37.73,1.38-1.32-.89.44.2-.44c-.29-.07-.35.3-.62.3-.05,0-.08-.64-.69,0l-.13-.3c-.23.18-.46.39-.76.44ZM56.62,6.82c-.78,0-1.56,0-2.34,0-.24,0-.39.03-.69.01-.27-.02-.2-.01-.2.28l3.58-.15c-.1-.41-.27-.14-.34-.15ZM5.37,6.82c-.31-.2-1.01.68-.96.73l.96-.73ZM24.49,15.33c-.28-1.33-1.15-2.58-1.72-3.81-.73-1.56-1.28-3.31-2.26-4.7,1.14,2.59,2.2,5.27,3.5,7.77.11.22.27.65.48.73ZM11.7,8.14l1.23-.95c-.22-.34-.3-.13-.53.01-.18.12-.93.64-.7.94ZM30.13,8.58c-.2-.65-.91-1.16-1.37-1.61.2.65.91,1.16,1.37,1.61ZM45.82,6.97c-2.36.03-4.73-.04-7.09,0-.88.01-1.87.15-2.75.17-.22,0-2.27-.17-2.27.06,1.66.1,3.36.11,5.03.08.33,0,.63-.15.95-.16,1.88-.03,3.77.09,5.65,0,.17,0,.51.11.48-.15ZM59.02,7.26l-.07-.29c-.16.14-.35.15-.54.15-6.13.16-12.32.18-18.43.29-1.96.03-4.47-.23-6.34-.01-.21.02-.42.03-.48.3l25.86-.44ZM10.05,9.61c.26-.35.95-.8,1.04-1.03.06-.15-.15-.25-.16-.37,0-.23,0-.33,0-.59,0-.07.4-.46.01-.51-.12-.02-1.25.85-1.3.96-.06.15-.05.47.2.36s.63-.78,1.03-.73l-1.1,1.1,1.1-.51c-.06.34-1.07.84-1.1.95-.09.32,0,.4.28.36-.13.18-.52.63-.07.59l1.03-1.02c-.39-.01-.57.39-.96.44ZM28.21,8.87c.21-.22-1.48-1.54-1.65-1.76-.06.28.14.35.27.51s1.22,1.41,1.38,1.25ZM45.82,7.85h3.03c.02-.34.05-.26-.2-.29-.57-.08-1.2.16-1.79-.01l-1.03.3ZM58.75,7.55h-6.67c-.12,0-1.47-.06-1.03.29,1.95,0,3.89-.21,5.85-.15.58.02,1.47.47,1.85-.14ZM30.55,9.61c-.21-.55-.87-1.22-1.31-1.61-.15-.14-.22-.36-.48-.29l1.79,1.91ZM44.3,7.99c-.39-.54-1.51-.15-2.13-.14-2.82.04-5.59.01-8.4.14-.2,0-.56-.13-.48.22l11.01-.22ZM4.55,9.02c.09.11,1.37-.8,1.1-1.17-.16.24-1.41.8-1.1,1.17ZM13.63,9.16c.14-.46,1.06-.61.89-1.17-.45.46-2.89,2.12-2.96,2.57-.01.07.44-.02.14.51.07.09.96-1.02,1.24-.81l-1.24,1.25c.26.02.47-.23.67-.38.29-.23,2.16-1.76,2.21-1.89.03-.06.04-.24-.07-.22-.44.49-.66.4-.21-.15l-.69.29ZM47.95,7.99c-.53-.14-1.54.11-2.13,0-.03.2.24.22.38.25.65.15,1.3.04,1.96.04,0-.09-.16-.28-.21-.29ZM51.04,8.29c-.28-.47-1.38-.33-1.84-.28-.13.02-.52.06-.49.28h2.34ZM54.35,7.99h-2.89c.2.59.71.15.89.15h1.99v-.15ZM56.96,8.14c-.54-.19-1.12-.2-1.69-.11-.12.02-.41.06-.38.25l.41.15-.96.29c.58-.16,2.19.12,2.66-.04.11-.04.23-.12.23-.25h-1.79s1.51-.29,1.51-.29ZM43.89,8.87h2.48c.02-.64-1.01-.39-1.37-.44l.55-.15-.49-.16-1.16.74ZM12.12,9.17c.26-.32.64-.5.69-.88-.17-.17-1.42.87-1.17,1.17.13-.22.31-.21.48-.29-.12.14-.66.75-.55.88l1.37-1.1c-.21-.17-.6.12-.82.22ZM30.27,9.9c-.2-.65-.91-1.16-1.37-1.61.2.65.91,1.16,1.37,1.61ZM43.75,8.29c-3.49-.04-6.96.14-10.45.22.54.31,1.34.04,2,.07,1.6.06,2.81.05,4.39,0,1.13-.03,2.51.14,3.59.01.21-.02.42-.03.48-.3ZM54.07,8.58c-.08-.33-.2-.2-.38-.2-.43,0-1.09,0-1.48.05-.19.03-.43.11-.2.29.69-.02,1.4.09,2.06-.15ZM51.53,8.43c-.75-.2-2.25.15-3.1,0-.16.53.28.43.76.44.84.03,1.69-.23,2.54-.15,0-.09-.16-.28-.21-.29ZM24.22,11.66c-.24-.99-.77-2.14-1.37-2.93l.15.64,1.22,2.29ZM43.62,8.73l-10.11.15-.2.29c2.84-.12,5.77.19,8.6,0,.45-.03,1.46-.08,1.71-.44ZM58.54,8.87c-1.74-.01-3.49,0-5.23,0-.09,0-.46.23-.34.29h.55s0,.15,0,.15h-3.03c-.03.26.31.14.48.15.68.03,2.28.15,2.86,0,.1-.03.08-.23.2-.28.83-.31.74.14.79.14.16,0,.48-.27.82-.3,1.1-.12,2.39.1,3.51,0-.05-.42-.52-.14-.62-.15ZM25.87,11.07c-.63-.74-.85-1.54-1.51-2.2.05.29.22.94.35,1.16.1.16.35.21.45.4.33.58.6,1.22.91,1.81.27.31.25.09.15-.16-.17-.39-.23-.69-.36-1.01.05.05.47.71.41.22-.49-.66-.4-1.66-1.23-1.98.24.63.57,1.11.82,1.76ZM52.42,8.87l-19.12.73c1.88.2,3.81.2,5.71.15,2.44-.06,4.88-.48,7.28-.6,1.78-.09,3.59.1,5.38,0,.12,0,1.1.01.75-.29ZM3.59,10.04c.11-.33.49-.43.69-.66.19-.21,0-.37-.07-.37-.06,0-1.09.58-1.13.63-.23.28-.18.82-.87.94l-.95,1.8,2.82-2.34h-.48ZM10.05,14.3c.36-.45.71-.7,1.1-1.1-1.05.12-.24.01-.14-.66-.15-.17-1.44,1.25-1.58,1.32-.06.03-.23.04-.2-.07l.41-.51-.69.22c.15-.27.55-.38.7-.58s-.02-.38.18-.67c.28-.41,1.03-.74,1.32-1.24l-.55.07.38-.55-.04-.92c-.2.29-1.06.72-1.17.95-.31.65,1.12-.49,1.1-.37l-.96.95.55.14c-.21.22-.4.45-.62.66-.3.27-1.96,1.65-2.2,1.76-.06.03-.23.04-.2-.07.46-.43,1.97-1.7.41-.96l.69-.66-.69.07c-.09-.08.74-.69.55-.88s-.48.49-.69.22c.23-.39,1.62-1.17,1.76-1.42.42-.77-.28-.08-.52-.19l.55-.81-3.41,2.52.04.56c.29-.16.67-.79,1.03-.66-.11.25-1.34.98-1.1,1.25l1.1-.66c-.38.54-1.27.77-1.24,1.54l.27-.15v1.03s.69-.22.69-.22l-.96,1.1,1.93-1.32c-.31.64-1.53.92-1.44,1.61l.48-.29-.27.59.55-.29-.55.73.96-.58c.02.29-1.18.95-.96,1.17.2.19.55-.56.82-.44l-.41.51c.36.24.67-.46,1.03-.52l-.34.73c.05.05.55-.23.69-.29-.13.95,1.25-.19.96-.59-.32.27-.6.41-.96.59.07-.48,1.24-.71.89-1.32l-.48.29.55-.73-1.1.58.96-.95-.41-.14c.31-.23.78-.88,1.1-.73l-.55.66c.22-.03.48-.18.69-.29-.46.57-.53.68-.55,1.47.3-.08.52-.28.82-.44-.25.33-.6.67-.69,1.1l.69-.29c-.37.42-.86.56-.82,1.25.29-.23,1.81-1.23,1.51-1.61l-.55.07c.75-.56.93-1.07-.14-.51.3-.39.75-.52.69-1.03-.08-.11-1.08,1.08-1.37.81.15-.19,1.6-1.14,1.37-1.39-.33.2-.61.4-.96.59ZM50.36,9.31h-2.82s-.22.2-.21.29c.33.16.85-.15,1.03-.15h1.99v-.15ZM12.67,11.51c.04-.42,2.22-1.56,1.92-1.91l-3.02,2.42.41.07-.34.73c.63-.82,2.35-1.65,2.89-2.34.15-.2.07-.39-.14-.29s-1.49,1.53-1.72,1.32ZM29.42,9.64c-.08-.05-.37-.1-.39.04l1.24,1.32-1.1-.66c.1.46,1.53,2.69,1.93,2.34.09-.81-.53-1-.63-1.75-.26-.13-.97-1.26-1.05-1.3ZM57.65,9.75c-.26-.03-1.73-.07-1.79,0-.03.04-.02.96.02,1.01.05.05.28.02.37.1.15.15.21.42.38.48,1.31.5.88-.8,1.01-1.59ZM25.04,17.53l-.43-1.23-3.14-6.55c.82,2.57,2.2,4.86,3.23,7.34l.35.44ZM31.1,14.15c.19-.23-1.47-1.82-1.72-2.05-.15-.15-.43-.18-.62-.36-.47-.45-1.22-1.57-1.57-1.85-.16-.13-.29-.17-.49-.14.33.42.03.96.41,1.36.15.16.4.15.56.31.48.5.98,1.3,1.5,1.78.1.1,1.21,1.03.97.44-.1-.24-.95-.97-1.2-1.21-.09-.09-.4-.09-.11-.33.91.52,1.32,1.65,2.27,2.05ZM43.07,9.75l-9.77.15v.44s9.77-.15,9.77-.15c-.02-.12.03-.41,0-.44ZM44.99,9.9h-1.38s0,1.76,0,1.76h.83s-.14-.29-.14-.29c.87-.01.42-.8.69-1.47ZM46.92,9.75h-1.79c-.21,1.39.43,2.05,1.65,2.05l.14-2.05ZM51.59,9.75h-1.38s.14,1.07.17,1.14c.04.08.24.1.29.19.12.19.26.65.42.68.85.14.37-1.42.49-2.01ZM55.72,9.75c-1.55,0-2.16-.43-1.93,1.61.95.2,2.14-.48,1.93-1.61ZM49.51,11.64c.09-.09.64-1.41.51-1.59-.2-.29-1.23-.08-1.59-.14.06.39-.12,1.35.06,1.62.12.18.92.21,1.02.11ZM59.16,9.9h-1.1c-.18.92.44.51,1.1.58l-.07-.29-.9.14.96-.44ZM3.17,13.27c.74-.68,1.59-1.32,2.31-2.01.14-.13.31-.31.17-.48-.15-.19-1.01.91-1.24.73l.21-.58-1.03.73c.14-.44,1.1-.81,1.24-1.1.08-.16-.04-.28-.2-.22l-3.24,2.71c-.34.56-.06.25.28.3l-.41.51c.44.15,2.27-1.96,2.48-1.76-.54.77-1.38,1.21-2.02,1.88-.14.14-.39.15-.31.47.58-.4,1.2-.78,1.79-1.17-.65.6-1.41,1.15-1.93,1.83.12.23.31-.05.43-.13.54-.38.88-.75,1.5-1.12-.27.26-1.74,1.57-1.79,1.69-.07.18.04.29.2.22.34-.16.93-1,1.45-1.02-.23.51-1.49,1.13-1.65,1.54-.07.18.04.29.2.22.08-.04.79-.58,1.03-.73-.03.05-.26.56.07.44.31-.42.77-.61,1.17-.88-.06.09-.31.41-.27.44l.55-.07-.82.81c.47.16.65-.61.96-.37l-.41.51c.9,0,1.28-.17,1.37-1.17l-.55.22c.58-.45.68-.45.41-1.25-.37.44-.82.6-1.24.88.17-.24.33-.46.55-.66.02-.11-.13-.09-.2-.07-.2.06-1.2.92-1.58,1.17.34-.65,1.63-1.32,1.79-1.69.03-.08.03-.25-.07-.22l-.76.44c.22-.52.72-.24.41-.88-.09-.08-.66.34-.82.44.02-.02-.03-.17.03-.25.3-.37,1.36-.62,1.48-1.29-.45-.08-.9.64-1.25.87-.1.07-.22.05-.27.08ZM43.07,10.93v-.59s-9.77.29-9.77.29c-.01.09.18.29.21.29h9.56ZM14.59,10.78l-2.74,2.14c-.14.06-.4.38-.29.5s2.23-1.79,2.54-1.91l.48-.73ZM33.3,11.51h9.77c.14-.37-.59-.41-.76-.41-1.96.03-3.98.14-5.92.09-.42-.01-2.96-.27-3.1-.12v.44ZM57.63,11.68c-.18-.12-.82.07-1.13-.04-.25-.09-.22-.54-.57-.58-.27-.03-.62.23-.62.52,0,.67.58.09.77.08.06,0,.01.45.34.14.2.5-.25.61-.27.69-.07.31.03.74,0,1.07h1.65c-.02-.35.07-1.73-.16-1.89ZM49.95,11.22c-.31.29.12,1.22.69.81.51-.37-.41-1.07-.69-.81ZM16.23,11.94c.15-.21-.13-.55-.54-.2-.17.15-.2.34-.33.46-.11.11-.6.05-.5.63.23-.18.69-.14.87-.28.12-.09.08-.32.17-.44.1-.14.3-.14.32-.17ZM16.79,12.83c.16.16,1.39-1.15,1.24-1.32-.43.42-1.04.69-1.24,1.32ZM28.54,13.22c-.18-.17-1.55-1.73-1.7-1.56,0,.76,1.02,1.06,1.37,1.69l-.48.22c1.03.88,2.01,1.97,3.37,2.2-.76-.95-1.7-1.71-2.56-2.55ZM33.3,12.1h9.77v-.44c-.69.24-1.53.16-2.28.15-2.49-.02-4.98-.26-7.49-.15v.44ZM54,13.57c.45.14,1.46-.1,1.99,0l-.16-1.15c-.35-.17-1.77-1.24-2.01-.52-.04.13.02,1.62.18,1.67ZM44.41,11.99c-.14-.06-.76-.07-.79-.04-.05.05.1,1.41.15,1.46.07.08,1-.04,1.23,0,0-.29.06-.61-.07-.88-.02-.03-.48-.53-.52-.54ZM46.78,11.95c-.94-.1-1.61.44-1.51,1.47h1.51s0-1.47,0-1.47ZM49.64,11.99c-.23-.14-.78.02-1.07-.04v1.61s1.65,0,1.65,0c-.03-.29.06-.67-.02-.93-.01-.04-.52-.62-.56-.65ZM51.73,11.95c-.42-.16-1.1.22-1.31.59-.03.06.04.99.07,1.02.05.06,1.02-.04,1.24,0v-1.61ZM5.65,12.1c-.12-.15-1.01.49-.69.88.12.15,1.01-.49.69-.88ZM13.9,12.1l-2.19,1.55c-.14.07-.4.38-.29.5.13.14,1.73-1.49,2.05-1.55l.42-.5ZM43.06,12.25h-9.56s-.2.29-.2.29l9.69.15c.13,0,.09-.43.07-.44ZM11.43,14.89l2.14-1.6.2-.6c-.07-.09-1.65,1.25-1.79,1.39-.12.12-.69.65-.55.81ZM16.24,12.69c-.09-.1-1.47.99-1.24,1.32.15-.17,1.46-1.08,1.24-1.32ZM33.3,13.13h9.77c.02-.34.05-.26-.2-.29-.88-.12-2.1.02-3.03,0s-1.8-.01-2.74,0c-1.09.01-2.55-.15-3.58,0-.2.03-.43.11-.2.29ZM18.17,12.83c-.49.04-1.3.6-1.24,1.17l1.24-1.17ZM22.02,12.83s-.88.12-1.03.15c-.22.04-.24-.1-.21.29h1.24c-.02-.12.03-.4,0-.44ZM16.24,13.27c-.05-.06-.92.72-1.03.88-.11.15-.33.38,0,.44.16.03,1.13-1.2,1.03-1.32ZM43.06,13.42c-.7-.08-1.42,0-2.14,0-1.76,0-3.57-.11-5.35-.16-.29,0-2.25-.04-2.28.08-.09.34.3.21.48.22,2.66.11,5.37-.18,8,.13l1.29-.28ZM22.29,13.42c-.33.03-1.29-.16-1.24.44.33-.03,1.29.16,1.24-.44ZM13.77,13.57c-.17-.16-2.23,1.58-2.34,1.83-.22.54.6-.16.69-.07l-.69,1.02,2.34-1.98-.07-.22-.76.44c-.14-.13,1.08-.78.82-1.02ZM18.72,13.57c-.67.1-1.05,1.34-1.65,1.25l.82-.95c-.38-.07-.98.34-1.04.72-.03.17.17.28.17.37,0,.09-.6.94.19.29l1.51-1.69ZM43.06,13.86c-.86.24-8.55-.52-8.67-.07-.09.34.3.21.48.22,1.18.05,2.4.13,3.57.15,1.26.03,3.23.15,4.41,0,.2-.03.43-.11.2-.29ZM46.78,13.71c-.12-.1-2.54,0-2.96,0-.02,0-.22.2-.21.29.92-.17,2.19.15,3.03-.04.24-.05.19-.2.13-.25ZM51.73,13.86h-2.82c-.12,0-.41-.42-.34.15l1.44.07,1.72-.21ZM57.65,13.86h-3.71c-.01.1.18.29.21.29h3.51v-.29ZM46.78,14.15c-1.07-.04-1.87-.23-1.37,1.21.07.2.37.18.48.41.25.52-.26.7.89.59v-2.2ZM37.98,14.3h-4.68l2.13.29h2.2c.09,0,.46-.24.34-.29ZM38.87,14.59c1.26.19,2.89-.14,4.2,0,.11-.58-.68-.17-1-.18-1.17-.05-2.36-.19-3.54-.11-.05.15.29.28.34.29ZM44.98,14.31h-1.23c-.18.74.28,1.4.14,2.04.85-.12,1.37-1.16,1.09-2.04ZM50.22,14.3h-1.65c-.07.07.07,1.98.15,2.04.04.04,1.04.19,1.09.16.02-.02.05-.34.14-.48.06-.09.25-.08.27-.2.09-.42-.06-1.05,0-1.51ZM51.73,14.3h-1.24c-.12,1.09-.02,2.28,1.24,2.2v-2.2ZM56,14.45h-2.06v2.05c.35-.02,1,.09,1.29-.13.11-.09.12-.36.22-.52.09-.14.29-.23.35-.37.13-.31.03-.71.21-1.02ZM57.79,14.45h-1.65c-.24.79.92,2.3,1.65,1.91v-1.91ZM14.59,15.18c-.08-.09.5-.36.07-.58-.21.35-3.47,2.99-3.23,3.22.26.06.33-.15.48-.29.39-.35,2.08-2.08,2.34-2.2.06-.03.23-.04.2.07-.32.53-1.23.82-1.17,1.54l1.58-1.54c.1-.31-.25-.19-.27-.22ZM16.24,14.59c-.13-.14-1.31.8-1.1,1.03.1.11,1.3-.81,1.1-1.03ZM17.48,17.38c.58-.76,1.25-1.4,1.93-2.05-.7.16-1.35,1.03-1.92,1.54-.11.1-.27.39-.41.15l2.34-2.42c-.63-.18-.63.34-.87.53-.33.27-1.78,1.32-1.72,1.71.04.25.4.32-.02.83.06.05.54-.22.69-.29-.2.26-.53.54-.55.88.13.14,1.28-.94,1.03-1.17-.12.22-.31.21-.48.29ZM13.9,14.74c-.15-.18-1.99,1.64-2.25,1.78-.21.05-.31.47-.23.56.09.11.76-.48.89-.59.38-.31,1.12-.93,1.41-1.27.1-.12.34-.28.17-.48ZM37.43,14.74h-4.13c-.02.34-.05.26.2.29.93.13,1.86-.12,2.75-.16.42-.02.97.39,1.17-.13ZM38.66,15.03c.27-.33-1.16-.4-1.24.29h1.1c-.28-.42.09-.24.14-.29ZM40.18,14.89c-1.06-.38-1.71,1.18-.59,1.58.68.24.64-.06.52-.64-.06-.29-.45-.28.07-.43l-.41-.29.41-.22ZM42.1,15.18c-.66-.36-1.85-.13-1.34.85.2.38,1,.25,1.34.32l-.41-.66c.39-.03.13-.29.17-.34.05-.08.3.08.24-.17ZM15.99,15.89c-.07-.09.43-.53.19-.71-.43.35-.96.73-1.03,1.32l.55-.22-.69.81.69-.29c-.17.37-.64.53-.55,1.03l.55-.29c-.16.36-.64.53-.55,1.03.29-.21.98-.63,1.08-.99.01-.05.05-1.02.02-1.06-.04-.05-.34.21-.41.15l.41-.51c.09-.29-.22-.19-.25-.24ZM35.5,15.18h-2.2v.29h1.99s.22-.2.21-.29ZM34.74,16.94c.82.14,1.96-.11,2.82,0,.03-.26-.31-.14-.48-.15-.43-.02-.87.01-1.31,0-.04-.27.26-.08.38-.17.11-.08.1-.51.24-.71.1-.13.55-.17.33-.44-.04-.05-.43.29-.55.29l.55-.44c0-.33-.46-.11-.62,0-.21.13-.76.84-.76,1.11,0,.15.34-.03.28.22-.52.01-1.11.14-.82-.58-1.36-.14-1.12.7-.07.88ZM38.25,16.21c-.48-1.48-2.52.28-1.18.45.77.09,2.07.25,1.59-.89l-.41.44ZM13.49,17.38c.51-.38,1.35-.87,1.37-1.61-.43.53-1.38.85-1.37,1.61ZM56.68,16.64c.12-.86-.84-1.3-1.1-.36-.11.39.68.02.8.11.06.04-.07.38.3.25ZM30.14,33.95c.34-.15.27-.9.28-1.24.15-3.73-.19-7.68-.2-11.45,0-1.41.24-3.02.06-4.4-.03-.22-.02-.45-.28-.51.03,3.01-.04,6.02,0,9.03,0,.31.14.59.14.87,0,.14-.06.8-.27.81-.01-.36.01-.73,0-1.1,0-.18.1-.54-.14-.51v8.58s.13.57.27.51l-.1-7.06.23-.42v6.89ZM9.78,17.67c.33.1,1.47-.86,1.24-1.17-.22.12-.42.29-.61.45s-.67.44-.62.73ZM43.75,16.65v2.05c0,.07,1.01.26,1.25.08.18-.14.17-1.08.14-1.33-.03-.3-.99-1-1.39-.8ZM46.78,16.65c-.59-.07-.67.22-.98.5-.1.09-.33.06-.37.11s-.07,1.39-.02,1.44,1.13,0,1.38.15v-2.2ZM50.01,17.16c-.31-.37-.51-.45-1-.49-.82-.06-.15,1.47-.29,2.01h1.51c-.24-.65.26-.96-.21-1.53ZM57.77,18.38c.13-.22.15-1.63-.33-1.74-.85-.19-.53.29-.64.41-.08.09-.37-.04-.4.11-.07.37.07.98,0,1.39.26,0,1.24.03,1.36-.17ZM51.59,18.69c.12-.12.43-2.32-.45-1.86-.19.1-.23.32-.38.47-.1.09-.36.02-.41.17-.08.28.07.89,0,1.23.23-.05,1.16.07,1.23,0ZM55.41,16.83c-.26-.16-1.12.04-1.48-.04v1.91s2.14-.28,2.14-.28c.27-.4-.37-1.41-.66-1.59ZM5.37,17.09h-2.13c-.1,0-.34-.33-.48.14.65.41,1.15.11,1.82.1.18,0,.3-.12.38.2-.94-.03-1.95.21-2.82.59-.59-.13.75-.37.48-.73-.27-.04-.62.06-.87,0-.11-.03-.09-.29-.18-.3-1.22-.16-.61,1.13-.61,1.82-.07,4.93.04,9.9.02,14.82,0,.63-.21,4.72-.08,4.92.1.15,1.09.71,1.04.07-1.18-.47.02-2.28.53-1.96.09.05.08.54.43.42-.04-.29.38-.52.4-.68.03-.17-.2-.31-.24-.46-.1-.39.53-1.4.94-1.14.44.28.12.92.96.37.16-.23-.77-.69-.24-1.28.21-.23,1.51-.68,1.92-.91.11-.06.15-.3.33-.41.29-.18,4.21-1.07,4.65-1.07,1.71,0,.79.77,1.03,1.04.04.05.9-.04,1.1,0,.03-.93-.28-1.04-1.1-1.17.09-.41.43-.11.71-.17.77-.16,1.34-.5,2.17-.27-.03-.67-1.3-.94-1.65-.73-.02.01.21.54-.2.44-.15-.04-.67-.84-1.17-.59v.44c.41-.03.82.01,1.1.37-1.19.32-2.01-1.64-3.16-.66.31-1.25,1.36-.36,1.86-.3.67.08,1.76-.05,2.45.02.89.09,1.69.59,2.56.72-.69-1.12-1.98-1.15-3.1-1.29-.15-.02-.36.13-.54.11-.48-.04-1.1-.65-1.73-.43-.03-.22.32-.24.45-.24.5.01,1,.16,1.4.47l2.13-.3c-.13-.2-.32-.25-.52-.33-.23-.09-2.04-.35-2.16-.32-.18.05-.17.42-.29.43-.32.03-1.2-.65-1.71-.3.6-.94,1.5.12,2.2-.36-.4-.46-1.04-.1-.69-.81l-1.93-.15c.87-1.13,1.84.22,2.56.29.83.08,1.1-.28,2.22.12.71.26.92.33,1.7.53.44.11.79.46,1.23.52-.31-.37-.92-.79-1.34-.99-.7-.32-1.43-.27-1.99-.49-.1-.04-.18-.29-.58-.44-.77-.29-1.35-.22-2.14-.14l.13-.28c-.63-.25-1.25-.55-1.92-.31.9-1.12,2.06.57,3.16.29.07-1.13-.91-.77-1.57-.89-.22-.04-.38-.25-.69-.29-.62-.09-1.26.27-1.52.24-.13-.01-.3-.26-.48-.31-.69-.21-1.21-.34-1.93-.08.66-1.38,1.85.13,2.41.14.2,0,.44-.24.7-.28.41-.07.97.22,1.09-.3.41.81.8.59,1.58.59-.09-.52-.25-.98-.79-.99l-2.51.26c.39-.76,3.06-.34,3.3-.59.27-.28-.41-.37-.52-.39-.34-.07-.85-.16-1.2-.19-.27-.02-.62.34-.76-.15.36-.14.6-.14.96,0l-.02-.71-1.49-.31c1.9.2,1.15-.74-.21-.88-.74-.07-1.41.09-2.13.14.09-.19.76-.38.93-.4,1.86-.25,3.27.81,4.99,1.28.29-.3-1.32-1.07-1.48-1.13-2.29-.96-4.5-.63-6.84-.45-.63.05-1.2.25-1.51.85-.31-.25.56-1.1,0-1.03-.51.07-.89.47-1.31.73-.05-.59.55-1.01,1.03-1.04.46-.03.64.22.82.23.32.02.68-.12,1.09-.07,1.16.14.87-.03,1.93-.15,1.5-.17,3.01.1,4.47.44-.03-.2.11-.61-.08-.75-.1-.08-1.24-.54-1.46-.61-.26-.09-1.83-.55-1.96-.55h-2.61c-.13,0-.91.43-1.03,0,1.1-.36,2.2-.2,3.3-.22-.55-.73-1.85-.57-2.66-.5-1.54.15-2.93.89-4.35,1.45.77-.87,2.55-1.41,3.66-1.6.33-.06,1.74-.03,1.84-.09.06-.03.17-.17.14-.22-.67-.24-1.37-.13-2.06-.15l.41-.29ZM24.36,37.03c-.11-3.01-.35-6.05-.16-9.02-.5-3.25.27-7.23-.1-10.42-.03-.28-.02-.49-.35-.51-.09,0-.97.15-1.01.18-.28.2-.15,5.91-.16,6.8,0,3.45-.06,6.13,1.14,9.48l.64,3.49ZM29.86,21.19v-4.11l-.14.51c.14,1-.16,2.26-.09,3.2.01.14.03.43.22.39ZM37.29,17.09h-2.41s-.21.14-.14.29c.1.24,1.42.88,1.65.88h3.3s.4-.14.34-.29c-.48.04-1.02-.13-1.45.14l-.07-.29c.34-.01.69.01,1.03,0,.17,0,.51.11.48-.15h-2.34v-.15h2.75v-.15h-5.36v-.15h2.2v-.15ZM14.87,17.23c-.11-.12-1.39,1.01-1.24,1.17.1.1,1.42-.97,1.24-1.17ZM27.52,22.07v-4.84h-.14v4.84h.14ZM27.93,17.23h-.28v8.36h.27c-.06-.32,0-.66,0-.95v-7.41ZM25.73,17.67c-.07-.07-.33-.07-.26.2.11.42.63,1.37.95,1.7-.13-.32-.56-1.77-.69-1.91ZM28.21,20.46c-.09-.13.07-2.25,0-2.64h-.14v3.37h.14s0-.59,0-.59c0-.01.26.17.27.15.24-.34-.26-.27-.27-.29ZM35.81,21.15c-.03-.56-.43-1.32-.46-1.8-.05-.82.62-1.38-.68-1.54-.08.08.74,1.11.41,1.47-.06.06-1.3-.04-1.59,0-.2.03-.43.11-.2.29l1.77.02c.28,1.06-.16,1.58.7,2.4.66.63.65.44,1.3.51.1.01.06.29.15.3.3.01.58-.42.42-.74-.11-.22-1.52-.6-1.83-.92ZM13.9,20.46c-1.53-1.37-3.59-1.98-5.5-2.49-.02.19.08.5.24.59.52.29,2.06.42,2.86.73s1.55.91,2.4,1.17ZM15.55,19.14c-.05-.08,1.23-1.22.62-1.17-.1,0-1.05.96-1.1,1.17-.04.16.34.49-.07.88.1.1,1.19-.88,1.23-.96.03-.07.07-.35-.06-.35l-.62.44ZM18.44,17.97l-1.32,1.02-.2.6,1.51-1.61ZM19.13,18.11c-.65.14-1.49,1.13-1.93,1.68-.08.1-.41.36-.27.51.15.17,1.03-1.15,1.31-1.17l.89-1.03ZM19.64,18.52l.04-.41c-.12-.17-2.91,2.77-2.75,2.93.26.06.33-.15.48-.29.76-.68,1.5-1.53,2.23-2.23ZM43.2,18.4l-.07-.29c-.81.28-1.79.19-2.62.28-.21.02-.42.03-.48.3l3.16-.29ZM14.87,18.55c-.14-.17-1.15.82-.96,1.17.16-.2,1.22-.86.96-1.17ZM29.31,18.55c-.65-.13-.65.19-.69.8-.15,2.19.21,4.95.23,7.22.03,2.98-.14,5.94.04,8.93.02.25-.01.49.21.65l.21-17.6ZM40.31,18.99h1.99c.12,0,1.24-.18.82-.44l-2.82.44ZM37.15,18.7c-.67.11-1.6-.4-1.38.58h1.51c.12-.2.04-.29-.2-.28-.37.01-.78.19-1.18.13.05-.27.27-.27.48-.3s.74.15.76-.14ZM38.25,20.75c.55-.28.04-2.42-.41-2.05-.23.69-.54,1.02.27,1.39-.34.3-.31.83-.41,1.25.33,0,1.4-.43,1.1-.88-.05-.08-.34.41-.55.29ZM18.44,20.16c.57.02,1.16-.76,1.24-1.32l-1.24,1.32ZM59.02,18.99c-3.1-.02-6.18.1-9.28.15s-6.21-.17-9.29.22l9.56-.07,9.01-.29ZM59.3,19.43c-4.65.1-9.32-.14-13.97,0-.33,0-.63.15-.95.16-1.31.05-2.64-.14-3.93.21,0,.12,2.02.09,2.28.08,4.03-.11,8.08-.11,12.11-.13,1.32,0,2.66.14,3.98-.02.21-.02.42-.03.48-.3ZM59.3,20.02h-17.95c-.15,0-.6.29-.89.15-.06.39.06.29.35.3,1.03.02,2.4-.31,3.44-.31,3.35-.02,6.82.26,10.18.28.68,0,1.54-.25,2.27-.12.04.19-.25.23-.38.25-1.09.18-2.09-.1-3.12-.12-4.13-.07-8.27.02-12.39.16l-.96.29,5.57-.15-.07.29c-.97-.42-2.01.17-3.03,0-.3.63,1.15.15,1.51.14,1.31-.04,2.62.05,3.93,0l-1.24-.15c.06-.26.7-.29.89-.3,1.46-.04,2.95.16,4.4.16,2.51,0,5-.11,7.5-.15.01-.29.07-.3-.21-.29-.55.02-1.1.02-1.65,0-.17,0-.51.11-.48-.15h2.13s.22-.2.21-.29ZM15.69,22.36c-.17-.44-3.02-2.37-3.16-2.2l.13.66,3.03,1.53ZM34.81,20.17l-1.65.07c.32.25,1.02.2,1.44.21.28,0,.22.01.21-.29ZM18.44,20.31c-.38-.02-1.7,1.27-1.65,1.54.04.23.17.2.34.08.22-.15.84-.85,1.03-1.1.13-.16.33-.24.27-.51ZM18.99,20.46c-.71.31-1.27,1.16-1.79,1.76l.48-.29,1.31-1.47ZM48.77,21.49c1.03-.02,2.07.02,3.1,0,.13-.42-.51-.37-.73-.36-1.09.03-2.26.38-3.4.22-.54.44.97.15,1.03.15ZM59.3,21.05h-5.64c.1.25.99.3,1.17.29.27,0,.53-.15.82-.15,1.05-.01,2.12.05,3.17,0,.17,0,.51.11.48-.15ZM26.42,25.01c-.49-1.33-1.03-2.73-1.92-3.81.45,1.33,1.17,2.65,1.92,3.81ZM41.28,21.19c-.46.04-1-.06-1.45,0-.2.03-.43.11-.2.29.49-.06,1.32.21,1.65-.29ZM18.86,21.34c-.33-.12-.34.1-.43.16-.15.11-1.12.97-.94,1.15.16.17,1.21-1.15,1.37-1.32ZM19.54,21.34c-.34-.13-1.78,1.41-1.79,1.54s.13.22.34.07c.45-.32,1.04-1.17,1.44-1.61ZM28.07,21.34v4.25c.32.02.24.05.28-.22.12-.96,0-2.57-.1-3.57-.02-.17.04-.51-.18-.47ZM47.47,21.34l-7.7.37c.41.35,1.21.25,1.72.23,1.61-.06,3.25-.34,4.87-.4.3,0,1.22.39,1.11-.19ZM34.81,21.49c-.42.04-.9-.06-1.31,0-.2.03-.43.11-.2.29.42-.04.9.06,1.31,0,.2-.03.43-.11.2-.29ZM53.24,22.51s.12-.35.04-.55c-.26-.62-1.24-.46-1.55.03.28.24.7.05,1.01.24.29.18.23.63.92.41.04-.29-.33-.08-.41-.15ZM59.16,21.49h-5.64c.41.59,1.33.13,1.86.13.99,0,2.01.24,3.01.14.15-.01.76-.07.77-.27ZM45.82,22.22c.52-.33,2.78-.09,3.65-.14.56-.03,1.12-.26,1.71-.15-.53-.63-1.68-.16-2.4-.14-2.77.05-5.5.18-8.26.29-.19,0-.57-.12-.48.22.08.28,1.7-.06,2-.07,1.26-.05,2.55,0,3.78,0-.51.33-3.69.23-4.61.29l-1.03.29,10.59-.29c.22-.18,0-.27-.2-.29-1.32-.18-3.35,0-4.75,0ZM15.97,23.68c-1.15-.93-2.74-1.55-4.13-1.9.41.68,1.36.72,1.97,1.2l2.16.7ZM15.55,22.95c.23-.23-1.32-1.1-1.37-1.03-.11.15-.03.35.17.48.11.07,1.16.59,1.2.54ZM35.36,21.93h-2.06v.29h2.06v-.29ZM59.16,21.93h-5.23c.08.33.37.28.61.3.88.08,1.86-.07,2.76,0l1.86-.29ZM26.42,26.03c0-.47-.28-.91-.48-1.32-.41-.86-.91-1.88-1.45-2.64-.03.38.19.7.34,1.03.46.96,1.01,2.07,1.58,2.93ZM51.18,23.39c-.2.06-.85.63-.35.73.22.04.37.22.21.44-.05.07-.36-.2-.41-.15-.18.19.47.46.29.71l.67.02-.41-.15v-.14c.32.03.29-.03.14-.29h1.24s-.69-.15-.69-.15l.55-.22c0-.09-.33-.06-.55-.22.38-.23,1.01-.6.74-1.18s-.57-.22-.91-.32c-.18-.05-.27-.34-.52-.27-.14.44-.03.76,0,1.17ZM36.05,22.66c-.58-.69-1.76.1-2.55-.15l-.2.29,2.75-.15ZM59.16,22.37h-4.95c-.02.22.36.26.49.28.63.07,1.29-.03,1.92.02l2.54-.3ZM13.22,23.1c-.05-.28-.96-.7-1.1-.58.21.63.52.76,1.1.58ZM50.63,22.66c-2.93.24-5.92.18-8.88.29l-1.44.3,9.52-.19c.24-.16.91.11.8-.39ZM35.84,22.95c-.67.04-1.39,0-2.06,0-.08,0-.3.22-.48.15l.22.26,2.94-.27c.08-.61-.45-.16-.62-.15ZM37.84,22.81c-1.11.11-.77,2.69-.08,1.6.33-.52.02-1.03.08-1.6ZM58.61,22.81h-4.26l1.3.3h1.24s1.72-.3,1.72-.3ZM17.2,23.98c-.28-.47-.85-.91-1.37-1.02-.23.24,1.12,1.08,1.37,1.02ZM26.42,27.06c-.41-1.36-1.11-2.81-1.92-3.96.08.66.47,1.31.75,1.91.31.66.73,1.48,1.17,2.05ZM58.68,23.25c-1.4.03-2.8-.03-4.2,0-.12.52.79.17,1.03.18,1.26.06,2.52.2,3.78-.03-.17-.53-.48-.15-.62-.15ZM15.65,23.88c-.48-.46-1.65-.63-2.29-.63.06.2.55.4.73.47.51.2,1.08.2,1.54.56.37.1.07-.34.02-.39ZM36.46,23.68c.64-.61-1.72-.16-1.86-.15-.13.01-1.79-.1-1.3.29l3.16-.15ZM50.63,23.25l-10.32.37,10.11-.07.2-.29ZM50.22,23.69c-3.1.12-6.2.16-9.29.29-.17,0-.51-.11-.48.14l9.37-.19.39-.24ZM59.16,23.69h-4.68c-.11.58.64.19.92.2.9.04,1.81.16,2.73.09l1.03-.29ZM36.19,24.12c-.06-.27-.22-.27-.44-.26-.61.03-1.54.11-2.12.26-.23.06-.4-.15-.33.3.97-.14,1.91-.26,2.89-.29ZM16.38,25.3c-.48-1.13-1.99-1.29-3.03-1.32l1.34.84,1.68.48ZM18.03,25.59c0-.37-.52-.66-.78-.85-.17-.12-1.02-.74-1.14-.61-.17.17.21.39.32.47.47.34,1.12.63,1.61,1ZM50.22,24.13l-7.36.15-.2.29,7.36-.15.2-.29ZM59.16,24.13h-3.85c0,.25.46.28.62.29.6.05,1.57.02,2.2.01.28,0,.93.04,1.03-.31ZM25.05,25.74c-.13-.11-.33-.29-.27.07.41.41,1.15,2.8,1.38,3.01.45.41.06-.52,0-.73.04.04.2.13.27.15.29-.42-1.6-3.26-1.65-3.96-.23-.05-.16.38-.13.51.07.26.28.63.41.96ZM36.05,24.42c-.96.06-1.98.06-2.89.36.28.23.96.11,1.31.07.43-.04,1.35-.08,1.58-.44ZM50.22,24.57l-5.39.19-1.35.25c2.16-.06,4.39.13,6.54-.14.2-.03.42-.12.2-.29ZM59.16,24.57h-3.3v.15h3.3v-.15ZM54.76,24.71l-.83.07c-.36.34.16.15.14.3-.02.17-.33-.06-.28.22l1.65-.15-1.24-.15.55-.29ZM35.77,24.86l-2.47.44c.71.03,1.43-.04,2.13-.15.25-.04.41.15.35-.29ZM58.61,25.15c-.11-.3-1.02-.27-1.31-.26s-1.08-.05-1.17.26h2.48ZM15.83,26.03c.55-.54-1.75-1.18-2.06-1.03-.06.38.06.26.28.36.24.11,1.69.76,1.79.67ZM17.75,26.18c.19-.2-1.03-1.37-1.24-1.17.08.78.74.72,1.24,1.17ZM41.28,25.44c-.42-.03-.55-.6-1.1-.44l.14.44-.55-.14.14.44c-1.31-.4-.59.11-.69.29-.42-.19-1.01.51-.62.88.71-.98,2.85-1.4,1.72.29l.62-.44c.12.58.6.02,1.03.29l-.69.15c-.06.2.53.28.41.44-.02.02-.2-.03-.23.03s.09.18.06.24c-.06.12-.46-.17.04.46-.3,0-.57.29-.34.59.09-.58.44-.1.63-.21.17-.1.17-.51.3-.63.2-.18.7.02.37-.62h.42s-.41-.73-.41-.73c.13-.11,1.18.61,1.51.22l-.83-.07.55-.44-.69-.15.69-.15h-1.24s.83-.3.83-.3c-.16-.38-.82-.26-1.1-.15-.23-.43.74-.2.41-.59-.3-.36-.84.35-1.16.3-.14-.02.02-.37-.21-.3v.29ZM50.08,25.15c-1.91,0-3.8.06-5.71.15-.17,0-.51-.11-.48.15h3.79s2.4-.29,2.4-.29ZM37.22,25.37c-1.29.04-.08.84.76.89.88.05-.09-.91-.76-.89ZM56.41,25.59h2.2c.05-.62-1.12-.15-1.45-.13s-.86-.41-.76.13ZM18.99,27.5c-.17-.49-2.89-2.03-3.03-1.9l.28.5,2.74,1.4ZM50.08,25.74c-.69-.36-1.34,0-1.99,0-1.22.02-2.44-.03-3.65,0,.37.56,1.45.15,1.99.14,1.05-.02,2.12.05,3.17,0,.17,0,.51.11.48-.14ZM15,26.03c-.51-.46-1.46-.31-.79.25.08.07,1.95.85,2.03.77.06-.07.02-.52-.14-.66-.38-.34-.95-.08-1.38-.07l.27-.29ZM45.27,28.52h4.47c.1,0,.18-.39.22-.42.03-.02.61.24.81.13.07-.29-.28-.4-.28-.66,0-.16.37-.93.55-.59-.16,1,.51,2.17,1.48,1.44.2-.15.15-.33.17-.34.29-.18.34.4.51.44.04,0,.7-.05.74-.07.11-.08,0-.25.05-.33.02-.03.21-.03.22-.13.03-.29-.23-.81,0-1.23.29-.03.06.49.14.59.04.05.34-.21.41-.15l-.27.73c.46-.23.82-.68,1.37-.59l-.28-.37.55-.07-.69-.15.27-.29h-.69s.14-.29.14-.29c-.79-.22-.98.17-1.48.41-.15.07-.41-.03-.56.07-.18.11-.01.54-.72.26-.08-.19.58-.16.27-.44-.18-.16-.64.26-.76.25-.39-.03-.72-1.58-1.66-.85-.73.57-.28,2.11-.6,2.44-1.38-.15-2.81-.02-4.2-.08-.28-.01-.21,0-.21.29ZM56.68,26.03c.1.09,1.87-.07,2.2,0,.05-.32.1-.2-.13-.25-.42-.09-1.52-.09-1.94,0-.24.05-.19.2-.13.25ZM36.78,27.38c.1-.13.58-.22.51-.54-.32-.29-1.25-.86-1.62-.63-.05.03-.69.87-.71.92-.09.24.08.2.17.25.14.09,1.06.55,1.14.56.62.06.47-.5.51-.56ZM49.53,26.18h-4.81c-.02.34-.05.26.2.29,1.14.15,2.41-.17,3.55-.07l1.06-.23ZM59.16,26.18l-2.34.07c.3.34.9.24,1.31.23.23,0,.91-.06,1.02-.3ZM17.48,27.5c.26-.5-.96-1.02-1.1-.88-.01.77.6.64,1.1.88ZM27.11,32.34v-3.89s-.28-1.75-.28-1.75c.03,2.2-.04,4.4,0,6.61.01.73.01,1.49.03,2.2.03,1.09.14,2.2.18,3.29.16,0,.01-3.11.07-3.45.06-.36.42-.44.43-.89,0-.27-.25-.19-.28-.31-.12-.49.25-1.6.28-2.03.05-.89-.05-1.83,0-2.72-.4.2-.15.88-.17,1.2l-.24,1.73ZM44.99,26.77c.25.38,1.11.12,1.59.14.41.02,2.95.39,2.95-.07,0-.25-.44-.18-.57-.19-1.23-.07-2.68.28-3.96.12ZM59.3,26.62h-2.2l1.16.3c.3-.1,1.15.26,1.04-.3ZM39.35,26.77c-.32-.07-.4.35-.65.42-.29.08-.72-.21-.85-.12-.22.17-.46,2.16-.43,2.55.05.79.69,1.61.42,2.57.27-.2.47-.35.82-.29-.55-.39-.43-.77-.56-1.38-.05-.23-.25-.43-.27-.61-.03-.42.4-.99.83-.87l-.55.81.65-.41c.21-.2,1.56.22,1.55-.1s-.52-.05-.55-.07c-.05-.06.77-1.02.55-1.46l-.96.73.69-1.1-.69.36.41-.66-.41.22v-.59ZM29.03,39.96l-.27-1.98c-.15-3.64-.1-7.28-.21-10.92-.23.17-.2.4-.21.65-.2,3.04.11,6.91.28,9.98.02.44-.06,2.37.14,2.57.3.29.25-.28.27-.29.01,0,.26.17.27.15v-3.81c-.71-.14-.28.39-.27.95.03.9-.03,1.82,0,2.72ZM18.99,28.23c-.11-.26-1.22-1.17-1.38-1.02.08.75.77.86,1.38,1.02ZM35.4,29.8c-.37-.63-.28-2.39-1.41-2.6-.2.84-.61,3.02.23,3.49.26.14.62.13.87.25.42.21-.26.21-.14.37.69-.23,1.37-.2,2.06,0l-1.37-.73,1.58.44.07-.29c-.43.21-1.7-.6-1.89-.92ZM46.09,27.5h3.3c.02-.35.05-.26-.2-.29-.56-.08-1.04.11-1.52.12-.24,0-.52-.12-.82-.13-.28,0-.89-.15-.76.3ZM27.8,31.31v-3.67h-.14v12.47s.41.15.41.07c-.25-2.65-.38-5.4-.28-8.07,0-.18-.1-.55.14-.51l.28,8.72h.28c-.32-4.31-.29-8.63-.28-12.98l-.27,1.54c-.03.63.02,1.27,0,1.91,0,.18.1.54-.14.51ZM29.58,27.35l-.27.22c.02,2.77-.07,5.55.21,8.29.27-2.84-.18-5.7.07-8.51ZM15.69,28.38c-.44-.88-1.39-.74-2.2-.73.45.63,1.51.52,2.2.73ZM25.87,33.22l.55.73c.06-.68-.35-1.22-.55-1.83l.48.51c.11.02.08-.13.07-.22-.17-1.09-1.55-2.67-1.65-3.88l1.44,2.93.2.15v-.22s-1.79-3.74-1.79-3.74c.22.45-.08.94-.07,1.18.01.56.51,1.04.48,1.6l-.48-.73c-.19.77.56,1.48.85,2.17.2.46.3.92.45,1.35l-1.24-2.2c-.05.27.04.44.13.67.42,1.07,1.17,2.18,1.59,3.29.27.31.25.09.15-.16-.23-.55-.43-1.04-.63-1.6ZM56.82,28.67c.28-.39-.89-1.22-1.24-1.03l-.41.29c.13.28.65.1.97.21.28.09.42.4.68.52ZM49.53,27.79h-3.44c-.08.11.28.29.34.29h2.89s.22-.2.21-.29ZM59.3,27.94l-1.65.07c.34.33,1.4.4,1.65-.07ZM17.89,29.11c-.24-.94-1.17-.78-1.93-.88.36.76,1.24.74,1.93.88ZM56.41,30.58h-.41c.34-.3-.05-1.27,0-1.32.08-.08.58.16.55-.15l-.52-.07.11-.22c-.41.06-.65-.1-.89-.44-.66.46-.07.97-.07,1.61l.28-.07-.55,4.32c.44.47,1.29-1.7,1.34-2.01.1-.53-.04-1.11.17-1.65.06.5.02.55,0,1.09,0,.17-.1.81.14.81.03-.59.43-2.45.15-2.85-.09-.12-.39-.12-.42-.08-.06.07.11.81.14,1.03ZM42.79,28.53c-.99-.09-1.23,2.31-.14,2.05-.73-.5-.53-1.56.14-2.05ZM51.73,29.4c.29-.33-1.19-1.09-1.51-.73.37.54,1.08.07,1.51.73ZM45.4,28.82c-.01.1.18.29.21.29h3.58s.28-.21.14-.29c-.17-.3-.32,0-.41,0h-3.51ZM19.04,29.5c-.26-.22-.5-.73-1.01-.68.18.68.8.74,1.31,1.02.54-.06-.26-.31-.3-.34ZM32.47,29.26c-.49.06-1.03.21-1.49.4-.21.09-.37-.08-.3.33.55-.25,1.41-.22,1.79-.73ZM49.26,29.41l-3.71-.15c-.06.41.07.27.34.29.88.06,2.13.13,2.99.06.17-.01.32.1.38-.21ZM50.9,29.26c-.12-.09-.73.22-.96.14-.06.38.4.79.41.83.09.44-.2,1.01,0,1.51l.41-.29c-.05.54.13,1.24.39,1.72.18.34.83,1.19.76.37-.05-.6-.31-1.15-.46-1.72.7.16-.07-.64-.1-.9-.06-.5.62-1.18-.17-1.52l-.14.73c0-.17-.08-.83-.14-.88ZM40.34,30.1c-.06-.06.04-.31-.09-.26-.18.58-.89.19-1.03.52-.15.35.37.17.41.22.04.45-.35.46-.69.44-.07.26.45,1.12.41,1.17-.04.04-.68.08-.68.52-.11.38.42.07.45.04.2-.16.21-.5.43-.41.57.23.17.84.21.88.04.04.79-.39.82.52,0,.06-.85.51-.4.95.17.17.72-.68.84-.79.1-.09.31-.06.37-.11.02-.02.03-.54.02-.56,0-.01-.18.1-.27.05-.59-.27.14-.97.69-.79-.26.45-.06.84,0,1.32l.34-.88.35.22c-.29-.22-.14-1.02-.17-1.07-.09-.13-.57-.25-.65-.32-.16-.15.49-.1.27-.44-.2.19-.79-.03-.82,0-.04.03-.03.42-.18.55-.23.21-.27.1-.64.53-.39.46-.17-.14-.19-.17-.22-.39-.1-.43-.12-.45-.04-.05-.23,0-.25-.02-.26-.33.25-.25.37-.33.23-.15.43-1.04.46-1.35,0-.16-.21.09-.26.04ZM49.26,29.84h-3.85l1.47.28c.71-.12,1.48.11,2.18.01.2-.03.43-.11.2-.29ZM20.09,31.75c-.82-.88-1.92-1.42-3.03-1.76.62,1.02,2,1.31,3.03,1.76ZM48.02,30.28h-3.03v.15h3.03v-.15ZM15.69,30.58c-.39.42,1.07.87,1.27.92.16.04.54.14.52-.12-.01-.18-1.68-.92-1.78-.81ZM49.81,30.72h-3.51c-.38,0-.79-.09-1.17-.15v.29s4.68,0,4.68,0v-.15ZM54.89,31.02c-.05-.07-1.55-.47-1.63-.43-.09.06-.4.88-.3,1.01.62-.22,1.28-.14,1.93-.15-.02-.12.03-.39,0-.43ZM58.61,31.02c-.05-.05-1.29-.2-1.43-.16-.11.04-.36.72.1.73.13,0,1.69-.24,1.32-.58ZM15.62,31.31c-.62-.08-1.36.06-1.99,0,.35.73,1.4.38,2.12.46s1.37.5,2.01.5c-.44-.43-1.56-.88-2.13-.95ZM37.15,33.66c.55-.44.16-1.55.27-2.2-.19.02-.24.66-.26.82-.04.46,0,.92-.02,1.37ZM50.36,32.48l-.37-.71c-.63.07-3.8-.42-4.11-.03-.12.16-.17.66-.34.88.77.4.66-.13.85-.26.37-.25,3.26.1,3.96.11ZM52.28,32.48c.19.13,2.19-.1,2.61,0v-.73c-.9.06-1.85.06-2.75,0-.04.04.11.71.14.73ZM59.37,31.75c-.35-.11-1.7,0-2.2,0-.23,0-.51.9-.27.88.43-.27,2.61-.17,2.68-.52.03-.13-.12-.34-.21-.36ZM16.38,32.19l-1.65-.29c-.02.28.41.15.52.33.07.11-.05.36.11.41.05.01.85.17.88.14.02-.02.16-.56.14-.59ZM18.85,32.63c-.03-.56-.66-.78-1.1-.73.03.32.97.86,1.1.73ZM37.01,34.1v-2.2l-.28,1.98.28.22ZM12.25,32.04h-.96s.14,3.81.14,3.81h1.79c-.12-.63.46-2.1.38-2.57-.06-.33-.82-.19-1.07-.21-.14.15.3,1.61-.27,1.47v-2.49ZM24.91,32.19c-.36-.36-.24.53-.06.73l1.58,3.23c-.01-.69-.38-1.39-.65-2.01-.07-.16-.25-.18-.3-.3-.13-.27-.42-1.51-.56-1.65ZM10.31,35.99c-.06-.49-.25-3.34-.39-3.44-1.32-1-.22,2.92-.26,3.36.11.36.37.11.65.08ZM34.67,38.94c.13-2.16.39-4.31.69-6.45-.26.05-.23.31-.28.51-.47,1.8-.49,4.09-.82,5.95h.41ZM35.91,34.54l.13-2.05c-.19-.03-.2.26-.23.41-.18.77-.19,1.59-.18,2.38l-.27-.88-.55,4.4h.82c-.35-1.47-.25-2.13.24-3.48.06-.17.26-.15.31-.29.15-.47.09-1.43.14-1.94-.25.06-.25.29-.28.51-.03.25.15.89-.13.96ZM8.68,36.3c-.37-.65-.42-2.74-.76-3.23-.21-.29-.78-.25-.7.3.14,1,.65,2.06.77,3.08l.69-.15ZM11.01,32.92c-1.27-.24-.36,2.23-.41,3.08.05.04.67-.12.69-.15.08-.12-.56-2.42-.28-2.93ZM15,32.93h-1.1c-.43.48,1.06.8,1.1,0ZM16.38,33.07l-1.1-.15c-.36.54,1.02.68,1.1.59.03-.03-.02-.32,0-.44ZM50.77,33.07s-.41.14-.6.14c-.65-.03-1.57-.26-2.15.08.84.73,1.93.13,2.89.37.03-.03-.12-.57-.14-.59ZM39.77,33.95c-.82.26-.57-.86-1.14-.71-.88.24-2.47,2.21-2.68,3.16-.2.87.12,1.91-.09,2.69-.08.3-1.58,1.6-.91,2.11.33.25,1.6.47,2,.95.27-.46-.84-.48-.89-.88l1.24.44c-.1-.24-.56-.46-.78-.55-.28-.12-.56-.19-.86-.18.15-.39.82.06,1.1,0l-.69-.44c.31-.22,1.06.33,1.1.29.3-.31-.85-.56-.96-.59l.55-.29-.69-.15.69-.15-.55-.44.55-.07-.41-.37.55.15c.03-.24-.32-.17-.41-.37-.06-.12.21,0,.27-.18.08-.23,0-.65.14-.92.27.02.1.58.13.81.13.82.61-.3.83-.07-.61,1-.11,2.38.96,2.64-.29-.93,0-.43.11-.48.07-.03.36-.76.58-.55.3.29-.32.92.07,1.17l.14-.44.34.29v-.59c.16-.11.17.64.41.29.06-.09-.13-.49.14-.44l.14.44.14-.73c.46.22.92-.19,1.37.15l.07-.59c.2.13.45.59.62.67.21.09.49-.13.55-.08.03.03-.05.42.28.66.25.18.57.08.78.19.42.22.47.71,1.04.6,1.03-.21.19-1.52.86-2.03l.07.59c.71.04.21-.79.28-.88l.82.59c-.23-.36.09-.81.41-.59l-.14-.44c.44-.1.4.5.69.58l.07-.73.21.88c.46.2.13-.63.48-.44.11.06.33.64.55.89.6.67,1.84,1.16,2.69,1.16l.07-.44c.21.28.43.74.83.73,0-.85.46-.76.46-.08-.02,3,.71,2.14,1.65,4.13.15.32.25,1.18.3,1.23.02.02.28-.15.46-.14.36.03.74.28,1.12.29-.21-.66.33-.01.48-.15-.26-.43-.24-.88-.82-.88l.55-.15-.55-.29.41-.29c-.55,0-.61-.48-.96-.81l.41-.07c0-.3-.52-.4-.55-.44-.31-.4.44-.17.41-.44l-.96-.44c.06.43.19.86.24,1.29.02.16.16.5-.1.47-.15-.2-.74-1.82-.69-1.9.04-.05.33.11.27-.15l-.55-.15c-.03-.27.72-.04.41-.44-.09-.11-.79-.15-.14-.37-.53-.26-.28-.28-.31-.44-.02-.11-.48-.07-.17-.37.72-.09.37.24.51.4.07.08.31.03.45.19s.17.66.49.81l-.55.14c.48.55.86.7,1.51.95.03-.55-.57-.51-.82-.81l.55-.07-.55-.37.55-.22-.96-.3.69-.22c-.09-.24-.52-.19-.55-.22-.08-.09.46-.54-.41-.59.18-.56,1.01.1,1.45.15l.07-.29c-.79.18-1.2-.64-1.93-.59.24-.57.98.14,1.24-.58-.53.03-.84.46-.55-.29-.7.54-.51.01-.63-.01-.26-.05-.52.21-.74.3l.55-.59h-.82s.27-.29.27-.29h-.69s.55-.44.55-.44l-1.1.29.41-.44-.82.07.55-.37-.96.14.69-.59-1.03.3.2-.29-.69.14.28-.44h-.42s.14-.29.14-.29c-.58.05-.68.4-.83-.35l.55-.38c-.32-.15-1.02.49-1.24.29-.06-.05.18-.4.14-.44-.03-.02-.21.04-.29-.02-.12-.08-.16-.22-.23-.26-.71-.35-.75.25-.92.24-.15,0-.22-.42-.62.04-.09-.83-.29.2-.55,0-.14-.11-.32-.97-.69.15l-.14-.59c-.72.71-1.7.19-2.24.29-.15.03-.15.35-.3.45s-.37-.56-.75-.29l.41.44-.41.07.21.22c-.41-.03-.26.71-.55.59-.21-.09.28-.76-.89-.15l.14-1.17c-.53-.22.1,1.11-.41.59-.07-.07-.26-.98-.69-1.03.24.49-.01,1.2.04,1.52.04.29.96,1.35-.04,1.56.1-.22.14-.92-.14-1.02.03.53.11.74-.41.88v-.59c-.66.4-.35-.25-.55-.73,1.61.22.62-.94.96-1.91-.82.46-1.84.61-1.51-.73ZM59.44,33.66c.04-.2-.05-.35-.23-.41-.41-.14-2.06.04-2.59.12-.24.04-.23-.08-.21.29h3.03ZM9.5,36.15c-.34-.57-.2-2.22-.48-2.64-.18-.27-.77-.2-.71.16.05.3.53,2.35.62,2.42.16.11.38.05.56.06ZM24.91,33.37l-.26.2,1.77,3.61c-.17-1.34-1.12-2.52-1.51-3.81ZM54.62,33.36h-2.06c.01,1.24,1.33-.3,2.06.73v-.73ZM14.31,36c.08-.08.57-2.14.54-2.26-.06-.27-.67-.3-.87-.24s-.37,2.01-.5,2.35c.19.03.71.25.82.15ZM19.27,34.39c.26-.26-1.1-1.01-1.24-.88-.26.26,1.15.97,1.24.88ZM16.1,34.39c.2-.26-.68-.88-.96-.73v.59s.96.15.96.15ZM6.06,33.8c-.08-.1-1.15.52-1.1.8.53.27,1.44,2.76,2.06,2.28-.32-1.02-.81-2.02-.96-3.08ZM59.44,33.95c-1.1,0-2.21.07-3.3-.15l.82.58c-.35,0-.68-.19-1.04-.16-.25.02-.18.29-.3.31-.46.09-1.34-.12-1.83-.15-.05-.26.22-.09.27-.15.16-.17,0-.3-.21-.3-.54,0-1.26.46-1.78.52-.27.03-.76-.24-1.04,0,.16.24.38.21.61.23,2.59.18,5.18-.03,7.78,0v-.73ZM43.62,34.1l-2.06.58c.63-.04,1.63-.03,2.06-.58ZM7.2,36.55c.22.26.62.1.6-.27,0-.1-.5-1.82-.56-1.9-.2-.29-.82-.23-.7.3.05.2.6,1.79.66,1.87ZM26.56,38.35c.14-.18-1.6-3.72-1.92-4.11.43,1.21,1,2.67,1.58,3.82.05.09.14.55.34.29ZM30.14,34.54v4.33c0,.12-.03.67.27.51-.12-1.35.11-2.98-.06-4.3-.02-.17,0-.57-.21-.54ZM15.97,34.98l-1.1-.15c.02.14-.04.54,0,.58.03.04.92.18.96.15.02-.02.17-.55.14-.58ZM17.06,35.28s-.77-.34-.81-.31c-.03.02-.18.64-.13.72.03.04.77.34.81.31.03-.02.18-.64.13-.72ZM59.56,35.14l-7.69-.08c.63,1.31,1.86.78,2.82.81,1.52.05,3.09.31,4.62.05.36-.06.36-.63.25-.78ZM18.31,35.42s-.66-.32-.69-.3c-.02.02-.14.47-.28.58.23.01.51.21.73.16.08-.02.24-.43.23-.45ZM4,35.27c-.25-.22-.46.57-.68.66.53.43,1.07,1.63,1.49,2.03.26.25.71-.09.65-.35-.05-.21-.77-1.04-.96-1.33-.14-.2-.46-.98-.5-1.01ZM5.17,35.42c-.93.31.45,2.1.68,2.05.87-.21-.34-1.74-.68-2.05ZM26.56,39.52c.04-.25-.07-.43-.15-.64-.3-.77-1-2.39-1.4-3.06-.09-.16-.18-.37-.37-.41l.55,1.4-.41-.22c.19.97.86,1.9,1.31,2.78.01-.59-.48-1.21-.7-1.75-.1-.25-.12-.47.15-.16l1.03,2.05ZM15.69,35.71c-.08-.11-1.1-.37-1.1.22,0,.42,1.42.23,1.1-.22ZM18.65,35.75c-.63.07-.05.78.41.84.52-.27-.18-.87-.41-.84ZM29.45,36v4.4c.32.02.24.05.28-.22.08-.68-.06-1.51,0-2.21l-.28-1.97ZM53.93,36.44h2.2c-.06-.21-.73-.23-.92-.24-.18-.01-.35.09-.53.09-.31,0-.86-.4-.76.15ZM15.41,39.82c.28-.99.26-1.3-.41-1.98-1.57-1.6-4.58-1.33-6.53-.8-.53.15-2.2.61-2.25,1.26-.07.88,1.38,1.2,2.03,1.08-.27,1.03.02.53.48.14l-.07.44.55-.44.27.44.28-.59v.59s.28-.44.28-.44c.58.24-.14.35.07.73l.62-.88.07.88.48-.88-.13.88c.6-.64.83-1.06.41.15l.48-.88.2.88.28-1.02c.4.08.09.65.2.88l.21-1.03c.35.01.22.78.34.73.35-.14.04-.65.07-.88l.55.59.14-.59-.13,1.03c.49-.26.4-.71.28-1.17l.34.73.34-.73.07.73c.47-.36-.08-.9.14-1.32.16.13.24.3.28.51.06.31-.2.84.06.96ZM59.09,36.59h-4.75c-.13.45.49.31.76.3,1.4-.05,2.77-.29,4.19,0,0-.09-.16-.28-.21-.29ZM3.72,36.74c-.22-.13-.66.6-.66.66,0,.11,1.35,1.6,1.62,1.39.49-.37-.92-1.61-.96-2.05ZM55.1,37.18c.76,0,1.51,0,2.27,0,.06.4.1.22-.15.23-.63.03-1.27.09-1.91.06-.08.53.07.15.21.15h3.92l-1.93-.29,1.79-.29h-4.54c.1.41.27.14.34.15ZM4.25,38.96c-.05-.09-1.26-1.08-1.47-1.29-.13-.12-.26-.47-.36-.5-.25-.07-.63.59-.74.81.01.14,2.02,1.48,2.15,1.5.3.06.61-.19.43-.53ZM27.52,41.14v-3.37l-.28,1.98c0,.44.1.76.05,1.21-.04.33.2.24.24.19ZM58.95,37.76c-.7-.1-1.73,0-2.48,0-.29,0-.61,0-.48.29h3.44v-.15c-.18.05-.37-.13-.48-.15ZM18.58,38.35s.05-.36-.2-.4l-2.41.11,1.03.29h1.58c.03.26-.32.14-.48.15-.57.02-1.17-.07-1.72.07.42.43,1.13.15,1.65.22-.24.58-.93,0-1.38.15.03.16-.05.48.02.57.19.25,2.94.26,3.42.46-.14-.96-.99-1.19-1.51-1.61ZM24.97,38.42l-.17.12c.49.85.57,2.16,1.48,2.6.31-.43-.97-2.35-1.31-2.71ZM58.82,38.2c-.67-.08-1.45.06-2.13,0,.08.35.22.19.38.2.79.03,1.57.14,2.37.1.04-.15-.56-.28-.62-.29ZM12.66,41.72c-1.25.28-2.75.07-4.02-.19-1.12-.23-3.47-.72-3.55-2.25-.02-.31.2-.56.07-.79-.4.36-2.28,3.24-2,3.52.07.07.46-.14.41.15l-.55.44,6.19-.29c.22.23-.23,3.15-.14,3.74.04.25.15.42.41.37l-.14-4.25c.98-.02,1.98-.08,2.96-.15.28-.02.4.11.34-.29ZM5.92,38.5c-.25-.2-.81.46.09,1.15,2.39,1.82,7.32,1.52,10.02.6l10.25,1.48c0,.27-.59.16-.75.14-1.31-.1-2.85-.46-4.16-.7-.27-.05-.16,0-.17.26l6.68,1.03-.21-.29c1.95.26.64-.31-.39-.54-3.42-.77-6.91-1.19-10.38-1.7-.77-.25-.52-.68-.66-.84-.29-.35-.29.7-.51.89-.25.22-1.07.41-1.41.51-2.04.54-6.82.48-8.18-1.4-.14-.19-.19-.56-.21-.58ZM31.79,38.94h2.06l-1.58-.3c-.29.02-.57-.14-.49.3ZM2.11,39.63c.24.25,1.48.9,1.61.25.04-.17-1.35-1.09-1.44-1.09-.16,0-.42.59-.17.84ZM3.31,40.55s-.34-.02-.5-.12c-.69-.4-1.18-.69-1.7-1.35l-.26,1.31c.12.18,1.95.5,2.26.46.19-.02.41-.1.21-.3ZM33.64,39.08c-.53-.14-1.54.11-2.13,0l1.3.3h1.04c0-.1-.16-.29-.21-.3ZM35.22,39.08c-.75-.03-.64.86-.69,1.47l.56-.95.13-.52ZM33.71,41.72c.38.46.7-1.8.71-1.96.02-.22.16-.36-.1-.53l-.62,2.49ZM59.43,39.38c-.46.04-1-.06-1.45,0-.2.03-.43.11-.2.29.52,0,.92-.08,1.45-.02.28.03.2,0,.19-.27ZM33.57,39.52h-2.48l1.71.3c.29-.07.87.21.76-.3ZM30.82,40.11h2.34l-1.86-.27-.48.27ZM59.43,39.82l-1.51.07c.16.25.37.21.61.23.15.01,1.32.04.9-.3ZM31.03,40.55c.76.09,1.64-.07,2.41,0l-2.26-.3h-.76c-.04.16.56.29.62.3ZM44.72,41.43c-.92-.14-1.58-.9-2.44-1.14-.1-.03-.49-.08-.22.12.09,0,.22-.04.18.07-.11.34-.79-.04-1.1.08l.96.37-.96.22c.31.06,1.13-.05,1.37.08.42.23.7.89,1.32.94.03,0,.13-.44.48-.29l-.28-.44h.69ZM20.64,41.28l-.48-.29c-1.24-.06-2.63-.44-3.85-.45-1.11-.02-2.24.69-3.37.67.95.25,1.91-.15,2.79-.47l4.91.54ZM29.31,40.55c-.66-.15-1.03.36-1.37.88.77.4,1.16-.11,1.37-.88ZM32.06,40.85l-2.06-.15,1.03.29,1.03-.14ZM2.9,41.14c-.04-.06-1.37-.27-1.45-.26-.17.03-.59.88,0,.99.13.02,1.05.11,1.11.1.19-.03.42-.68.33-.82ZM10.26,41.43c.81.08,1.72-.06,2.54,0,.03-.26-.31-.14-.48-.15-.45-.02-.93.04-1.38,0-.86-.08-1.75-.38-2.61-.44-.38-.03-.39.06,0,.16.55.14,1.4.38,1.93.43ZM19.54,41.43l-3.65-.3-3.09.73c2.09-.16,4.16-.2,6.26-.29.17,0,.51.11.48-.15ZM29.31,42.17c.07-.09.73-.26.55-.88-1.31.91-.8,1.9,0,2.93.19-.37.77-.1.82-.15.04-.04-.5-.99,0-1.17-.15,1.2.4,1.26,1.38,1.17.08.19-.57.15-.27.44.06.06.39-.2.55-.14l-.41.44c1.04,0,.92-.44.82-1.36l.83-.91c-.64-.3-.7.9-1.37.81l.14-.88.27.44c.19-.5.18-1.22-.46-1.03-.22.06-.63,1.65-.71,1.62-.46-.2.51-1.74-.34-1.76-.5.67-.77,1.17-.9,2.05-.28-.53-.22-.79-.89-.59.52-.35-.03-.97,0-1.02ZM40.86,41.43c-.19-.22-1.04.03-1.28.15-.25.13.12.56-.65-.15.27.6-.07.34-.18.62-.16.4.63,1.2,1.01,1.14l-.27.36c.8.84,1.76.47,2.75.81l-1.1-.44.82-.14-.69-.3.41-.15-.41-.37c.33-.02.38-.38.07-.51-.25-.11-.21.16-.29.28-.3.44-.49-.6.22-.43l-.69-.51c-.03-.07.52-.08.27-.36ZM46.23,43.63l-.14-.22c-.87-.32-2.13-.67-2.93-1.13-.55-.32-.98-1.34-1.89-.77l1.1.22-.69.15.69.29c.04.27-.25.08-.38.17-.4.3.04.4.09.53.11.24-.11.5.42.69l-.27.22.69.15-.27.29h.69s-.27.15-.27.15c.38.72.36-.06.61,0,.23.06.4.33.57.43.38.21-.11-.44.27-.29.18.08.75.56.9.44l-.27-.73,1.1.29-.69-.58,1.1-.15c-.29,0-.59.03-.88-.02-.16-.03-.64-.05-.63-.27l1.1.14ZM48.29,41.43c-.65.04-1.53-.32-2.11.03-.21.13-.2.41-.49.49-.32.1-.65.06-.98.06l.82.15c-.23.62-.83,0-1.24.22.61.29,1.19.72,1.86.81.14.02.65.11.62-.15-.07.01-1.59-.24-1.24-.59.03-.03.61.26.89.29.16.02.86.12.89-.14-.37-.12-1.03-.01-1.24-.44l2.61.58c-.61-.62-1.64-.56-2.34-.95l1.1.07-.69-.44c.43-.02,1.26.55,1.51,0ZM36.6,42.46c.33-.33-1.32-.95-1.58-.88-.36.33.5.29.2.59-.06.06-1.6-.72-1.5.22.06.62,1.92.71,2.39.81-.08-.41.35-.22.07-.73h.41ZM19.13,42.02v3.08c-.49.13-.14-.61-.17-.83-.04-.26-.26-.48-.38-.34-.16.2.51,1.44-.14,1.32v-3.23h-.28v3.37l-.19-1.16c0-.66.07-1.32-.03-1.98-.02-.16.22-.35-.19-.24v3.52l3.58-.29v-2.27c0-.13-.26-.53-.14-.81h-.14s0,2.93,0,2.93c-.24.03-.13-.33-.14-.51-.02-.43.03-.87-.02-1.3l-.26-1.12v2.79l-.27-.07c.21-.64.15-1.52.12-2.22-.01-.26.07-.45-.19-.64-.25.9.02,1.86-.07,2.78l-.25-1.27c-.06-.75.32-1.67-.64-1.67-1.35,0-.51.93-.62,1.91l.21-.43.2-1.32ZM16.38,44.58c0-.78,0-1.56,0-2.35,0-.02-.2-.29-.28-.15-.29.22,0,1.96,0,2.51,0,.24.07.96-.28.8v-3.23h-.41v2.13c0,.36.07.82,0,1.25h-.14s0-3.37,0-3.37l-4.13.15c.15,1.03.4,2.26.27,3.3-.03.27.05.24-.28.22v-2.71c0-.21-.16-.89-.41-.66-.03.11.14.18.14.22v3.15h-.14v-3.01c0-.16-.26-.54-.41-.37-.1.11.14.46.14.51v3.01h-.14v-2.86c0-.3-.22-.96-.55-.58.02.69.21,1.37.28,2.05.04.38-.14,1.73.2,1.79l6.55-.76c.27-.2.08-2.85-.01-3.38-.04-.24.09-.25-.27-.22,0,.93.24,1.93.14,2.86-.02.22-.03.45-.28.51-.08-.27,0-.57,0-.81ZM1.66,42.6s1.1.12,1.1-.22c0-.37-1.59-.18-1.92-.22v1.32c1.12.27.72-.76.83-.88ZM17.48,44.95c.13-.66.19-1.48.12-2.14-.02-.22.02-.43-.26-.49l.13,2.64ZM2.9,46.78c.15-1.13-.11-2.57,0-3.74l.28,2.42c.14.52-.41,1.3.13,1.54.31-1.34,0-2.61,0-3.96l.27.95v3.01c.09.01.28-.19.28-.22v-3.59l.29,2.42c.07.57-.54,1.42.26,1.25v-3.67l.22,2-.08,1.66c.13.06.41-.13.41-.22v-3.3c.24-.03.13.33.14.51.04,1,.03,2.01,0,3.01.12-.08.38-.12.41-.25.27-1.02-.12-2.21,0-3.27l.27.95v2.42c.51.12.19-.71.28-1.03.54.14-.02,1.14.55,1.03.05-1.24.1-2.43,0-3.67.09-.01.27.19.27.22v3.3h.41s0-1.76,0-1.76c.24-.03.13.33.14.51.01.37-.01.74,0,1.1h.41v-3.01c0-.07-.22-.31-.14-.51h.27s0,3.3,0,3.3c0,.09.28.28.41.22l.14-.88v.88s.41,0,.41,0c0-1.28-.04-2.55.14-3.81l-6.34.23-.27.15c-.02,1.39.24,2.76.15,4.16.14.05.27-.31.27-.37ZM26.56,44.66l-.96-1.54-.55-.52c-.09.1.83,1.37.97,1.54.07.08.49.58.54.52ZM59.57,42.6c-.66.09-.75,1.12-.2,1.47l-.21-.73c.59.11.4-.21.41-.73ZM2.35,42.9l-.4.25c.09,1.21-.11,2.52.05,3.72.04.27.08.34.35.29v-4.25ZM26.28,45.83l-1.65-2.64c.19.93,1.05,1.91,1.65,2.64ZM52.56,48.18c.62.13,1.24.2,1.86.44.32-.44-.44-.73-.73-.83-3.15-1.07-6.67-1.71-9.9-2.5-2.88-.7-5.78-1.43-8.69-1.95l.21.29-1.86-.29c.34.5,1.26.25,1.79.44l-.69.29c2.34.36,4.7.75,7.02,1.24,3.53.75,7.69,1.62,11,2.87-1.89-.4-3.72-1.07-5.64-1.32l5.09,1.39,2.27.81c.4.02.12-.19-.03-.26-.47-.21-1.08-.23-1.52-.43-.18-.08-.15-.19-.17-.19ZM28.76,43.49h-.83c.3.41-.14.23-.27.58h1.24s-.69-.29-.69-.29l.55-.29ZM29.17,44.22h-2.06v.29h2.06v-.29ZM54.07,44.51c-.8.19-1.31-.4-2.06-.29l.07.29c.73-.48.27.25.56.3l1.44-.29ZM.84,47.44c.49-.16.59-.43.61-.95.02-.45.1-2.31-.54-2.13-.36.1-.07.47-.07.51v2.57ZM35.5,45.54c-.14-1.26-1.61-.96-2.48-1.17.09.46.86.79.83,1.24,0,.04-.6.17-.12.63.19.19.39-.21.42-.22.08-.04.23.11.24.1.05-.05.03-.64.21-.73l.48.88-.27-1.32.69.59ZM29.31,44.66h-2.34c-.02.22.36.26.49.28.46.05,1.56.19,1.84-.28ZM26.56,48.03c-.3-1.14-1.2-2.3-1.92-3.23.39,1.21,1.25,2.19,1.92,3.23ZM29.86,45.1h-2.89l1.47.28c.37-.26,1.5.34,1.42-.28ZM54.89,45.39c-.63-.22-1.3-.21-1.93,0,.21.6.44,1.29.14,1.9.45.05.42-.59.78-.7.6-.2,1.81.38,1.53-.51-.2-.65-1.25-.32-1.76-.4l1.24-.29ZM30.41,45.54h-2.27c-.22,0-.8-.31-1.17-.15v.29s2.27,0,2.27,0c.25,0,.94.47,1.17-.15ZM26.97,47.59h7.02v.15h-7.02v.29h7.29l-2.41.26c-1.6-.25-3.26-.06-4.88-.12-.22.18,0,.27.2.29.67.09,1.51-.04,2.21,0,2.41.11,4.76-.1,7.15,0,.19,0,.57-.12.48.22l-9.84.07-.2.29h12.24c.03-.45.06-1.18.23-1.58.07-.17,1.4-1.33,1.15-1.65-.58.06-1.69-.45-2.14-.44-.25,0-.54.67-.92.9-.83.51-2.06.59-2.98.85l.55.29c-.45.08-.87-.13-1.3-.15-1.84-.08-4.4-.15-6.2,0-.24.02-.53-.03-.61.3ZM26.56,48.76c.13-.16-1.47-2.68-1.79-2.93-.13.5.52.83.34,1.17l-.34-.29c.11.89.98,1.54,1.24,2.42-.54-.15-.69-1.5-1.24-1.32l.69,1.25c-.28,0-.37-.54-.41-.59-.09-.08-.36-.03-.27.22.25.69,1.34,1.58,1.51,2.42.59.08-.03-.3-.01-.66,0-.08.29-.06.29-.15,0-.25-.29-.33-.29-.58,0-.09.28-.07.29-.15.03-.48-1.14-1.48-1.11-2.13.39.2.51.69.74,1.04.05.08.15.53.36.27ZM30.82,46.27c-.05-.27-.27-.27-.48-.3-1.03-.12-2.32-.03-3.37-.14,0,.25.46.28.62.29,1.06.09,2.17.08,3.23.14ZM47.6,47.45c-2.09.1-3.94-1.33-6.05-1.47l.66.4,1.68.41c-.23.36-.28.15-.5.1-.4-.09-.86-.28-1.29-.32.04.35.78.42.55.73-.03.04-.39-.3-.55.07.19.24.17.59.28.84.01.03.74.74.2.55-1.23-.43-.28-1.79-1.1-2.49-.48.37-1.1,1.34-1.03,1.98.03.31.7.95.83,1.33l.07-.52c.32.23.67,1,1.03.81-.16-.13-.85-.9-.69-1.1.77.28,1.34,1.13,2.2,1.03-.29-.25-.8-1.32-.14-1.32-.18.47.24,1.02.62,1.17s.02-.65.48-.44c.01.98,1.05.8,1.65.44l-.14.59h1.1s-.55-.44-.55-.44c.25-.15.93.18.96.15.28-.31-.35-.23-.27-.44l.82-.15-.82-.15.96-.15-.69-.22.69-.37c-.33-.04-1.43.51-1.37-.15.12-.1,1.71.18,1.93-.44-1.81.48-3.84.37-5.36-.88,1.12.46,2.16.64,3.37.58.17,0,.51.11.48-.14ZM59.57,46.12c-.66.07-1.28-.34-1.1.59.66-.07,1.28.34,1.1-.59ZM31.37,46.71c.01-.1-.18-.29-.21-.29h-3.3c-.14,0-.74-.37-.89.15.57.03,1.15-.04,1.72,0,.18.01.36.15.41.15h2.27ZM31.72,46.86c-1.11-.15-2.8,0-3.99,0-.17,0-.47-.15-.76,0-.04.04.18.29.21.29h5.02v-.15c-.18.05-.37-.13-.48-.15ZM57.78,50.82c.93-.21,1.36-1.28,1.17-2.2-.37-.21-.42-.72-.62-.96-.28-.36-2.22-1.31-2.48-.66.55-.18.84.28,1.2.41.54.19,1.24-.21,1.14.91-.28-.04-.19-.63-.5-.73-.28-.09-.59.4-.74.29-.05-.04-.03-.52-.48-.59-.43-.07.03,1-.62.88.39-.43-.73-1.56-.96-1.32-.19.2.27.78.27.95,0,.09-.41,1.47-.48,1.69s-.34.48-.34.51c0,.1.2.26.41.15.56-.29.4-1.8,1.37-1.69.16.17-.33,1.66-.26,1.96.05.22.42.32.54.24.09-.06.35-1.92.62-2.2.56.46-.75,2.23-.14,2.34.46.08.76-1.91,1.24-2.19.64.91.2,1.49-.34,2.2ZM59.57,46.86l-.83.08.18.84.65,1.14v-2.05ZM54.61,47.01c-.26-.19-1.31.18-.95.58.11.13.62-.16.75-.15.15,0-.02.37.21.3.06-.16.11-.64,0-.72ZM16.52,47.15l-.28.44h1.65c.16-.58-.85-.09-.94-.18-.03-.03-.19-.78-.3.04l-.14-.29ZM14.32,47.3c-.53.26-1.27-.35-1.1.44h1.1v-.44ZM16.65,68.27h-1.99c-.25,0-1.26.48-1.66.58-2.12.5-4.22,1-6.39,1.18.08-2.37-.05-4.76-.69-7.04,2.89.38,5.74-.73,8.53-1.39.14-.48.02-.98.27-1.54-.52,0-.95,1.11-1.37.44.42.07.61-.64.72-.7.27-.16,1.39.04,1.62-.62-.38.09-1.55-.09-1.83.02-.11.04-.85.9-1.02,1.01-.3.19-.91.27-1.14-.08.38-.39.99-.06.68-.81.67.23,1.04-.25,1.47-.39.2-.06.52.11.77.08,1.11-.16,2.52-.9.44-.56l-1.18-.15c1.48-.13,3.4-.25,4.54-1.32-1.1.13-2.15.55-3.25.71-.94.14-1.57-.08-2.47.6-.12.09-.13.34-.3.44-.41.24-1.29.3-1.13-.44.84.44.75-.35,1.16-.53.17-.07.56,0,.77-.06l-.27-.58c1.43.29,3.43.16,4.81-.37.16-.06.38-.16.41-.37-.83-.14-1.6.23-2.4.3-.69.05-2.43-.25-2.87.13-.21.18.02.64-.71.67-.53.02-.88-.19-.75-.8.45-.21.8.1,1.23.14-.38-1,.25-.59.7-.67.16-.03.49-.33.67-.21.01,0-.11.21-.07.3.22.47,3.32-.13,3.92-.3l-1.03-.21c-.85-.02-1.96.37-2.68-.16l3.16-.22c-.35-1-2.61,0-3.03-.44-.2-.21.01-.27.2-.29.86-.12,1.92.06,2.82-.15.06-.15-.32-.29-.34-.29h-2.2c-.28,0-.7.22-.89-.29h1.99c.08,0,.31-.22.48-.15-.1-.9-1.16-.15-1.7-.3l-1.74-.57c.83-.31,2.72.92,2.61-.59-.52-.03-1.05.05-1.57-.01-.13-.02-.52-.06-.49-.28,1.11,0,2.27,0,3.37-.15.2-.03.42-.12.2-.29-1.09-.46-2.16.17-3.23.15-.45,0-1.38-.22-1.93-.3-.19-.03-.42-.08-.21-.29.26-.09.71.01.92-.11.24-.13.29-.45.41-.48.53-.14,2.02-.05,2.73-.14.21-.03.42-.03.48-.3-.6-.23-1.07-.02-1.58,0s-1.21-.09-1.65,0c-.56.11-1.39,1.46-2.13.29.56.19,1.17-.06,1.69-.3.08-.04.08-.26.19-.29.74-.18,2.17,0,3.14-.15.24-.04.23.08.21-.29h-3.71s.03.22-.09.3c-.37.22-1.53.79-1.56,0,.7.23,1.21-.44,1.75-.55.62-.14,1.6-.06,2.33-.13.14-.01.43.13.46.09.06-.08,0-.43-.13-.52-.26-.18-.4.08-.48.08h-2.27v-.15c.17.06.4-.15.48-.15h2.41l-.07-.44c-.95.26-1.89.09-2.87.31-.76.17-1.78,1.09-1.6-.6-.54-.08-.42.08-.41.59-.33-.03.12-.58-.48-.44-.15.04-.04.43-.07.59-.29.03-.06-.51-.14-.59-.39-.41-.72.64-.27,1.03-.81-.1.04-1.14-.96-.88l.07.88c-.13.23-1.5-.45-1.45.73-.84-.68.41-.9.55-1.47-.48-.21-.45.61-.55.1-.66-.51-.51.77-.62.78-.4-1.26-.85-1.19-.48.15-.29,0-.41-1.33-.82-.88-.18.2.25.97.41,1.17-.74.27-.39-1.09-.76-1.17-.51-.11-.3.9-.21,1.17-.35-.06-.32-.96-.41-1.03-.41-.32-.43.77-.27,1.03l-.48-1.02-.2.44-.28-.44c-.61.53-1.47-.19-1.24,1.03l-.28-.88-.14.73-.41-.59c.13,1.03-.14,2.16-.14,3.15,0,2.96.46,6.32.29,9.25-.1,1.77-.86,3.35,0,4.98v11.08c.19.03.18-.25.23-.41.64-2.11.72-4.45,3.66-3.81.27.06,1.27.75,1.33.7.02-.02.06-.33.27-.52.85-.79,2.33-.86,3.3-.28.35.21.87.94,1.03.94.27,0,.97-.53,1.32-.66,1.29-.46,2.74-.45,3.98-1.25.03-.26-.3-.13-.44-.11-1.22.21-2.47,1.08-3.82.84-.04-.21.26-.19.41-.22,1.44-.31,2.87-.55,4.27-1.1-.07-.31-.18-.22-.38-.2-.83.07-1.7.47-2.57.5-.28,0-.89.15-.76-.3,1.1.33,2.47-.53,3.4-.55.17,0,.29.2.46.18,1.17-.12,2.89-.59,3.89-1.27.14-.09.42-.3.02-.27-.78.54-1.77.76-2.68.88l2.2-.81-.06-.51c-1.08.72-2.38.77-3.54,1.06-1.07.27-2.11.88-3.27.7-.03-.2.25-.22.38-.25.98-.22,1.97-.39,2.96-.64.19-.05.39-.09.68-.16.25-.06,1.7-.34,1.76-.41.01-.02.01-.42,0-.44-.03-.04-.71.31-.96.15.27-.47,1.29,0,.89-.73-1.58.26-3.13.87-4.74.88l2.09-.48.38-.25ZM11.29,47.59s-.3.02-.41,0v.73c.06.07,1.05-.07,1.1-.15.18-.29-.27-.77-.55-.58-.09.06.4.55-.14.44-.02-.11.03-.41,0-.44ZM19.13,48.47c.08.54,1.23.09,1.23-.08.02-.42-1.09.09-1.23.08ZM40.5,49.44c-.18-.33-.26-.89-.33-1.27l-.14,1.17-.41-.88.13,2.79c-.39-.19-.36-.63-.31-.99.04-.29-.09-.31-.23-.19-.05.05-.07.57-.17.7-.21.26-1.11,0-.93.77.38-.31,1.29.16,1.55.45.19.22.47.64.24.87h.42c-.28.43.67.7.27,1.17.49-.1.34.13.48.38.22.41.04.32.1.47.01.03.19.04.24.15.43,1.01.67,2.38,1.8,2.82.07-.07-1.3-1.35-1.03-1.61l.96,1.03c.35-.83-.91-1.31-1.09-1.91-.08-.27.04-.71-.08-1.02l.62.73-.21-.73c.13-.1.54.33.76.27.07-.02.06-.2.09-.23.07-.04.22.11.24.09.35-.26-.16-2.86.29-3.36-.92,0-2.8-.83-3.25-1.67ZM18.17,49.21c-.62-.11-1.16-.29-1.79-.15-.03.39,0,.24.21.29.43.11,1.35.37,1.58-.14ZM49.81,49.06c-.26.02-.61-.07-.84.07-.09.05.1.57-.54.52l.27.29c-.55-.13-.35.29-.55.51-.25.29-.68.14-.97.29.81.62,1.66-.04,2.34-.37l-.14-.29h.55s-.27-.44-.27-.44c.14-.06.48.21.55.14.36-.33-.92-.36-.41-.73ZM22.57,49.2c-.38.19-1.24-.05-1.24.59.4,0,1.22,0,1.24-.59ZM34.54,50.38h-7.57v.15h2.82c.12,0,.61.19.48.29-.27.07-.55-.14-.78-.14-.2,0-.35.14-.39.14h-2.27v.15h7.29v-.15h-3.58l2.41-.29c1.73-.24,3.09.58,4.8.28.9-.16,1.1-.67,1.45-1.46h-12.24c-.22.18,0,.26.2.29,1.8.24,3.96-.18,5.79-.15l.75.23-4.07.07-2.68.3c2.37-.01,4.72.04,7.08.15.17,0,.51-.11.48.15ZM26.42,51.84c-.3-.91-.92-1.78-1.51-2.49.2.92.96,1.76,1.51,2.49ZM54.21,49.35c-.84-.17-.19.84-.14,1.26.05.54-.16.95-.14,1.45.04.98.95,2.29.1,3.41-.29.38-1.02.32-.63.91l6.05-.2.12-5.5c-.12-.15-1.33.53-1.6.58s-1.65.03-1.88-.03c-.69-.16-.61-.87-.86-.99-.51.94-1.46.05-1.03-.88ZM19.68,49.5c-.93.3-1.91.09-2.8.15-.13,0-.52.07-.5.28,1.03.14,2.01.28,3.03-.08.24-.08.33,0,.27-.36ZM21.06,50.08c-.4.06-1.1-.32-1.38.14.31.06,1.45.46,1.38-.14ZM19.27,50.38l-.55-.08-1.51.22c.43.16.85.17,1.3.15.16,0,.74-.06.76-.29ZM26.42,52.72c-.21-.91-.93-1.8-1.51-2.49.25.88.96,1.78,1.51,2.49ZM17.07,50.67c-.75-.26-1.32.03-2.04.1-.67.06-1.64-.16-2.09.49,1.28.01,2.66-.05,3.92-.3.22-.04.24.1.21-.29ZM20.51,50.67c-.41.02-1.11-.19-1.1.44.46.12,1.05.28,1.1-.44ZM46.92,51.11c-.53.3-2.52-.58-2.77-.21-.46.68-.05,2.2-.14,3.05-.08.73-.46,1.42-.53,2.23-.05.51.11,1.42.07,1.9-.03.32-.4.63-.35,1.02l.69-.8c.11.48-.55.81-.34,1.17l.48-.29c-.23.46-.71.97-.21,1.46-.07-.82.56-.78.62-1.46l.27.58c-.06-.94-.12-1.85,0-2.79.65.39-.06,1.78.41,2.2.51.46.01-1.46.14-1.61.19.09.23.74.26.97.04.26.02.53.02.79l.14-.88.41.44-.14-.73c1.39-.12.2,1.26.27,1.32.53.41.85-1.03.55-1.46l.41.73v-.88c.17-.09.17.63.41.29.04-.06-.03-.44,0-.59.47-.03.51.66.55,1.03.22.24.52-1.62-.21-1.62-.09,0-.65.5-.62.08,0-.06.63-.66.64-.88.01-.19-.31-.39-.23-.66.16-.07.32.73.55.44.14-.18-.37-.48-.27-.73l.62.29-.2-.59.69.29c.13-.13-.63-.96-.75-1.04-.49-.31-.62.1-1.04.23-.73.22-1.98.28-2.06,1.25-.72-.52.07-1.25.19-1.89.09-.43-.14-1.01-.06-1.39.03-.15.42.03.14-.53l1.1-.15-.27-.29.55-.29ZM26.97,51.4h5.36c.02-.34.05-.26-.2-.29-.96-.13-1.96.11-2.89.15-.6.03-1.2-.03-1.8,0-.17,0-.51-.11-.48.15ZM37.56,51.11h-2.75v.15h2.27c.1,0,.35.33.48-.15ZM49.81,51.99c-.59-.93-.7-.87-1.65-.58.29.35.76,1.19,1.24.95-.85-.95-.31-.59.41-.37ZM19.41,51.55c-.1.61,1.04.54,1.1.22-.06-.61-.71-.08-1.1-.22ZM17.2,52.14h2.06l-.07-.59c-.38.11-.79.12-1.17.22-.2.05-.75.17-.82.37ZM26.42,53.6c-.07-.77-.72-1.53-1.24-2.05.31.7.72,1.51,1.24,2.05ZM26.97,51.84h8.67c.03.26-.31.14-.48.15-1.02.05-2.15.12-3.15.13-.75,0-1.73-.12-2.5-.13-.69,0-1.72-.08-2.33,0-.25.03-.22-.05-.2.29h3.51l.89.29c-1.31.05-2.62-.14-3.92-.12-.24,0-.58.07-.48.41h8.25c-.02.24-.59.28-.76.29-.56.05-1.15-.03-1.72,0l.27.29h-6.05c.05.29.22.22.4.25.34.05,1.2.05,1.59.06.28,0,.53-.15.81-.14.61.02,1.35.26,2.01.13.07.57-.22.15-.34.15h-4.47c-.02.34-.05.26.2.29.77.1,1.75.04,2.55.15.03.26-.31.14-.48.14-.43.02-2.09-.18-2.27,0-.41.4,1.13.29,1.29.31s.76.06.77.27h-2.06c.15.41-.32,1.46.09,1.59l6.02-.12c.17-.83.77-1.46,1.37-2.01.16-.15.48-.17.58-.34.11-.21.03-.54.1-.77.28-.85.76-.57,1.39-.86.49-.23.54-.7,1.05-.79.06-.36-.27-.21-.48-.22-3.19-.19-6.43.19-9.6.07l-.51.23ZM48.29,52.14c-.07-.83-.97-.56-1.51-.59l.14.29-.96.15.55.22-.82.37.55.15c-.24.32-1.06.52-.27.51l-.28.44.41.07-.41.73c.08.08,1.87-.54,2.07-.66.34-.2-.41-.49-.28-.81l.82.59-.69-1.1.83.51-.55-.81.41-.07ZM38.66,56.1s-.08-.38.34-.38c1.16.02,1.43,1.2,1.78,2.15.12.32.03.77.36.86.16-.23-.5-2.07-.68-2.42.07-.62.43.54.48.52.05-1.07-1.15-1.94-1.86-2.57.27-.32,1.04.59,1.1.51.07-.61-1.01-.76-.76-1.17l.69.58c.3-.38-.95-1.04-1.01-1.2-.05-.15.13-.33.05-.55-.05-.14-.52-.58-.69-.59-.6-.01-1.37.99-1.87,1.23-.17.08-1.5.24-1.09.82.04.06.54-.62.82-.44-.29.35-.62.44-.55,1.02.2-.04.35-.72.69-.44.04.03-.46.68-.21.88l.62-.59c.01.52-.41.79-.14,1.32.25.07.05-.3.2-.29s-.05.35.2.29v-.73c.23-.01.26.42.28.44.09.06.31-.41.55-.29.09.08-.64.55-.34.73.09-.12.35-.41.48-.29.26.23-.34.35-.39.53-.09.31.02.75-.02,1.08.6.1-.02-1.04.55-1.17v.44s.36-.24.41-.29c-.15.21-.3,1.15-.27,1.47l.27-.59c-.1.84.24.54.39.63.07.04-.06.31.16.24.25-.48-.15-.99-.14-1.24,0-.08.38-.02.28-.29s-.49-.5-.69-.22ZM26.28,54.34c-.2-.84-.78-1.76-1.37-2.35-.08.26.21.34.24.53.04.25-.18.46-.03.93.11.34.76,1.17,1.03,1.47-.14-.75-.91-1.41-.89-2.2l1.03,1.61ZM18.17,52.43c-.86.06-2.54-1.08-2.34.59.04.08,1.48-.29,1.73-.3.64,0,1.24.37,1.95.04.2-.09.21-.04.17-.33-.6-.06-1.05,0-1.58.29l.07-.29ZM20.51,52.87c-.06-.06-1.65.42-1.65.51,0,.32,1.1.05,1.24,0,.17-.06.57-.36.41-.52ZM18.17,53.16c-.46-.04-1.43-.3-1.51.44.45-.05,1.24,0,1.51-.44ZM30.69,53.02h-3.71c-.13.45.49.31.76.3.8-.03,1.63-.28,2.47-.15l.48-.15ZM49.33,53.16c-.59.13.29.96.55,1.02.54-.25-.36-1.06-.55-1.02ZM21.06,53.46c-.58.28-2.04,0-2.2.73.61,0,1.37-.1,1.93-.37.21-.1.34.02.27-.36ZM18.58,54.34c.08-.1,0-.49-.23-.57-.41-.14-.87.16-1.28.13.06.27,1.46.5,1.51.44ZM26.28,56.1c-.19-.77-.65-1.69-1.24-2.2l.58,1.22.66.98ZM21.06,54.19c-.43-.08-.8.24-1.18.28-.84.1-2-.22-2.67.45,1.11.03,2.34-.03,3.39-.42.18-.07.42-.04.46-.31ZM35.91,54.92c-.91-.51-1.3-.26-1.81.63-.3.52-.38,1.4-.56,1.67-.25.38-.82.75-1.11,1.38-.18.39-.41.79-.01.86.53.1-.03.36-.13.6-.36.87-.22,1.57-.22,2.48l-.28-.59c-.26-.26-1.27,3.4-1.31,3.66-.23,1.42.13,2.42.17,3.62.05,1.5,0,2.39.17,3.96.23,2.2-1.49,2.26-2.53,3.72-.2-.68-1.3.29-1.86.3l.41.29c-.13.02-.85.3-.82.37.15.4.76-.17.82.22-.47.17-1.14.21-1.37.73.46.02.94-.15,1.31-.44.19.64-1.06.51-1.44.81-.2.16-.28.57-.42.8.14.13,1.78-1.16,2.2-.95-.74.38-.98.64-1.37,1.39.76-.11,1.2-.91,2.06-.73-.28-.63.06-.37.2-.58.05-.08-.09-.28-.06-.3.29-.23.34.47.55.44-.21-.4.47-.42.14-.66-.49-.35-.6-.06-1.1-.15.22-.35.58-.27.86-.38.12-.05.11-.24.13-.25.17-.08.48.45.39-.33.19-.05.31.7.55.44.16-.17-.55-.51-.27-.88l.69.44.28-.29-.14-.29c.55.29.29-.31.96,0,.08-.2-.57-.15-.27-.44.08-.08.36.26.41.07.1-.38-.29-.07-.28-.36h.96c.06-.71-.72.35-.55-.59.55.04.76.04.69.73l.14-.29c.44.24.87-.19.27-.37,0-.1.52-.06.28-.37-.04-.05-.33.12-.27-.15l.41-.22-.55-.37.69-.07-.55-.37.69-.15-1.1.14.41-.51-.27-.07c.55-.67.01-.32,0-.51.74-.31.06-.34.02-.39-.08-.1.14-.31.09-.4-.02-.04-.24,0-.24-.08,0-.22.39-.58-.15-.53-.05-.27.23-.05.28-.22.08-.32-.46-.2-.28-.36.06-.05.41-.04.41-.29l-.41-.15.14-.37.55-.07-.41-.15c.02-.36.4-.12.41-.15.25-.44-.4-.14-.41-.44.53-.18,1.2.11,1.69,0,.09-.02.09-.22.2-.27.07-.03,1.05-.13.72-.45-.1-.1-2.14.88-2.61.37l.41-.37-.55-.15c-.05-.25.75-.06.41-.44-.04-.04-.53.03-.55-.29l.55.07-.55-.22.41-.15-.41-.44.55-.15-.55-.29.55-.29-.55-.15.55-.08-.28-.29.41-.07-.27-.37.41-.07c.08-.18-.59-.18-.27-.44.06-.05.53.04.69,0l-.41-.44c.16-.04.62.05.69,0,.32-.26-.36-.26-.27-.44l.68-.22-.41-.37c.19,0,.41-.04.6.02.5.15-.21.77-.28.9-.05.08.31.32-.45.41l.27.36-.41.08.41.22-.69.22.27.22-.41.22.41.36-.41.37.55.15h-.69s.69.37.69.37l-.69.07.55.37-.55.22.82.07-.82.37c.59-.21.91.38,1.25.36.32-.01,1.17-.14,1.23-.58-.3-.1-1.03.48-1.24.07.21-.06,1.32-.25,1.37-.3.09-.09.08-.31-.2-.28-.42.05-1.08.56-1.32,0,.54-.02,1.59.02,1.65-.73l-.27-.15c.25.03.33-.22.41-.44l-.41-.15c.37.01,1.1-.31.89-.73l-.62.29.55-.88c-.51.4-.98.7-1.65.59l1.06-.41.45-.4-1.37.07,1.24-.51-1.24.07c.19-.55,1.47-.09,1.17-.73l-1.03.14,1.1-.58c-.24.12-1.18-.21-1.24-.15-.04.04.1.95-.41.15.51.07.07-.29.14-.44l1.24.14c-.2-.28-.27-.38-.14-.73-.45-.15-.16.4-.35.45-.08.02-.66.08-.61-.15l.27-.44h1.37s-.55-.3-.55-.3l.41-.15-.14-.44h.55s-.28-.37-.28-.37c.68-.22-.08-.68-.27-.95.73.45.37-.56.41-.58.26-.15.57.28.27-.45l.55.29-.41-.88.82.59-.69-1.17.82.44c.23-.72-1.34-1.5-1.37-1.69-.03-.17.24-.34.24-.43,0-.16-.62-.55-.66-.8l.41-.15ZM26.28,56.83c.06-.27-.08-.41-.19-.61-.08-.16-.85-1.5-1.05-1.3l1.24,1.91ZM49.52,55.38c-.16-.07-.4.13-.4.21,0,.07.75.97.96.95.12-.19-.5-1.13-.56-1.16ZM26.28,57.71c-.17-.76-.74-1.62-1.24-2.2.21.78.75,1.58,1.24,2.2ZM20.37,55.66c-.4.15-.84.02-1.21.1-.26.06-.36-.02-.3.34.49,0,1.22.08,1.51-.44ZM18.31,56.83c.66-.11,1.79-.13,2.38-.32.27-.09.25-.33.23-.56-.77.65-1.98.13-2.61.88ZM59.02,56.83h-4.75c-.28,0-.59.06-.89,0-.11.44.34.31.62.3.39,0,.73-.15,1.09-.16,1.15-.04,2.3.06,3.45,0,.17,0,.51.11.48-.15ZM59.43,57.12l-5.85.15-.2.29,5.85-.15.2-.29ZM32.47,57.27h-2.75l1.03.26,1.72-.26ZM19.54,57.56c-.69,0-1.7,0-2.2.58.59-.06,2.01.21,2.2-.58ZM31.99,57.71c-1.72-.01-3.44,0-5.16,0-.03.26.31.14.48.15,1.67.07,3.35-.03,5.02,0-.1-.41-.27-.14-.34-.15ZM59.44,57.71h-4.88c-.26,0-.9.31-1.31.15.17.5.65.15,1.03.14,1.56-.03,3.15.03,4.67,0,.12,0,.52-.07.49-.28ZM47.88,60.5v2.27s.13.57.27.51l-.14-1.1.27-1.1c.27.55.02,1.32.16,1.82.08.31.38.07.39.09.05.11-.13.36-.14.5,0,.08.76.45.55.82.44-.07.37-.91.62-1.03.43.87.31.11.41.15.17.06.21.4.21.59v-.88s.55.59.55.59l-.07-.44.34-.07c-.08-.23-.53-.2-.55-.22-.46-.5.56.03.41-.36l-.55-.22.41-.15-.55-.51c.62-.25.02-.17,0-.29-.03-.16.34.05.28-.22l-.69-.29,1.1.14-.96-.88.96.22c.03-.33-1.58-.62-1.24-.95.14-.14,1.16.52,1.31.73.23-.18-.25-.61-.43-.71-.32-.19-.84-.13-1.01-.46.77-.17,1.16.49,1.79.73-.23-.66-.92-.85-1.51-1.03h.96c.17-.14-1.3-.79-1.37-.73-.05.04-.14.87-.76.88-.16,0,.04-.36-.21-.3,0,.69-.54.61-.9,1.02l-.07-.58c-.89.48-.2,1.25-.27,2.05l.41-.59ZM20.09,58.15c-.06-.07-1.44.3-1.65.36-.18.05-.66.14-.69.37.53,0,1.81-.03,2.25-.29.15-.09.12-.41.09-.44ZM26.28,60.06c-.16-.69-.63-1.41-1.1-1.91.19.66.67,1.39,1.1,1.91ZM31.92,58.15h-5.09v.15c.33-.16.85.15,1.03.15h4.06v-.29ZM59.57,58.15c-1.96-.09-3.9.06-5.85.15-.17,0-.59-.11-.48.22l6.12-.07.2-.29ZM31.92,58.59c-1.47.24-3.19-.18-4.61,0-.21.02-.42.03-.48.3.76-.13,1.55.15,2.26.15.22,0,.46-.15.7-.15.6-.01,1.36.08,1.93,0,.2-.03.43-.11.2-.29ZM59.57,58.74h-5.02c-.3,0-.99.3-1.45.15v.44s6.12-.15,6.12-.15l.34-.44ZM20.09,58.88c-.64.17-1.15.1-1.76.4-.19.1-.38-.09-.3.33.58-.13,1.89.05,2.06-.73ZM17.89,59.03c-.28.05-1.73-.07-1.79,0-.03.04.02.44,0,.59.13.15,1.64-.23,1.79-.58ZM31.3,59.18c-1.54,0-3.07,0-4.61,0v.29h5.09c.07-.49-.22-.29-.48-.29ZM59.57,59.47l-6.51.14-.64,1.47,7.15-.29c.16-.53-.36-.55-.76-.58-.54-.05-1.03.1-1.49.09-1.35-.03-2.73-.1-4.08-.16,2.11-.14,4.21-.28,6.33-.22v-.44ZM25.69,59.95c-.09-.12-.34-.18-.44-.34-.08.62.64,1.43,1.03,1.91-.1-.44-.34-1.23-.59-1.57ZM31.79,59.91c-.06-.32-.24-.21-.41-.23-.72-.11-1.33.08-2,.08-.77,0-1.63-.26-2.48-.14-.25.03-.22-.05-.2.29h5.09ZM18.17,59.76c-.26,0-1.95-.08-1.93.23,0,.09.13.49.22.5.2.02,1.56-.43,1.71-.73ZM18.99,59.76c-.69.37-1.47.54-2.17.84-.21.09-.37-.08-.3.33.83-.18,1.86-.53,2.48-1.17ZM31.79,60.2h-3.92c-.32,0-.76-.26-1.17,0,.05.3.66.29.89.29h3.65l-.21.3-4.33-.15v.44h3.71c-.08.33-.2.2-.38.2-1.11,0-2.22-.01-3.34-.05l.32.31,2.02.27h-2.34v.73c1.39,0,2.8-.22,4.18-.03.5-.69.83-1.46.91-2.32ZM19.68,65.04l-.34-4.84c-.71.38-1.49.97-2.27,1.03,0,.3.42.06.66.18.1.05.57.78.72.92-.49.32-1.12.1-1.51.73.59.02.77.35.83.95l-1.51.15c.06.29.28.25.48.29.76.15,1.78.11,2.27.88-.68.1-1.05-.45-1.73-.57-.34-.06-.88-.08-1.27-.12-.15-.01-.47-.17-.44.1.71.33,1.41.55,2.2.59.03.26-.31.14-.46.13-.33-.03-.59-.13-.98-.13-.16,0-.52-.1-.48.15.7-.2,1.71.41,2.3.4.28,0,.87-.51,1.28-.4l-.27-.37c.2-.32.27-.13.55-.07ZM15.96,60.35c-.06-.07-.29-.11-.24.18.13.75.41,1.79-.58,1.87.23-.65.43-1.03-.27-1.47.17.79.26,1.41-.41,1.9.44,0,1.01.45,1.41.42.66-.06,1.17-.96,1.89-1,.1-.49-.28-.18-.52-.34-.05-.03-.03-.27-.1-.25-.54.16-.66.93-1.17,1.03.43-.35.23-2.1,0-2.34ZM45.06,60.64c.66,0,1.33,0,1.99,0,.13-.47-.61-.3-.9-.3-.71,0-1.41.12-2.13,0-.02.67.68.29,1.03.29ZM26.14,62.11c-.12-.58-.5-1.27-.96-1.61.05.58.6,1.2.96,1.61ZM39.9,60.5h-2.27s-.4.14-.34.29c.61.07,1.41-.2,1.99-.15.27.02.22-.02.21.3h-2.41c-.31,0-1.42,1.99-.9,2.42.07.06.44-.14.56.14-.31,0-.84.2-.55.51.12.13,1.11-.24,1.37-.14l-1.24.29c-.11.71.23.33.75.29.14-.01.52-.09.49.15l-1.24.22,1.24.37c-.3.1-1.21-.27-1.1.29h1.93l-1.38.21c-.74.11-.97.46-.07.53.54.04.99-.14,1.51-.16.15,0,.52-.09.49.15-.69.12-1.47.07-2.14.14-.21.02-.42.03-.48.3l3.85-.15c-.04-.45-.63-.45-.66-.49-.2-.19-1.11-1.7-1.12-1.93-.01-.21.59-1.51.74-1.7.34-.42,1.78-.78,2.24-.61.69.25.82,1.13,1.21,1.21,1.04.22,2.04-.63,3.54-.11.2.07,1.42.57,1.49.62.14.1.1.65.54.66-.5-1.01-.35-2.41-1.19-3.2l-7.33-.03.27-.44ZM59.57,60.94l-7.02.29c0,.22-.07.79.2.84l6.47-.25c.44-.05.35-.51.34-.88ZM26.11,62.81c.12-.25-.63-1.31-.93-1.43-.28.24.21,1.71.41,1.91.31.29.22-.54.51-.47ZM22.71,61.82c-.06-.07-1.83.7-1.51,1.03.26,0,1.94-.55,1.51-1.03ZM59.57,62.99h-2.13s-.22-.2-.21-.29h2.34c.18-.69-.32-.68-.9-.73-2-.17-3.99.33-5.98.29.49.82,1.24,1.22,1.68,2.1.08.15.09.49.12.52.07.06,1.52.15,1.8.2,1.14.23,2.27.66,3.41.84-.29-.98-.15-1.91-.14-2.93ZM41.79,63.11s.18-.34.11-.42c-.36-.48-2.49-.8-2.55.3.18-.2,1.08-.89,1.1-.15l-.55-.15.14.44c-.85.12-1.6.33-1.08,1.38.37.75,1.08.62,1.51.9.13.09-.01.34,0,.35.12.1.74.09.96.24.14.1-.05.3.06.38.31.2,1.06.34,1.44.43l-.41.22.82.37-.27.29c.61.27,1.14-.11,1.79.15.07-.38-.07-.26-.27-.36-.41-.2-1.29-.45-1.59-.81-.31-.38.23-.19.21-.44-.18,0-1.06-.55-1.09-.61-.06-.09.15-.39.13-.42-.15-.24-2.65-.34-2.96-.87-.24-.4.13-.69.49-.59l-.28.44c.13.11.74-.31.95-.36.43-.11.54.3,1.02-.38.05-.07-.05-.26-.02-.28.06-.05.27.02.35-.04ZM29.17,62.84h-2.06l1.37.15-.69.44c1.09.21.71-.3.83-.42.11-.12.57.15.54-.16ZM15.28,64.16c-.64-.66-1.55-1.28-2.48-1.17.61.72,1.53,1.42,2.48,1.17ZM22.02,62.99l-.76.14.35.3-.27.29c.56-.02.8-.09.69-.73ZM46.19,63.32c-.41-.3-1.77-.26-2.3-.19-.03.21.24.21.38.25.49.13,1.38.29,1.89.34.35.03.12-.34.03-.4ZM20.78,64.6c.11-.11.21-1.37.14-1.47-.12.07-.39.13-.42.25-.04.15-.09,1.59.28,1.22ZM30.69,63.14c-.9.08-1.82-.38-2.2.73.63.16.28-.31.5-.45.4-.24,1.41.36,1.7-.28ZM48.29,64.75c.05-.32-.12-.36-.35-.43-1.36-.42-4-.87-5.46-1.09-.23-.03-.34-.17-.52.13l6.33,1.39ZM14.07,66.34s.11-.26-.02-.34c-.26-.17-.91-.22-1.35-.48-1.25-.75-2.29-2.6-4.03-2.08.4.51,1.22,1.07,1.8,1.38.27.14.61.1.96.3,1.2.69,2.29,1.58,3.43,2.36.75.21,1.46-.91,2.34-.08.36-.48-1.29-.58-1.41-.62-.28-.1-.64-.61-.86-.7-.35-.13-.15.38-.2.44-.05.05-.59-.08-.66-.17ZM8.21,64.37c-.21-.17-.55-.45-.78-.57-.09-.05-.52-.21-.34.07.62.76,1.38,1.37,2.07,2.05.52.51.76,1.3,1.58,1.18.14-.12-2.35-2.57-2.53-2.72ZM43.48,65.04c.04-.81-.93-1.08-1.51-1.17l1.51,1.17ZM48.57,65.04l-5.23-1.17,3.96,1.13c.32-.02,1.05.43,1.26.05ZM43.34,65.63c.19-.23-1.36-1.74-1.79-1.61l1.79,1.61ZM15.28,64.6c-.56.37-2.7-.6-2.89-.44-.24.2.18.33.26.38.31.21.98.54,1.33.64.1.03,1.12.2,1.16.16.03-.03-.18-.54.14-.73ZM51.18,64.9c-.37.02-1.06-.59-1.31-.59-.32,0-.66.49-.21.59.14-.89.59.16,1.18.29.27.06.4.05.34-.29ZM47.47,65.34l-3.44-.88c.24.43.8.6,1.24.59-.05.52-.39.31-.55.58l.82.44-1.51-.51c.47.61,3.01,1.27,3.44.81s-.97-.07-.83-.51l.83-.51ZM21.04,65.02c.04-.07.08-.4-.05-.42-.04.19-1.26.29-1.03.58.16.2.99-.01,1.08-.17ZM21.88,64.9s-1.05.46-1.2.55c-.27.16-.18.14-.17.48.38-.2.77-.38,1.12-.65.08-.06.5-.16.26-.38ZM50.08,65.93c-.05-.06-1.09-.58-1.24-.88.27,1.27-.34,2.61.05,3.84.25.8.55,1.14,1.33.64l-.68-.07.28-.22c0-.38-.59-.43,0-.58l-.41-.44.41-.07-.27-.59c.29.09.51.7.8.55.03-.01.07-.4.44-.26l-.83-1.02,1.38.58-1.93-1.39c.13-.17,1.11.51.69-.07ZM59.71,66.51c-.17-.37-.75-.43-1.1-.52-1.31-.34-2.68-.47-3.99-.8-.05.33.27.49.51.55,1.37.38,3.17.33,4.58.77ZM10.88,65.48l-.83.15c.47,1.13.63.37,1.51.44.09-.64-.8-.1-1.1-.15l.41-.44ZM22.81,65.9c.05-.09.09-.39-.04-.41-.74.34-.66.85-.62,1.61.42-.26.8-.42.69-1.03l-.34.29c-.31-.28.26-.37.31-.46ZM18.72,67.09c-.83-.94-1.88-1.09-3.03-1.17.35.57.98.62,1.47.84.21.1.38.41.54.44.22.04.71-.22,1.02-.11ZM52.83,67.1l.55-.73-.75.29c-.31-.37.4-.33.48-.73-.21-.04-1.24.6-1.25.67-.03.19.2.76.36.79.21-.09.39-.21.61-.29l-.69.88c.36.1,1.12-.51,1.24-.81.15-.38-.43-.12-.55-.07ZM59.43,66.66l-4.68-.73c-.07.44.1.23.33.3,1.29.34,2.85.26,4.15.72l.19-.28ZM14.32,67.83s-.54-.18-.73-.32c-.87-.64-1.66-1.73-2.84-1.15.12.46.67.7.54,1.23-.07.28-1.13.29-1.37.16-.16-.08-.2-.36-.32-.46-.3-.26-1.08-.63-.78-.93-.14-.1-1.45.1-1.65.37l1.37-.07c-.09.44-1.3.35-1.38.44s.32,2.1.14,2.49l6.83-1.45c.22.06.26-.23.19-.31ZM20.92,66.22c-.33.05-1.91.34-1.92.66-.02.5,1.89-.2,1.92-.66ZM22.02,66.22c-1.59.52-3.03,1.66-4.71,1.8l-.38.25c1.29.14,2.45-.59,3.58-1.02.03.03-.62.76-.07.73.35-.42,1.06-.26.9-.88-.21.34-.85.35-.55,0,.1-.12,1.17-.34,1.24-.88ZM41,67.09c-.04-.16-.23-.36-.37-.41-.38-.12-3.44.14-3.96.26-.2.05-.43.01-.49.3l4.81-.15ZM30,66.8h-2.75v.29h2.27c.08,0,.31-.2.48-.15v-.15ZM47.74,67.83c.09-.88-.85-.67-1.31-1.02l.07.58h-1.1s1.17.59,1.17.59l.07-.44,1.1.29ZM30,67.24h-2.2l.48.3,1.73-.3ZM33.78,75.45c2.1-.1,4.22.08,6.33,0l.76.44c-2.49-.54-5.19-.33-7.7,0-.03.25.31.14.48.15,1.36.04,2.74-.21,4.13-.15.7.03,1.4.27,2.12.16.03.26-.31.14-.48.15-1.05.05-2.13.04-3.16-.15l-2.96.3c.35.62,1.19.15,1.71.14,1.23-.03,2.43.09,3.65.15.09.59-.35.15-.48.15h-3.99l-.76.44,1.72-.15,2.13.3h-3.78s-.22.2-.21.29h3.37s.25.25.21.29c-.14.12-.42-.15-.48-.15h-2.34s-.54.14-.48.29h1.65c.06.73-1.1-.38-1.1.59h2.48v.15h-2.96s-.22.2-.21.29c1.17,0,2.35.07,3.51-.15l1.58.3h-3.65s-.43.38-.27.44c3.77-.24,7.5-.19,11.27-.14,1.04.01,2.14.04,3.17,0,.17,0,.51.11.48-.15h-3.3c-.03-.23.36-.21.51-.23.74-.09,1.76.03,2.52.08.06-.45-.1-.24-.35-.29-.37-.07-.96.02-1.17-.44.32.09,1.25.23,1.51.07.13-.08.64-.93.67-1.06.06-.32-.21-1.12-.2-1.56.02-.71.49-1.48.44-2.16-.05-.64-.7-2.7-.95-3.39-.42-1.19-.49-.76-.64-2.26-.07-.73-.42-.57-.42.08-.11.11-.9-.46-1.16-.44-.07,0-.07.25-.19.29-.77.26-1.64.13-2.44.16l1.44-.29c-1.22-.14-2.45.38-3.61-.16-.13-.06-.13-.25-.28-.32-.84-.46-.97-.12-1.69-.11-1.4.02-2.79.08-4.19.15l.22.41c1.5-.18,3.02-.07,4.53-.11.44-.01,1.06-.42,1.3.14-2-.05-3.99.04-5.99.15l-.2.29c2.55.09,5.08-.26,7.64-.15.17,0,.51-.11.48.15l-8.3.29-.23.44c2.63-.29,5.28-.21,7.92-.29.33,0,.63-.15.95-.16.84-.02,1.78-.03,2.62,0,.17,0,.51-.11.48.15-3.95.13-7.92.14-11.87.48l-.38.26c4.11.03,8.2-.47,12.31-.29.17,0,.51-.11.48.15-4.29.09-8.58.21-12.86.44-.95.64.24.3.68.29,2.44-.06,4.87-.25,7.29-.3,1.42-.03,2.84.14,4.25.06l.92.23c-2.18.05-4.36-.06-6.54,0-1.39.03-2.86.06-4.26.15-.62.04-1.9.09-2.41.22-.07.02-.51.24-.34.37,4.04.08,8.71-.74,12.67-.43.22.02.4-.01.46.28-4.45.02-8.94-.08-13.34.59-.03.26.31.14.48.14,1.52.07,3.28-.2,4.81-.3,2.03.2,4.27-.25,6.24-.04.16.02.47-.04.44.19-4.08.05-8.2-.02-12.24.59.08.33.2.2.38.2,1.91-.02,3.84-.3,5.74-.35,1.6-.05,3.68-.13,5.24,0,.24.02.53-.03.61.3-1.69-.37-3.46-.05-5.15,0-2.25.07-4.48,0-6.72.32l-.3.41c3.73-.3,7.63-.71,11.35-.22l-.57.19c-3.69-.28-7.44-.11-11.12.33l.2.29c3.15-.18,6.48-.51,9.64-.3.24.02.57.03.75.23,0,.33-1.85-.07-2.13-.08-2.23-.08-6.39-.04-8.5.48-.17.04-.44.28-.04.26,2.98-.19,5.97-.48,8.95-.15.24.03.45-.03.61.23-1.34.16-2.86-.23-4.2-.23-.39,0-.73.15-1.09.16-1.51.04-2.98.07-4.48.29l.07.29c.16-.14.35-.15.54-.15,2.36-.06,4.96-.32,7.3-.14.31.02,1.14.09.82.44l-3.3-.29c-1.68.22-3.4.17-5.1.28-.24.02-.45-.01-.61.23,2.66.08,5.39-.33,8.04.08.25.04.41-.15.34.29-1.52-.26-3.07-.33-4.61-.3-.29,0-.55.14-.82.15-.47.03-2.46-.08-2.68.15-.46.47.32.15.34.15ZM53.52,67.83c-.28.48-.68.77-1.1,1.1l.69-.07-.69.88c.21-.04.49-.19.69-.29-.05.1-.22.36-.14.44.25.25,1.67-1.13.96-1.32-.08.54-.45.68-.83.88.29-.57.92-.71.69-1.61-.09,0-.18,0-.27,0,.07-.13.07-.4.27-.51-.32-.19-.66.49-.97.73s-.73.21-.95.59c.23.3.21.25.48.07.36-.24.8-.84,1.17-.88ZM58.75,67.54l-3.71.14c.23,2.51-.58,5.27-1.79,7.41l.16,1.81c2.1-.2,4.2.13,6.31.17v-8.95c-.88-.12-1.73-.07-2.61,0l1.65-.58ZM30,67.68h-2.13s-.22.2-.21.29h2.34v-.29ZM28.21,68.12c-.31.04-.66.02-.96.08-.15.03-.45-.01-.41.21.17.13.79-.03.82,0,.07.07-.38.35-.27.58.62.13.76-.3.82-.88ZM20.78,68.27c-.25-.18-1.84.39-1.51.73l1.51-.73ZM22.84,68.42c-.39.08-1.22.58-1.48.83-.14.13-.31.31-.17.48.09.11,1.52-1.13,1.65-1.32ZM27.87,70.18c.78.02,1.56,0,2.34,0,.02,0,.22-.2.21-.29h-2.34l.55-.66c-.27-.22-.85-.01-.96.3-.13.35.33.1.27.36-.7-.06-.93.27-.07.29ZM30.41,69.59c.05-.61-.96-.61-.96-.07,0,.37.8.07.96.07ZM21.06,69.59c-.07-.07-1.6.75-1.75.85-.17.11-.39.25-.45.47.3.08,2.54-.98,2.2-1.32ZM32.75,71.5s-.04-.13.08-.15c.43-.08.84-.02,1.29-.29.18-.34-.28-.29-.27-.36,0-.09.32-.63.28-.66-.02-.01-.26,0-.4-.09-.4-.25-.35-.44-.98-.21l.69.22-.83.07c.26.37-.02.27-.27.51l.27.07c.05.28-.37-.01-.28.36.04.17.32-.05.28.22l-.41.29c.18,0,.37,0,.55,0-.11.07-.18.27-.55.15l.41.29c.05.27-.23.09-.27.15-.04.05.23.36.26.55.02.19-.14.46-.12.48.08.07.72.02.82-.22l-.41-.22.55-.29-.69-.15c.35-.01.83.12.96-.29l-.41-.15.69-.37c-.42,0-.81.09-1.24.07ZM53.38,70.62c.08-.09.58-.7.55-.73-.65.05-1.08.45-1.38,1.02.1.08.68-.22.83-.29-.27.32-.54.58-.83.88.85.02,1.67-.95,1.92-1.76-.43.37-.6.62-1.1.88ZM51.65,71.15c-.48-.46-.56-.31-1.01-.61-.41-.27-.52-.86-1.24-.65l.69.29-.41.15.41.37c-.01.17-.35.01-.42.07-.07.06.51,1.52.59,1.79.11.36.19,1.24.27,1.4.05.09.64.37.72.62l-.48-1.03c.05-.06.69.81.82.3-.46.09-.93-1.6-.82-1.76.23.09,1.1,1.17,1.24.52-.33-.31-.76-.45-1.12-.72-.09-.07-.47-.14-.26-.38.06-.06.94.76,1.24.59-.58-.54.19-.56.14-.66-.1-.12-.25-.17-.36-.28ZM21.04,70.6c.04-.06.08-.41-.05-.42-.69.43-1.68.99-2.45,1.2-.61.16-1.39.05-1.99.23-.24.07-.36-.08-.3.33.86.03,1.83-.2,2.67-.45.3-.09,2.04-.75,2.12-.89ZM18.58,70.76c-.6.1-1.57-.01-1.93.58.55.04,1.11-.06,1.62-.25.22-.08.37.08.3-.33ZM54.21,70.91l-1.42.9-.37.41c.76.29,1.73-.44,1.79-1.32ZM20.23,71.35c-.07-.07-1.17.3-1.37.37-.23.08-.79.15-.69.51.16-.03,2.48-.5,2.06-.88ZM22.02,71.35l-2.06,1.46c.77-.17,1.57-.82,2.06-1.46ZM17.89,72.23c.33-.42-.45-.14-.61-.14-.44.01-.88-.03-1.31,0,0,.25.46.28.62.29.25.02,1.19,0,1.31-.15ZM28.62,73.55h1.93v-.44s-1.24,0-1.24,0l1.24-.15c.04-.44-.3-.44-.62-.45-1.05-.04-.74.54-.78.58-.13.11-.61,0-.52.46ZM9.5,73.25c-.56-.83-2.03-.45-2.65.15-.8.77-.09.74.25,1.17.26.33.45.81.68,1.18.05.07.12.57.34.29.06-.07-.2-.5-.14-.58l.41-.07-.41-.37.69.14-.41-.44.82.29-.41-.59c.11-.16.99.61.83.07-.12-.39-1.23-.23-1.38-.66l1.37.22c-.4-.41-1-.38-1.51-.37.16-.57,1.02.13,1.24-.29l-1.51-.29c.67-.12,1.15-.07,1.79.14ZM14.78,73.45c.11-.15.69-.31.43-.64-1.25.83-2.09,2.1-2.55,3.58-.21.67-.4,1.86.29.67l.2.29.21-.73.34.29.07-.59.41.73v-1.03s.27,1.17.27,1.17c.28-.62-.02-1.13,0-1.76.45.3.22,1.14.28,1.61.51-.36,0-1.15.2-1.61l.34,1.61v-1.61s.28.44.28.44l-.13-1.17.41.88-.13-1.47c.22.06.36.62.4.83.08.45.07.78.01,1.23.71-.57-.17-1.76-.14-2.56l.55.8c0-.34-.05-1.68-.55-1.4-.61.35-1.22,1.31-1.72,1.84-.09-.44.29-1.08.53-1.42ZM18.31,72.82c-.14-.14-1.04.71-1.1.95-.02.09.28.05.29.15,0,.15-.18.37-.16.57,0,.07.44.02.15.67.55.11.13-.7.31-1,.05-.08.33-.09.37-.26.07-.28-.33-.69.15-1.08ZM52.69,73.7c.12-.41-.22-.29-.41-.29l.41-.29c-.4-.75-.76.24-.55.74.19-.01.37-.1.55-.15-.13.44-.65.08-.55.59.45.05,1.08-.19,1.1-.73-.2-.01-.37.1-.55.15ZM20.33,74.18l-2.02-1.07c-.1.28.16.77.12.95s-.32.18-.36.26c-.29.5.42,1.68.24,1.88-.82.04-.94-1.13-1.1-1.76-.92,1.13.21,2.33.56,3.29.21.58.2,1.26.41,1.84.23.06.06-.26.22-.3s.46-.02.55.15c.1.19-.38.55.34.44l-.28.37.42.07-.42.37c.93.7,2.02-1.61,1.24-2.27.04.61.1,1.5-.69,1.61.89-1.21.6-2.66-.41-3.66.77-.06.99,1.48,1.1,1.61.07.09.31.08.27-.22-.1-.83-.98-1.34-1.37-1.98.97.16,1.25,1.23,1.62,2.01.09.18.1.39.3.12-.43-1.39-1.27-2.16-2.34-3.01.56-.04.93.48,1.37.73.24-.28-.87-.82-1.02-1.03-.24-.19.13-.17.23-.11.53.27.87.79,1.34,1.14.22-.26-1.08-1.2-1.24-1.39.34-.34,1.42,1.06,1.51.95,0-.21-.49-.9-.59-.98ZM5.24,73.4c-.85-.07-1.45-.33-2.25.17s-1.46,2.3-1.32,3.27c.02.11.37,1.07.41,1.11.1.1.3.07.27-.21-.06-.53-.72-1.37-.13-1.69l.42,2.05.41-.15-.14.44h.55s-.29.45-.28.65c0,.08.19.08.22.14.21.39.23.9.47.09l.14.44.41-.44.14.44c.45-.46.81.22.69-.73l.41.44c0-.84-.19-.98.69-.88l-.69-.44h.82s-.96-.3-.96-.3c.16-.72,1.18.21,1.24.15-.12-.81-1.11-.62-1.65-.44-.06-.38.05-.27.3-.34.62-.18.78.06,1.35.19-.35-.66-1.19-.39-1.79-.44l.82-.29-.55-.29c.65-.1,1.18.11,1.79.29-.48-.73-1.35-.59-2.06-.59-.03-.19.56-.25.66-.26.27-.01.78.24.85-.03-.77-.3-1.56-.1-2.34,0,.54-.64,1.71-.71,2.48-.73l-1.1-.29.55-.29-.96-.15.82-.29-1.65-.15.96-.44ZM13.49,73.55c-.77-.88-2.56.54-3.29,1.11-2.01,1.57-3.94,3.93-4.27,6.66l.55-.29c.08.13-.17.92.28,1.03l.14-1.03.14.88v-.73s.28.29.28.29l-.13-.96c.58-.31.19,1.3.68,1.54l-.13-2.05.27.73c0-.26,0-.51.04-.76.04-.19.03-.7.23-.7.02.78-.08,1.54.12,2.3.06.25-.1.41.29.34-.33-.91-.46-2.33-.05-3.21l1.02-1.19c.02.36-.66,1.65,0,1.61,0-.31-.02-.62.02-.94.02-.16.05-.69.26-.68.09.44-.09.86-.12,1.26-.01.16-.13.53.12.49l.55-2.64c.26-.03.1.3.08.45-.09.48-.3.93-.21,1.46l.41-1.46.13,1.32.69-2.2c.26-.03.11.3.07.45-.09.41-.43.89-.28,1.31.44-.76.58-1.68,1-2.46.04-.08,1.23-1.33.51-1.21-.62.1-2,1.3-2.68,1.69-.22.12-.38.08-.27-.15.18-.38,1.35-.74,1.64-1.03.19-.19.21-.48.36-.64.35-.39,1.08-.85,1.57-.6ZM27.93,74.13c.25-.02,1.51.12,1.51-.22,0-.38-1.4-.2-1.51.22ZM30.41,74.28c-.26.1-1.3-.1-1.24.44.33-.03,1.29.16,1.24-.44ZM30,74.87c-.46.04-1-.06-1.45,0-.2.03-.43.11-.2.29.5-.09,1.35.26,1.65-.29ZM29.17,75.46c-.9.05-2.3-.49-2.89.44.78-.21,1.66-.05,2.41-.14.21-.02.42-.03.48-.3ZM51.87,75.75c-.49-.02-.97-.07-1.46-.14-.27-.04-.2.03-.19.28.53-.1,1.31.5,1.65-.14ZM28.62,76.04h-3.23s-.22.2-.21.29h2.82c.1,0,.4-.24.62-.15v-.15ZM26.97,76.63h-2.41s-.22.2-.21.29h2.13c.08,0,.31-.2.48-.15v-.15ZM52.01,76.78c-.26-.01-1.44.09-1.53.23s-.12.64-.23.9c-.13.31-.52.8-.56,1.03-.06.43.5.84.12,1.36.99-.14.6-.82.71-1.4.03-.16.5.14-.03-.51l.27-.29c.36-.09.53.41.37.7-.02.04-.19.02-.21.05-.16.35.64.92.94.56.07-.08-.35-.37-.27-.44.28-.27.46.3.48.29.26-.13.05-.43.07-.44.44-.24.48.48.82.59-.23-.5.04-.58.14-1.03-.79.05-.42-.02-.5-.3-.15-.51-.09-.88-.6-.58l.55-.44h-.96s.41-.29.41-.29ZM22.91,77.51c.45.12,1.89,0,2.48,0,.02,0,.4-.14.34-.29-1.02-.07-2.01-.02-3.03,0,0,.09.16.28.21.29ZM59.71,77.36c-.57.06-4.07-.31-4.26-.15-.09.08-.12.19.13.25.81.18,1.91-.04,2.76.05l-.48.44c.36.08.61-.34.86-.41.32-.09.87.24.99-.17ZM16.9,80.26c.69-.66.21-2.11-.77-2.23-1.42-.17-2.14-.53-3.63-.04-.15.05-1.17.49-1.21.55-.02.03.19.38.14.44l-.55-.14c.92,1.17-.11.29-.21.29-.08,0-.28.31-.21.43.02.03.42.06.41.29l-.82-.14.69.73-.96-.29,1.1.73c-.47.05-.86-.05-1.17-.44-.14.74,1.07.58,1.58.59-.05.27-.27.27-.48.3s-.74-.15-.76.14c.72.27,1.24.04,1.92-.14l-.63.43h-1.57c.44.1.85.3,1.31.31s.92-.2,1.23-.16c.26.04.4.3.83.31.25,0,.98-.2,1.2-.31.16-.08.15-.34.33-.41s.47.03.58-.04c.08-.05.06-.39.19-.53.28-.32,1.26-.48,1.45-.66ZM25.32,77.65h-2.48v.29h2.13c.09,0,.46-.24.34-.29ZM2.6,78.26c-.15-.09-.4.13-.58.1-.22-.04-.32-.5-.63-.41.23.33.77,2.26,1.02,2.3s1.12-.34.83-.69c-.32.56-.89.6-1.03-.08-.08-.39.61,0,.41-.66.77.59.07-.52-.02-.57ZM22.84,78.39h2.13s.22-.2.21-.29c-.64,0-1.3-.03-1.93.06-.17.02-.35-.08-.41.23ZM20.6,80.84c.52-.62.26-1.82.32-2.59-.46.21-.11.86-.14,1.23-.05.76-.63,1.51-1.37,1.56-.08.72,1.07-.04,1.2-.19ZM20.64,81.76c-.02-.35.31-.48.44-.78.46-1.01.37-1.67.25-2.74l-.27.07c.31.84.15,2.13-.41,2.79-.19.22-.61.18-.35.52.09.11.3.1.35.14.02.02-.09.42.2.29.53-.23,1.07-2.16,1.03-2.78-.2-.03-.19.26-.23.41-.21.79-.2,1.65-1,2.08ZM33.57,79.56s.05-.31-.07-.29c-.16.04-1.75.73-1.45,1.02.03.03.81-.22.88-.28.15-.12.05-.36.09-.45.01-.03.43.12.54-.01ZM17.75,79.42c-.38-.07-.23.08-.31.32-.36,1.09-.03,1.2-1.2,1.67-.31.12-.61-.07-.8.34l-2.23.89c.4.1,1-.27,1.32-.28.06,0,.05.23.08.24.23.12,1.21-.6,1.5-.76.22-.12.49-.06.75-.22.6-.36.71-1.54.89-2.21ZM39.35,80.15h10.11c.08,0,.26-.3.21-.44-.8-.06-1.6.13-2.4.15-2.32.06-5.23-.28-7.44-.01-.21.02-.43.03-.48.3ZM3.31,80.88c.57.21.81-.8.55-1.02-.05-.05-1.2.65-.89.88l.76-.44-.41.59ZM39.35,80.3c-.49-.03-1.19.15-1.51.58.5.02,1.22-.09,1.51-.58ZM49.53,80.3c-.84,0-1.69.01-2.53.02-2.17.02-4.59-.27-6.76-.02-.23.03-.99.19-.89.59l9.97-.29.2-.29ZM59.43,80.88c-1.22-.22-2.47-.31-3.71-.29l.2.29c.84-.11,1.66.11,2.47.15.22.01.94.11,1.04-.15ZM49.67,80.88c-2.68.05-5.37-.06-8.05,0s-5.54.1-8.11.3c-.13.01-.62.1-.62.22l16.7-.07.08-.44ZM59.57,81.32c-1.56-.05-3.12-.3-4.68-.38-.23-.01-.36-.14-.55.16,1.6.14,3.25.41,4.85.42.18,0,.3.13.38-.2ZM51.18,81.17c-.22-.29-.3.42-.47.31-4.4.17-8.99-.27-13.36-.02-1.28.07-2.58.61-3.98.15l-1.04.3.62.14.82.45c-1.89-.53-4.24-.97-6.19-.74-.21.02-.42.03-.48.3.83.17,1.71.05,2.54.15,1,.12,2.37.59,3.3.58,6.42-.04,12.94-.22,19.38-.38.26,0,1.53.14,1.6.09.22-.18,0-.27-.2-.29-1.77-.24-3.73.03-5.5-.3h-10.8c-.03-.25.31-.13.48-.14,1.14-.05,2.33-.08,3.47-.08,3.77,0,7.62.05,11.39.23.86.04,1.88.25,2.75.3,1.03.06,2.1-.15,3.1.14.06-.41-.07-.27-.34-.29-1.47-.1-2.94-.2-4.41-.29-.28-.02-.4.12-.34-.29l4.6.45,1.45-.15c-2.7-.22-5.4-.54-8.11-.44l1.79.29c-.59-.09-1.44.12-1.99.01-.17-.03-.03-.39-.08-.45ZM31.51,82.93c-.05-.28-.27-.27-.48-.3-1.66-.24-3.34-.33-5.02-.29l.2.29,5.3.29Z"/><path d="M3.17,8.43c-.17.23-.99,1.08-1.17,1.17-.06.03-.23.04-.2-.07.22-.19.38-.43.55-.66.22-.14.59-.31.83-.44Z"/><path d="M51.18,23.39c.27-.08.46.43.69.59-.22.14-.38.37-.69.29-.02-.29.02-.59,0-.88Z"/><path d="M26.15,28.08c-.35-.31-.9-1.82-1.1-2.35.52.42.91,1.69,1.1,2.35Z"/><path d="M9.09,52.14c.01,1.04-.36.58-.86.77-.53.2-1,.45-1.55.55s-.81.03-1.02-.51c.51-.54,1.44.51,1.24-.66.09-.11.71.32.88.3.12-.01.1-.35.3-.43.28-.1.71.02,1.02-.02Z"/><path d="M5.24,66.22c.04.41-.4.53-.69.59-.06.25.2.09.25.16.26.37-.32.54-.44.72-.06.09.03.32-.14.45s-.48.13-.5.15c-.04.04.48.53-.53.64-.48.06-.86-.07-.85-.65.47-.03.81.63,1.24.07-.29-.15-.73-.18-.69-.66l.48.15c.29-.15,0-.53.2-.67.24-.16.69-.03.97-.07-.11-.39-.75-.22-.69-.73l1.37-.15Z"/><path d="M2.86,63.91c.08.08.23.48.17.55l-.82-.15.41.88-.96-.14c-.02.23.19.08.31.33.24.52-.47.44-.65.11-.36-.63.75-2.36,1.55-1.57Z"/><path d="M3.72,56.39l-.69-.29.13,1.03-1.1-.44c.14-1.05,1.54-1.61,1.65-.29Z"/><path d="M13.35,53.46c.02.74-1.69.81-1.79.36-.15-.68,1.51-.29,1.79-.36Z"/><path d="M4.51,51.89c.54.51.33,1.48-.44,1.27-.4-.1.06-.45.06-.65,0-.22-.27-1.25.38-.62Z"/><path d="M7.54,54.95c1.32-.29-.16,1.22-.58,1.15-.5-.09.08-1.04.58-1.15Z"/><path d="M5.51,57.27c.47,1.33-1.08,1.98-.96.29l.55.29.41-.59Z"/><path d="M7.3,60.94c-.41-.49-.99-.09-1.37-.51.65-.63,1.53-.67,1.37.51Z"/><path d="M7.99,59.62c-.47-.13-.83-.1-1.3,0-.25-1.04,1.2-.9,1.3,0Z"/><path d="M10.43,60.9c-.46.49-1.04.24-1.2-.4.39.28.85-.27,1.03-.26.26.02.39.42.17.66Z"/><path d="M8.13,50.38c.28,1.01-1.43,1.3-1.17.29.26-.03.57.06.8,0,.14-.03,0-.44.36-.3Z"/><path d="M9.09,55.66c.38.57-1.92.94-1.1.07.23-.24.97-.27,1.1-.07Z"/><path d="M6.71,61.12c.19.19.2.7-.03.69-.03,0-.2-.26-.42-.3-.26-.04-.59.18-.61.15-.35-.5.54-1.08,1.06-.55Z"/><path d="M11.7,54.48c.24-.02.51.04.75-.01.15-.03,1.06-.46,1.04-.06-.02.28-1.68.91-1.79.07Z"/><path d="M8.4,57.12c-.32-.43,1.2-1.32,1.51-.66-.36.57-1.03.23-1.51.66Z"/><path d="M4.96,60.35c0,.82-.96,1-1.37.37l1.37-.37Z"/><path d="M16.79,69.15c-.08.09-1.9.65-2.17.7-.29.05-.57.05-.86.04-.04-.21.26-.19.41-.22.89-.19,1.73-.27,2.55-.8.12-.02.08.28.07.29Z"/><path d="M10.46,70.62c-.14.37-.65.39-.96.44l.41.44c-1.67.62-.49-1.13.55-.88Z"/><path d="M2.62,54.04c-.22.04-.46-.44-.49-.44-.15,0-.64.26-.74.15-.49-.55,1.5-1.03,1.24.29Z"/><path d="M12.25,55.36c.23-.29.84-.43,1.2-.56.09-.03.48-.31.45.05-.03.41-1.28.82-1.65.51Z"/><path d="M1.94,59.32c-.33-.37.64-.22.84-.5.14-.2.13-.45.12-.67.37,0,.13,1.16,0,1.26-.17.13-.88.02-.97-.09Z"/><path d="M5.1,70.18c-.09,0-.18,0-.27,0-.09-.79.89-.81,1.37-.58l-1.1.58c.32.02.69-.03.96.22-.18.19-1.31.43-1.37.37-.32-.35.32-.41.41-.59Z"/><path d="M10.29,59.72c-.24.27-.73.18-.65-.18.02-.09.66-.71.82-.81,0,.28.02.78-.17.99Z"/><path d="M4.14,59.33c.07-.09.88-.49.96-.07.13.69-1.32.56-.96.07Z"/><path d="M2.9,69.88c.35.43-.77,1.02-1.1.36l1.1-.36Z"/><path d="M12.11,51.55c.02.58-.83.94-1.1.36-.19-.4.97-.22,1.1-.36Z"/><path d="M11.98,61.23c.24.07,1.2-.35,1.24-.3.4.55-1.08.91-1.24.3Z"/><path d="M3.31,69.15c-.03.69-.96.55-1.24.07l1.24-.07Z"/><path d="M2.9,57.71c-.24,0-.5-.21-.74-.16-.16.03,0,.37-.22.3l-.11-.52c.06-.43,1.16-.24,1.07.37Z"/><path d="M2.35,51.84c-.19-.19-1.09.09-1.1-.22,0-.64,1.16-.43,1.1.22Z"/><path d="M5.24,65.34c.33.66-.73.96-.82.51-.07-.32.61-.5.82-.51Z"/><path d="M12.11,48.62c.11.31-.38.47-.55.51-.33.08-.63.1-.97.07-.11-.49.53-.25.86-.32.23-.05.39-.3.65-.26Z"/><path d="M12.53,69.74c.04.44-.81.62-1.1.73,0-.56.68-.72,1.1-.73Z"/><path d="M11.84,71.5c-.17.4-.77.31-1.1.44.07-.71.62-.64,1.1-.44Z"/><path d="M3.72,29.7l.27-.88c-.68-.11-1.16.31-1.65.73-.1-.72.93-1.65,1.51-1.25.14.09.17.44.36.49.16.04.72-.21,1.2-.09.16.04.64.36.65.48.02.43-1.04-.03-1.26,0-.41.06-.67.51-1.08.51Z"/><path d="M7.03,23.1c-.41-.02-.78-.02-1.18.14-.49.19-.7.73-1.16.89.09-1.29,1.43-2,2.34-1.03Z"/><path d="M10.46,26.62c.45.5-.97.17-1.04.17-.24,0-.9.32-1.11.47-.14.1-.72,1-.88.82-.12-1.25,2.59-1.96,3.03-1.46Z"/><path d="M9.78,26.03l-1.55.18-1.06.4c.39-1.16,1.73-1.01,2.61-.58Z"/><path d="M10.6,19.58c.03.27-.29.13-.44.11-.6-.09-1.03-.28-1.69-.26-.72.02-1.63.25-2.33.45l.07-.29c-.98-.27-1.78-.23-2.75,0,.9-1.2,2.29-.1,3.25-.04.32.02.71-.22,1.08-.25.95-.06,1.9.04,2.82.29Z"/><path d="M7.58,29.7c.48.66-1.31.2-1.45.15-.18-.06-.43-.01-.48-.3.32-.22,1.78-.05,1.93.15Z"/><path d="M8.4,23.98c-.69-.03-1.25-.09-1.79.44.07-1,1.34-1.37,1.79-.44Z"/><path d="M6.16,26.95c.08.08.24.48.17.55-.57-.22-1.02-.38-1.65-.29.2-.52,1.15-.57,1.48-.25Z"/><path d="M1.94,33.51c-.01-.6.71-.21.14-.88l.82.38c-.07.5-.58.55-.95.49Z"/><path d="M10.46,27.65l-1.79.58c.39-.75,1.05-.89,1.79-.58Z"/><path d="M11.15,23.54l-1.79.29c.39-.58,1.26-.66,1.79-.29Z"/><path d="M10.88,28.53c-.29.55-1.03.3-1.51.44.32-.64.95-.6,1.51-.44Z"/><path d="M10.19,22.95c-.29-.17-1.46.2-1.51.15-.33-.33,1.41-1,1.51-.15Z"/><path d="M48.71,37.32c.15.09.47-.16.61-.15.09,0,.07.24.1.27.07.05.24-.15.37-.1.03.01.03.22.12.27.63.35.95.56,1.69.3v.44s.69-.15.69-.15l-.27.29c.33-.15.45.28.48.28.1,0,.26-.18.35-.13.02,0-.11.22-.06.3.11.17.48.04.19.43l.42.07c-.08.14-.3.15-.38.26-.09.14.08.45-.17.4-.07-.7-.78-.14-.42-.88l-.41.15-.28-.29.14-.29-.69.14c.39-.93-.65-.41-1.02-.43-.09,0-.16-.43-.49-.54-.26-.08-.52.08-.83.03-.48-.07-.78-.44-1.23-.53l1.03-.58c.25.11.05.43.07.44Z"/><path d="M38.53,36.44l-.55.22.27.22c-.11.04-.52.12-.55.15-.25.28.57.33.27.58-.05.04-.33,0-.42-.06-.52-.41.45-2.1.97-1.11Z"/><path d="M38.78,34.41c.06.04.2.68.43.78,0,.22-.67.17-.82.15-.38-.3.27-.26.27-.44,0-.25-.7-.06-.55-.51.19.03.52-.07.67.02Z"/><path d="M44.85,36.3v.88s-.69-.29-.69-.29l-.14.73c-.2-.71.05-1.37.82-1.32Z"/><path d="M54.44,39.43c.08.03.4.41.17.54l.41.29c-.72.27-.46.09-.61-.25-.02-.03-.15-.03-.17-.07-.05-.11.38-.48-.45-.12l.08-.44c.2-.01.38-.02.57.05Z"/><path d="M41,36c-.37-.35-.78-.35-1.24-.37.35-.52,1.33-.4,1.24.37Z"/><path d="M34.26,61.37c-.09.05-.29-.01-.41,0-.08.2.57.14.27.44-.05.05-.34-.21-.41-.15l.27.44c-.63-.25-.38-.13-.28.44-.57-.52-.86,1.33-1.1-.15l.41.15c-.29-.6-.51-.89.28-.59l-.41-.29.41-.15c.05-.27-.23-.09-.27-.15-.04-.05.17-.29.21-.29.07,0,.24.4.48.29-.58-.79-.14-.46.18-.72.11-.09.13-.27.25-.36.14-.11.38-.07.4-.09.06-.05-.49-.66.27-.29-.19-.32-.48-.55-.07-.88.61.24.4.56.52,1.06.04.16.27.32.24.47-.09.47-.86-.02-1.1.14-.34.22-.11.65-.14.66Z"/><path d="M45.54,61.38v.29h-2.27c-.13,0-.29-.11-.48,0v-.29s2.75,0,2.75,0Z"/><path d="M8.54,37.91c.04-.25.27-.26.44-.33,1.25-.51,2.83-.6,4.13-.36.15.03.64.18.65.33.02.34-.38.08-.47.06-.77-.16-1.55-.41-2.36-.29-.42.06-.55.35-.85.42-.45.11-1.06,0-1.55.17Z"/><path d="M15.32,78.93c.33.2.69.25,1.05.57.53.46-.66-.08-.74-.09-.35-.05-.72,0-1.04.16l.55-.66c-.65-.74-1.2-.13-1.73-.07-.27.03-.11-.31-.39-.31-.38,0-.7.37-1.04.23.23-.27.63-.4.96-.45.58-.09,1.63-.07,2.13.25.14.09.18.32.26.37Z"/><path d="M14.59,79.71c-.08.37-.62.33-.76.58-.12.22.05.61-.2.59,0-.2-.21-1.1-.3-1.15-.19-.13-.77.17-.81-.17.44.18.48-.4.63-.44.25-.07.99.81,1.44.58Z"/><path d="M8.67,45.24c-.27-.06-.23-.26-.25-.47-.06-.52.04-1.32-.02-1.87.21.07.26.75.27.95.04.46-.02.93,0,1.39Z"/><path d="M40.86,50.97l-.41.22.82.66-.55.15c.34.09.91.24,1.1.59-1.26.27-1.59-.99-1.79-2.05l.82.44Z"/><path d="M42.38,53.02c-.22.49-1.23.34-1.24-.29l1.24.29Z"/><path d="M13.77,44.88c-.02.19-.25.51-.14.81h-.14s0-3.23,0-3.23c.09-.01.28.19.28.22,0,.69.06,1.53,0,2.2Z"/><path d="M14.32,45.68c-.43.13-.29-.51-.28-.81,0-.8.2-1.63,0-2.41.04-.05.27.19.27.22v3.01Z"/><path d="M12.53,45.83v-3.23l.27,1.25c-.09.58.26,1.59-.27,1.98Z"/><path d="M14.87,42.31v3.23l-.27-.07c.26-.69,0-1.61,0-2.34,0-.3-.14-.95.28-.81Z"/><path d="M12.25,45.83l-.27-.07c.4-1.02-.15-2.1,0-3.16.09-.01.27.19.27.22v3.01Z"/><path d="M11.57,42.6l.28,2.27v.96c-.39.16-.28-.52-.28-.81v-2.42Z"/><path d="M13.22,43.04v2.64c-.54.1-.16-.53-.16-.83,0-.46-.14-.97-.12-1.44.01-.3-.1-.43.28-.37Z"/><path d="M44.72,47.74c.04.27-.25.08-.38.17-.23.16.3,1.09-.72.2.8-.32-.36-.32-.42-.37-.02-.02.12-.43,0-.58.65-.03.75.82,1.51.59Z"/><path d="M19.82,78.97c-.51.1-.12-.33-.14-.65-.05-.6-.47-.89-.68-1.4.9.22.87,1.25.82,2.05Z"/><rect x="19.54" y="42.16" width=".14" height="2.93"/></g></svg>