<?xml version="1.0" encoding="UTF-8" standalone="no"?>
<svg
   xmlns:dc="http://purl.org/dc/elements/1.1/"
   xmlns:cc="http://creativecommons.org/ns#"
   xmlns:rdf="http://www.w3.org/1999/02/22-rdf-syntax-ns#"
   xmlns:svg="http://www.w3.org/2000/svg"
   xmlns="http://www.w3.org/2000/svg"
   xmlns:sodipodi="http://sodipodi.sourceforge.net/DTD/sodipodi-0.dtd"
   xmlns:inkscape="http://www.inkscape.org/namespaces/inkscape"
   width="161.89348mm"
   height="70.365135mm"
   viewBox="0 0 161.89348 70.365135"
   version="1.1"
   id="svg8"
   inkscape:version="1.0.2 (e86c870879, 2021-01-15, custom)"
   sodipodi:docname="Roycroft “Message to Garcia” knot tailpiece.svg">
  <defs
     id="defs2" />
  <sodipodi:namedview
     id="base"
     pagecolor="#ffffff"
     bordercolor="#666666"
     borderopacity="1.0"
     inkscape:pageopacity="0.0"
     inkscape:pageshadow="2"
     inkscape:zoom="1.979899"
     inkscape:cx="327.63471"
     inkscape:cy="80.012499"
     inkscape:document-units="mm"
     inkscape:current-layer="layer1"
     inkscape:document-rotation="0"
     showgrid="false"
     inkscape:window-width="1920"
     inkscape:window-height="1057"
     inkscape:window-x="-8"
     inkscape:window-y="-8"
     inkscape:window-maximized="1" />
  <metadata
     id="metadata5">
    <rdf:RDF>
      <cc:Work
         rdf:about="">
        <dc:format>image/svg+xml</dc:format>
        <dc:type
           rdf:resource="http://purl.org/dc/dcmitype/StillImage" />
        <dc:title></dc:title>
      </cc:Work>
    </rdf:RDF>
  </metadata>
  <g
     inkscape:label="Layer 1"
     inkscape:groupmode="layer"
     id="layer1"
     transform="translate(-23.358368,-101.06806)">
    <path
       style="fill:#000000;stroke-width:0.264583"
       d="m 90.99777,171.25858 c -1.379847,-0.45459 -1.54128,-0.6703 -1.727097,-2.30772 -0.209378,-1.84504 -0.463936,-2.28226 -1.328804,-2.28226 -0.721759,0 -1.706599,-1.14275 -1.706599,-1.98024 0,-0.32228 -0.355021,-1.10989 -0.788935,-1.75025 -0.895339,-1.32133 -0.946322,-1.60853 -0.431427,-2.43038 0.201928,-0.3223 0.447075,-1.33995 0.544772,-2.26145 0.181245,-1.70951 0.591489,-2.95476 0.973436,-2.95476 0.1171,0 0.619721,-0.35719 1.116939,-0.79375 1.171549,-1.02863 2.536677,-1.07797 3.66055,-0.13229 0.432353,0.3638 0.874522,0.66146 0.982596,0.66146 0.108075,0 0.843079,-0.48607 1.633345,-1.08014 0.790268,-0.59408 1.913099,-1.32232 2.495182,-1.61833 1.294768,-0.65842 1.984375,-1.244 1.984375,-1.68503 0,-0.35286 -3.236804,-1.70192 -4.083407,-1.70192 -0.275172,0 -1.006017,-0.29636 -1.624105,-0.65859 -1.086811,-0.63691 -2.62599,-1.13823 -5.669571,-1.84663 -0.800365,-0.18629 -1.803162,-0.47759 -2.22844,-0.64733 -0.930593,-0.37144 -1.475727,-0.20907 -1.475727,0.43954 0,1.19002 -2.191411,2.71301 -3.903705,2.71301 -0.376661,0 -0.898136,0.19304 -1.158835,0.42896 -0.680326,0.61569 -1.166731,0.30854 -1.620547,-1.02333 -0.335719,-0.98529 -0.342069,-1.26344 -0.04124,-1.80647 0.620083,-1.11933 0.448308,-1.73645 -0.75864,-2.72545 -2.380707,-1.95081 -2.880966,-1.85286 -6.01078,1.17693 -3.909809,3.78486 -3.222268,3.39226 -7.610618,4.34581 -1.707753,0.37107 -3.31175,0.79086 -3.564437,0.93286 -0.912048,0.51254 -2.163572,0.27832 -3.56856,-0.66785 -0.756301,-0.50932 -1.489004,-0.92604 -1.62823,-0.92604 -0.139227,0 -0.433377,-0.50602 -0.653667,-1.12448 -0.220292,-0.61847 -0.602583,-1.68763 -0.84954,-2.37591 -0.407548,-1.13587 -0.412929,-1.39467 -0.05827,-2.80259 0.487177,-1.93401 2.189028,-4.26114 3.811601,-5.21203 1.479145,-0.86684 3.009225,-2.19785 3.009225,-2.61772 0,-0.17577 0.246351,-0.584 0.547447,-0.90719 0.726879,-0.78021 2.048623,-0.5545 3.728206,0.63665 1.009748,0.71611 1.5215,0.88871 2.826928,0.9534 0.876691,0.0435 1.681422,-0.008 1.788292,-0.11531 0.106871,-0.10687 0.40309,-0.005 0.658265,0.22556 0.569211,0.51513 2.621695,0.84102 2.621695,0.41627 0,-0.16117 -0.23768,-0.68286 -0.528177,-1.15932 -0.603348,-0.98958 -0.664115,-1.73801 -0.220212,-2.71227 0.40056,-0.87913 1.210931,-1.06593 2.827194,-0.6517 1.658242,0.425 3.953783,0.0115 5.364882,-0.9664 1.424541,-0.98721 1.44933,-1.32519 0.155374,-2.11844 -0.614222,-0.37654 -1.629854,-1.04316 -2.256962,-1.48138 -0.829932,-0.57995 -1.333905,-0.75789 -1.852083,-0.6539 -0.85412,0.1714 -6.926612,2.3382 -7.384124,2.63483 -0.193641,0.12554 -0.262221,0.50705 -0.172127,0.95752 0.160506,0.80254 -0.335339,1.45231 -1.641854,2.15154 -0.611158,0.32708 -0.811646,0.28295 -2.211914,-0.48685 -1.86341,-1.02442 -2.70547,-1.05288 -6.102913,-0.20631 -2.388561,0.59518 -4.62162,1.57325 -5.611736,2.4579 -0.539279,0.48184 -1.573244,0.29097 -2.539003,-0.46869 -0.358531,-0.28202 -0.872913,-0.51277 -1.143071,-0.51277 -0.270156,0 -1.037127,-0.41671 -1.704374,-0.92604 -0.667251,-0.50932 -1.384332,-0.92604 -1.593517,-0.92604 -0.209185,0 -0.963478,-0.62105 -1.67621,-1.3801 -1.180819,-1.25758 -1.350798,-1.35302 -1.914501,-1.07497 -0.340246,0.16783 -0.916286,0.38681 -1.280088,0.48663 -0.7218,0.19804 -3.652594,2.19473 -4.213491,2.87057 -0.192071,0.23144 -0.681686,0.42079 -1.088035,0.42079 -0.752355,0 -4.946308,2.60811 -5.361101,3.33393 -0.116371,0.20363 -0.503324,0.37023 -0.859895,0.37023 -0.366686,0 -0.648312,0.15459 -0.648312,0.35587 0,0.48791 -0.865789,1.23163 -1.433767,1.23163 -0.256333,0 -0.931083,-0.32742 -1.499445,-0.7276 -1.001727,-0.70531 -1.028329,-0.76408 -0.868351,-1.91823 0.201166,-1.45129 0.387373,-1.82186 1.854577,-3.6908 0.683998,-0.87128 1.152971,-1.74657 1.15307,-2.15208 1.01e-4,-0.415 0.31547,-0.98666 0.802795,-1.45521 0.441446,-0.42444 1.028057,-1.19638 1.303579,-1.71544 0.275523,-0.51906 0.688246,-1.09919 0.917163,-1.28917 0.228917,-0.18998 0.416213,-0.66759 0.416213,-1.06134 0,-0.64342 0.135992,-0.7473 1.343101,-1.02593 1.673355,-0.38626 4.023968,-0.39634 5.36845,-0.023 1.329468,0.36914 2.397315,0.12342 2.157753,-0.49652 -0.450714,-1.16636 -0.617426,-2.93072 -0.369176,-3.90706 0.145831,-0.57354 0.377325,-1.57859 0.514432,-2.23343 0.137107,-0.65484 0.485849,-1.48828 0.774983,-1.85208 0.289134,-0.3638 0.71841,-1.01865 0.953948,-1.45521 0.235537,-0.43656 0.800499,-1.1859 1.255469,-1.66519 0.690099,-0.72699 0.761939,-0.9127 0.433398,-1.12042 -0.216599,-0.13695 -0.767078,-0.25082 -1.223283,-0.25305 -1.086665,-0.005 -1.661363,-0.88194 -1.959107,-2.98838 -0.321937,-2.2776 0.124232,-3.83148 1.254958,-4.37069 0.804188,-0.38349 0.943976,-0.36681 2.515479,0.30024 0.915183,0.38847 1.848517,0.70596 2.074074,0.70554 0.225557,-4.2e-4 0.523213,0.10733 0.661458,0.23943 0.138245,0.13211 0.846667,0.30119 1.574271,0.37574 6.567339,0.67289 7.634917,0.93748 12.038542,2.98362 2.440196,1.13383 3.003412,1.29451 4.630208,1.32093 1.018646,0.0165 2.22967,0.18893 2.691164,0.38308 0.774346,0.32576 0.968272,0.28942 2.513542,-0.47101 2.06488,-1.01613 5.912683,-2.71588 6.148067,-2.71588 0.279956,0 3.774618,-2.35552 4.130054,-2.78379 0.557474,-0.67172 1.285388,-0.43476 2.473449,0.80516 l 1.146331,1.19638 1.36892,-0.29358 c 3.000878,-0.64357 10.189816,0.0755 15.114931,1.51181 3.042787,0.88739 4.365597,0.9357 5.429837,0.19832 0.43333,-0.30024 1.9785,-0.94337 3.43371,-1.42919 2.31849,-0.77403 3.16958,-0.91365 6.87916,-1.12858 6.06014,-0.35111 7.49174,-0.34792 7.85713,0.0175 0.17517,0.17517 0.48309,0.3185 0.68426,0.3185 0.20116,0 1.17957,0.35719 2.17424,0.79375 2.13789,0.93832 2.91567,0.98968 3.59639,0.23749 1.04719,-1.15713 2.72104,-1.61508 3.79752,-1.03896 0.26398,0.14127 0.6653,0.72009 0.89183,1.28625 0.55993,1.3994 1.76837,2.54125 4.59717,4.34386 2.85224,1.81755 3.46165,1.88552 5.33727,0.59532 0.74043,-0.50933 1.44414,-0.92605 1.5638,-0.92605 0.11966,0 0.90456,-0.65484 1.7442,-1.4552 0.83965,-0.80037 1.70451,-1.45521 1.92191,-1.45521 0.2174,0 1.00153,0.19829 1.74251,0.44066 1.13218,0.37031 1.52023,0.38917 2.43096,0.11811 0.59605,-0.1774 1.73858,-0.49119 2.53894,-0.69731 3.52956,-0.90898 4.99689,-1.35903 5.33062,-1.635 0.19685,-0.16278 0.8937,-0.50541 1.54855,-0.7614 0.65484,-0.25598 1.63745,-0.86191 2.18357,-1.34649 1.45838,-1.29406 1.94717,-1.18021 2.74874,0.64028 0.36842,0.83675 0.95718,1.90037 1.30836,2.3636 0.90365,1.192 0.80569,1.72958 -0.59154,3.2464 -1.06848,1.15994 -1.36386,1.33531 -2.24896,1.33531 -1.17521,0 -1.20689,0.0853 -0.47649,1.28337 1.61632,2.65115 2.28015,6.0992 1.81595,9.43226 -0.26963,1.93593 -0.11427,2.128 1.91568,2.36823 1.42285,0.16839 2.30808,-0.13663 1.40371,-0.48367 -0.36095,-0.13851 -0.36182,-0.23802 -0.008,-0.92205 0.78473,-1.51751 1.68963,-2.31512 3.21264,-2.83175 1.04327,-0.35389 1.71577,-0.78238 2.17767,-1.3875 0.9683,-1.26855 1.87037,-1.63805 3.99892,-1.63805 1.71668,0 1.92954,0.0645 2.8354,0.85989 1.33984,1.17639 1.96917,2.71366 2.00989,4.90963 0.037,1.99484 -0.4801,3.23551 -1.55208,3.72393 -0.71438,0.3255 -1.01534,1.27747 -0.78477,2.48233 0.52387,2.73747 0.50997,2.96309 -0.23735,3.85122 -0.91647,1.08917 -1.62066,1.46037 -2.69382,1.42003 -0.47138,-0.0177 -0.92829,0.083 -1.01535,0.22392 -0.28828,0.46643 -1.85559,0.26593 -3.21444,-0.41121 -1.62425,-0.8094 -2.20686,-1.41732 -2.45624,-2.56297 -0.1219,-0.55998 -0.32322,-0.83823 -0.56411,-0.77966 -0.76495,0.18597 -3.37217,0.0453 -4.06879,-0.21958 -0.3963,-0.15067 -1.60145,-0.50468 -2.6781,-0.78668 l -1.95754,-0.51273 -3.25419,1.69856 c -2.06404,1.07736 -3.47086,1.99163 -3.84664,2.4999 -0.5186,0.70145 -0.74812,0.79916 -1.8413,0.7839 -0.68687,-0.01 -2.32041,-0.18926 -3.6301,-0.39926 -5.71822,-0.91693 -9.60637,-1.97141 -14.55208,-3.94658 -5.00292,-1.99803 -5.13532,-2.0357 -6.07009,-1.7272 -1.08429,0.35785 -2.26429,1.23875 -2.26429,1.69036 0,0.43601 1.73549,2.05246 3.04259,2.83391 0.73178,0.43749 1.46316,0.6338 2.37092,0.6364 1.13723,0.003 1.36448,0.096 1.70009,0.69361 0.3516,0.62612 0.33502,0.7957 -0.1794,1.83545 -0.95306,1.92631 -0.73058,1.96506 4.31059,0.75077 0.58209,-0.1402 1.61734,-0.28523 2.30056,-0.32226 1.32484,-0.0718 2.21789,-0.6507 2.61805,-1.69704 0.12839,-0.33571 0.45243,-0.59531 0.74309,-0.59531 0.66131,0 2.04858,1.16562 2.55669,2.14818 0.31363,0.60651 0.5727,0.76224 1.26805,0.76224 1.1183,0 2.9323,1.19309 4.61757,3.03705 1.07561,1.17689 1.36667,1.72458 1.74608,3.28562 0.39631,1.63056 0.40743,1.96799 0.0858,2.60396 -0.20323,0.40186 -0.54192,1.08785 -0.75263,1.52441 -0.41892,0.86794 -2.61912,2.23257 -3.61603,2.24278 -0.33199,0.003 -0.67126,0.18245 -0.75393,0.39788 -0.21259,0.55401 -1.77843,0.92801 -3.89248,0.92974 -3.56278,0.003 -6.94986,-1.71074 -11.37147,-5.75321 -0.9948,-0.90951 -1.94818,-1.64874 -2.11862,-1.64274 -0.17043,0.006 -0.84566,0.2951 -1.50051,0.64245 -0.65484,0.34735 -1.51318,0.76911 -1.90742,0.93725 -0.39423,0.16814 -0.78728,0.52778 -0.87342,0.79922 -0.0862,0.27144 -0.37061,0.56143 -0.63212,0.64443 -0.61137,0.19404 -1.08495,1.24104 -1.08495,2.3986 0,0.79758 -0.1197,0.96005 -0.96866,1.31477 -0.53276,0.2226 -1.19543,0.33276 -1.47259,0.24479 -0.89989,-0.28562 -2.28131,-1.70408 -2.6,-2.66972 -0.29295,-0.88765 -0.36446,-0.93385 -1.22843,-0.79364 -0.50456,0.0819 -1.41365,0.38243 -2.02021,0.6679 -0.60655,0.28547 -1.8172,0.81382 -2.69032,1.17411 -2.02463,0.83545 -5.40564,2.36442 -6.06015,2.74053 -0.58783,0.33779 -0.41669,1.08424 0.29946,1.30616 0.9706,0.30077 4.19255,2.06307 4.66761,2.55302 0.50164,0.51737 0.70231,0.50906 2.19374,-0.0909 2.02954,-0.81634 4.49528,1.23805 4.70146,3.91714 0.0537,0.69771 0.2287,1.60373 0.3889,2.01338 0.4214,1.07759 0.35759,2.87739 -0.13717,3.86916 -0.31289,0.6272 -0.37526,1.15549 -0.23127,1.95887 0.33078,1.84553 0.24703,2.80198 -0.31128,3.55507 -0.70655,0.95303 -1.92896,1.34836 -4.22542,1.36652 -1.83134,0.0145 -1.93838,-0.0213 -3.49938,-1.17047 -1.70701,-1.25663 -2.05477,-1.91496 -1.8096,-3.42573 0.11916,-0.73429 0.0258,-0.9645 -0.56943,-1.40459 -1.59547,-1.17958 -1.96568,-5.17327 -0.59769,-6.44775 0.308,-0.28695 0.56001,-0.67986 0.56001,-0.87314 0,-0.80148 -5.31932,-3.6344 -6.92313,-3.68705 -0.5506,-0.0181 -1.17979,0.1508 -1.45521,0.39058 -0.26686,0.23233 -0.82196,0.50256 -1.23355,0.6005 -0.65669,0.15627 -1.78145,0.9089 -4.146447,2.7746 -0.491421,0.38768 -0.593444,0.6185 -0.396875,0.89791 1.71273,2.43457 1.851756,2.71647 1.845345,3.74179 -0.0052,0.83768 -0.23299,1.37224 -1.02276,2.40057 -0.558814,0.72761 -1.18086,1.41813 -1.382327,1.5345 -0.201464,0.11637 -0.366299,0.49993 -0.366299,0.85236 0,0.35242 -0.277977,1.26923 -0.617726,2.03737 -0.970221,2.19355 -3.026568,3.30918 -4.938524,2.67929 z m 2.544003,-2.65731 c 0.492569,-0.53776 0.909315,-1.1033 0.9261,-1.25677 0.01677,-0.15346 0.05818,-0.39808 0.09199,-0.54361 0.03381,-0.14552 0.07961,-0.46093 0.101772,-0.70092 0.02217,-0.23999 0.754673,-1.22463 1.627798,-2.18809 1.691415,-1.8664 2.010566,-2.91356 1.218243,-3.99713 -0.354566,-0.4849 -0.40177,-0.47018 -1.1864,0.36976 -0.983149,1.05247 -1.459897,0.97099 -1.566222,-0.26768 -0.119219,-1.38885 1.240859,-3.20476 3.783338,-5.05133 1.164166,-0.84553 2.503618,-1.70731 2.976568,-1.91507 0.47294,-0.20776 0.85989,-0.55822 0.85989,-0.77881 0,-0.46496 -0.78952,-0.94885 -1.54817,-0.94885 -1.666925,0 -5.492961,2.62532 -7.3944,5.07382 -0.65808,0.84742 -1.287963,1.54076 -1.399736,1.54076 -0.466333,0 -1.034777,-0.88557 -1.034777,-1.61207 0,-1.95002 -2.792855,-1.32939 -3.361034,0.7469 -0.15013,0.5486 -0.285255,2.26577 -0.300284,3.81592 -0.03073,3.1694 0.242573,3.82315 1.866413,4.46459 1.717546,0.67847 2.498339,1.82956 1.749166,2.57874 -0.23532,0.23532 -0.236691,0.47193 -0.0057,0.97895 0.461182,1.01219 1.49829,0.88868 2.595414,-0.30911 z m 26.493247,-0.28004 c 0.67285,-0.44087 1.01117,-1.41144 0.73725,-2.11505 -0.16541,-0.42492 -0.21941,-0.41592 -0.64687,0.10776 -0.25652,0.31426 -0.75369,0.61191 -1.10483,0.66146 -0.54888,0.0774 -0.65001,-0.0299 -0.72101,-0.76541 -0.0596,-0.61735 0.0891,-1.02718 0.53422,-1.47228 1.3748,-1.37481 2.32649,-2.8065 2.32649,-3.49991 0,-0.39844 -0.23161,-1.0992 -0.51469,-1.55723 -0.35228,-0.57 -0.43705,-0.95556 -0.26864,-1.22186 0.13534,-0.21398 0.24788,-0.83281 0.25011,-1.37515 0.004,-1.06372 -0.59497,-1.66737 -1.8235,-1.8366 -0.48094,-0.0662 -0.74504,0.10667 -1.07833,0.70602 -0.6098,1.09661 -1.33539,1.11964 -1.99437,0.0633 -0.29404,-0.47136 -1.30608,-1.36832 -2.24896,-1.99326 -2.07548,-1.37561 -8.99439,-4.80089 -11.37162,-5.62964 -2.258166,-0.78724 -2.462671,-0.96428 -2.296536,-1.98805 0.186366,-1.14842 -0.200575,-1.43255 -1.950873,-1.43255 -0.962362,0 -2.146459,-0.24412 -3.320521,-0.68457 -1.003628,-0.37652 -2.241497,-0.80157 -2.75082,-0.94455 -2.920551,-0.81989 -3.565102,-1.12873 -3.288763,-1.57586 0.07975,-0.12903 0.483589,-0.2346 0.897432,-0.2346 0.784138,0 5.089742,-1.3701 6.31575,-2.00976 0.388183,-0.20253 0.907121,-0.36897 1.153194,-0.36986 0.246073,-8e-4 0.520991,-0.1207 0.610928,-0.26622 0.08994,-0.14552 0.463611,-0.26458 0.830387,-0.26458 0.603316,0 0.650253,0.0756 0.49253,0.79375 -0.164608,0.74945 -0.128318,0.79375 0.650306,0.79375 1.062996,0 3.089896,-1.99598 3.330776,-3.27997 0.34603,-1.84449 -0.77698,-3.86378 -2.1488,-3.86378 -0.23941,0 -1.106802,0.3473 -1.927537,0.77177 -0.820735,0.42448 -1.929204,0.90682 -2.463268,1.07187 -1.14753,0.35465 -1.614393,0.8362 -1.386483,1.43012 0.18067,0.47082 1.301781,0.58971 1.563756,0.16582 0.259882,-0.42049 1.763649,-0.3069 2.294271,0.1733 0.493548,0.44666 0.675531,1.67879 0.247954,1.67879 -0.129746,0 -0.310607,-0.29766 -0.401915,-0.66146 -0.135705,-0.54069 -0.327655,-0.66146 -1.051335,-0.66146 -0.486926,0 -1.169268,0.22037 -1.516314,0.48972 -1.049131,0.81424 -1.701731,1.08168 -4.263782,1.74736 -2.461371,0.63952 -3.596457,0.81574 -6.843273,1.06241 -1.687811,0.12823 -2.402337,0.004 -6.192689,-1.07689 -2.687609,-0.7664 -2.821229,-0.75753 -3.924597,0.26056 -0.557797,0.51468 -0.936672,1.0612 -0.841944,1.21447 0.09473,0.15328 0.65345,0.52418 1.2416,0.82423 1.409062,0.71885 2.802401,2.13662 3.013554,3.06641 0.567944,2.50084 0.437793,2.3379 1.82721,2.28764 1.561049,-0.0565 2.279348,-0.62293 1.787858,-1.40993 -0.45172,-0.72332 -0.406818,-1.57224 0.09331,-1.76416 0.230378,-0.0884 1.391238,0.10758 2.579688,0.43552 1.18845,0.32795 2.577536,0.69461 3.086859,0.81482 1.134494,0.26774 3.731612,1.19096 5.159375,1.83405 1.563683,0.7043 8.731832,3.54404 10.715632,4.24512 0.94588,0.33427 2.19604,0.87713 2.77812,1.20636 0.58208,0.32922 1.59412,0.80749 2.24896,1.06283 1.25442,0.48912 4.45708,2.55742 5.59951,3.61618 0.4099,0.37988 0.80795,1.18033 1.01392,2.0389 0.30752,1.28189 0.29532,1.44549 -0.13101,1.75723 -0.78796,0.57617 -1.45534,0.007 -1.45534,-1.24086 0,-1.24224 -0.54649,-1.61108 -1.33277,-0.89951 -0.36034,0.3261 -0.51931,0.81308 -0.51931,1.59078 0,0.92287 0.1897,1.34785 1.07417,2.40639 1.29181,1.54606 1.82145,2.69891 1.65058,3.59276 -0.25705,1.34468 2.43886,3.0256 4.28283,2.67038 0.43443,-0.0837 1.0609,-0.32976 1.39217,-0.54681 z m -8.92892,-19.96387 c 7.69897,-3.68701 10.82656,-4.97209 12.10095,-4.97209 0.91383,0 1.23724,0.66699 0.46676,0.96265 -0.56572,0.21709 -0.49049,1.21833 0.1426,1.89788 0.82044,0.88063 1.23498,0.70929 1.95973,-0.81001 0.43272,-0.90711 1.00916,-1.61353 1.6614,-2.036 0.54932,-0.35582 1.2369,-0.84199 1.52794,-1.08037 0.29104,-0.23839 1.10352,-0.64508 1.8055,-0.90377 1.47703,-0.5443 1.72711,-0.95438 1.13401,-1.85957 -0.77415,-1.1815 -1.15795,-1.21674 -4.27475,-0.39251 -2.02118,0.53449 -3.53856,0.76816 -5.01476,0.77225 -3.68967,0.0102 -5.15157,-0.33242 -10.35937,-2.42806 -1.50014,-0.60367 -2.20834,-0.50567 -2.20834,0.3056 0,0.38439 0.36635,0.68772 1.3327,1.10343 1.30903,0.56313 1.66861,1.23873 0.57526,1.08084 -0.30601,-0.0442 -0.92749,0.11155 -1.38106,0.3461 -0.45357,0.23455 -1.41982,0.44002 -2.14723,0.45659 -1.17519,0.0268 -1.42161,-0.0708 -2.21155,-0.87528 -0.48894,-0.49797 -1.11248,-1.31411 -1.38564,-1.81366 -0.70464,-1.28865 -1.06146,-1.28289 -1.63225,0.0263 -0.57376,1.31601 -1.92611,2.701 -3.05192,3.12559 -0.982745,0.37062 -2.193899,0.1111 -2.545236,-0.54538 -0.149432,-0.2792 -0.426432,-0.50765 -0.615561,-0.50765 -0.58265,0 -3.646049,1.0722 -4.314188,1.50999 -0.570058,0.37351 -0.592743,0.4573 -0.231788,0.85615 0.635328,0.70203 4.364106,1.43803 6.221087,1.22794 1.373046,-0.15535 1.643306,-0.10898 2.115156,0.36287 0.36342,0.36341 0.54097,0.8861 0.54097,1.59251 0,0.91777 0.10939,1.10871 0.8599,1.50097 2.09833,1.09673 5.4901,-0.0733 5.4901,-1.89382 0,-1.20183 0.41912,-1.43234 2.53306,-1.39314 1.62084,0.0301 2.04954,-0.0734 3.4937,-0.84314 1.61337,-0.85992 2.03988,-1.46294 1.24928,-1.76631 -0.40807,-0.1566 -0.56612,-1.15402 -0.18286,-1.15402 0.11771,0 0.44513,0.17481 0.7276,0.38846 0.28248,0.21365 0.81826,0.39225 1.19063,0.39688 0.89586,0.0111 1.78466,0.63945 1.31508,0.92967 -1.30556,0.80688 -6.67062,3.31207 -7.09305,3.31207 -0.2868,0 -0.89213,0.0741 -1.34518,0.16475 -0.69767,0.13953 -0.80052,0.25718 -0.6721,0.76884 0.13333,0.53124 -0.0426,0.69125 -1.45831,1.3266 -0.88546,0.39737 -1.60993,0.86323 -1.60993,1.03524 0,0.481 1.63891,1.19749 2.38125,1.04102 0.3638,-0.0767 1.67349,-0.62408 2.91041,-1.21644 z m -47.360414,-1.14632 c 2.374234,-0.85021 3.939813,-2.00911 7.04885,-5.2178 1.725684,-1.781 3.256671,-3.43736 3.402192,-3.6808 0.145521,-0.24344 0.859896,-0.89598 1.5875,-1.45007 1.576586,-1.20061 2.049719,-1.5782 3.181548,-2.53908 0.471385,-0.40018 0.944208,-0.7276 1.050724,-0.7276 0.106516,0 1.071317,-0.54702 2.144004,-1.21559 1.847577,-1.15155 4.472551,-2.20826 6.40488,-2.57837 0.799986,-0.15322 0.905608,-0.0942 1.23344,0.68871 0.515106,1.23024 0.558688,1.24454 2.057741,0.67494 0.840491,-0.31936 2.580592,-0.61237 4.550526,-0.76624 3.947039,-0.3083 4.480849,-0.41582 5.965659,-1.20158 0.65368,-0.34592 1.28227,-0.62896 1.39684,-0.62896 0.37761,0 2.8993,-2.12028 3.65977,-3.07721 0.78219,-0.98425 1.77512,-3.34156 2.0138,-4.78095 0.12151,-0.7328 0.0531,-0.86861 -0.50861,-1.00959 -1.07224,-0.26912 -2.91526,-0.0331 -3.13236,0.40109 -0.10914,0.21828 -0.3962,0.87842 -0.63793,1.46698 -0.24172,0.58856 -1.08221,1.73897 -1.86775,2.55646 -1.87902,1.95543 -3.670942,2.68991 -6.610199,2.7094 -1.928722,0.0128 -2.251622,-0.064 -3.636576,-0.86446 -1.891239,-1.09311 -2.713424,-1.05434 -2.713424,0.12794 0,0.46032 -0.06749,0.90484 -0.149984,0.98783 -0.262737,0.26431 -4.525939,-1.06507 -7.029569,-2.19201 -1.329381,-0.59839 -2.561053,-1.08798 -2.737051,-1.08798 -0.176001,0 -1.142153,0.24973 -2.147009,0.55494 -2.448711,0.74377 -2.45722,1.23359 -0.04107,2.36452 2.552734,1.19486 2.517264,1.17405 2.820154,1.65423 0.428601,0.67948 -1.188823,2.1555 -3.761428,3.4326 -2.16794,1.07621 -2.215049,1.08635 -3.439583,0.74079 -1.877666,-0.52987 -2.224389,-0.48944 -2.680841,0.31262 -0.472662,0.83054 -0.223697,1.48139 0.733341,1.91711 0.852921,0.38831 0.706104,1.01084 -0.623332,2.64303 -0.658352,0.80828 -1.402493,1.80437 -1.653646,2.21355 -1.073391,1.74873 -3.696816,4.35385 -5.277276,5.24045 -3.538622,1.98508 -7.838395,1.23087 -8.196323,-1.43769 -0.347247,-2.58891 3.880966,-4.67427 5.636553,-2.77996 0.765117,0.82557 1.256007,0.67441 1.973649,-0.60777 0.424598,-0.7586 0.466064,-0.77029 2.73304,-0.77029 2.142773,0 2.33721,-0.0457 2.812653,-0.66146 0.664142,-0.86011 0.650965,-1.20294 -0.06552,-1.70479 -0.447829,-0.31367 -1.299488,-0.41188 -3.571875,-0.41188 -2.516823,0 -2.983836,-0.0641 -2.983836,-0.4095 0,-0.60843 -1.307362,-1.70716 -2.031315,-1.70716 -0.359058,0 -0.705387,0.1996 -0.803391,0.46302 -0.326602,0.87784 -1.231993,1.91409 -2.306003,2.63928 -2.30288,1.55495 -2.863088,2.10902 -3.610411,3.57088 -0.855231,1.67294 -0.966367,2.85567 -0.396492,4.21958 0.391491,0.93696 0.711515,1.16297 2.929904,2.06909 1.103505,0.45073 1.717857,0.51927 3.704166,0.41323 1.309688,-0.0699 2.917032,-0.31898 3.571875,-0.55348 z m 84.931254,-0.54192 c 3.3021,-1.00908 3.48053,-1.09178 4.56406,-2.11533 0.85871,-0.81117 0.99219,-1.09634 0.99219,-2.11972 0,-3.13605 -2.36869,-5.66944 -5.7498,-6.14961 -1.20188,-0.17068 -1.27852,-0.23237 -1.6175,-1.30168 -0.19571,-0.61738 -0.47058,-1.12251 -0.61083,-1.12251 -0.14024,0 -0.70178,0.35905 -1.24786,0.7979 -1.21267,0.97453 -2.3401,1.31877 -4.31914,1.31877 -1.75947,0 -4.10408,0.45368 -4.34308,0.84039 -0.2554,0.41325 0.38268,1.40135 1.22702,1.90011 0.64858,0.38313 1.00888,0.40908 2.46031,0.17721 1.98089,-0.31645 3.14522,-0.14623 3.77732,0.55224 0.6944,0.7673 1.64007,0.6354 2.16763,-0.30235 1.04185,-1.85188 3.24795,-1.20154 5.11133,1.50679 0.81774,1.18855 0.81968,1.19965 0.37918,2.16275 -0.24353,0.53243 -0.73141,1.32525 -1.08417,1.76182 -0.6303,0.78 -0.68384,0.7936 -3.09226,0.7855 -2.32277,-0.008 -2.52691,-0.0555 -3.90607,-0.9125 -2.55016,-1.58467 -4.04588,-2.79815 -6.24699,-5.06819 -2.74825,-2.83432 -3.54777,-4.3511 -2.72644,-5.17242 0.15784,-0.15784 0.24714,-0.56861 0.19843,-0.91281 -0.0764,-0.53975 -0.27052,-0.64507 -1.41146,-0.7657 -1.60481,-0.16966 -1.72406,-0.23858 -3.93169,-2.27247 -2.4301,-2.23884 -2.38903,-3.0445 0.22752,-4.46348 0.72761,-0.39459 1.50152,-0.8701 1.7198,-1.0567 0.21828,-0.1866 0.69453,-0.4265 1.05833,-0.53312 1.58785,-0.46533 5.85475,-2.92829 6.40101,-3.69482 0.10082,-0.14147 0.0628,-0.40242 -0.0845,-0.5799 -0.37936,-0.45711 0.0729,-1.19313 1.20819,-1.96638 0.5161,-0.3515 0.93917,-0.83581 0.94017,-1.07624 0.002,-0.44761 -1.22296,-1.01807 -2.18588,-1.01807 -0.61919,0 -3.43548,1.63471 -4.55919,2.64636 -0.43656,0.39304 -1.92484,1.47493 -3.30729,2.40421 -1.38245,0.92929 -2.67744,1.84651 -2.87775,2.03827 -0.58631,0.56127 -6.06028,3.22991 -6.62527,3.22991 -0.36622,0 -0.5403,-0.21119 -0.59972,-0.7276 -0.065,-0.56519 -0.24125,-0.74582 -0.78947,-0.80921 -0.554,-0.0641 -0.78157,0.0782 -1.05834,0.66145 -0.55668,1.17323 -2.09094,1.76613 -4.57603,1.76838 -1.67571,0.002 -2.3627,-0.12098 -3.24048,-0.57784 -0.61267,-0.31886 -1.35267,-0.57976 -1.64444,-0.57976 -0.608,0 -2.401,1.47566 -2.401,1.97606 0,0.44948 3.47679,1.93028 5.31718,2.26464 0.8144,0.14796 3.001,0.29613 4.85912,0.32926 l 3.37838,0.0602 0.99767,1.12448 c 0.54872,0.61846 1.12169,1.12448 1.27328,1.12448 0.15158,0 0.56538,-0.37028 0.91956,-0.82283 0.54356,-0.69453 0.76469,-0.79631 1.41831,-0.65275 0.83697,0.18383 4.59555,3.67438 6.14727,5.70891 1.10723,1.45173 5.03138,5.36587 6.49982,6.48324 2.15002,1.63601 4.38599,2.84258 6.14811,3.31765 2.3367,0.62997 2.2247,0.63384 4.84547,-0.16704 z m -85.633826,-2.39173 c 0.510723,-0.27239 1.65871,-1.0105 2.551084,-1.64025 1.254146,-0.88506 1.603912,-1.2755 1.540637,-1.71979 -0.063,-0.44236 -0.292852,-0.59485 -0.99763,-0.66186 -0.758381,-0.0721 -1.031227,0.0541 -1.5875,0.73421 -0.964581,1.17936 -2.24414,1.33627 -3.568414,0.4376 -0.557488,-0.37833 -1.20536,-0.68742 -1.439715,-0.68687 -0.672645,0.002 -2.081752,0.96762 -2.268191,1.55503 -0.196154,0.61803 0.438439,1.98973 1.114484,2.409 0.673245,0.41754 3.569845,0.1518 4.655245,-0.42707 z m 85.612086,-0.77375 c 1.20975,-0.60763 1.34465,-0.76327 1.34465,-1.55142 0,-1.65211 -2.27881,-3.17283 -3.15349,-2.10443 -0.64999,0.79395 -1.66872,1.42081 -2.30898,1.42081 -0.32023,0 -0.93943,-0.35718 -1.37599,-0.79375 -0.56657,-0.56657 -1.04568,-0.79271 -1.674,-0.79013 -1.21329,0.005 -2.07087,0.26423 -2.07087,0.62604 0,0.50052 2.87908,2.59116 4.46914,3.24525 1.92489,0.79182 3.1148,0.77876 4.76954,-0.0524 z m -39.38379,-3.56726 c 0.61244,-0.32777 0.65916,-0.86192 0.1149,-1.31361 -0.56167,-0.46615 -0.49341,-0.98585 0.22369,-1.70295 0.42394,-0.42394 0.82581,-0.58132 1.26838,-0.49672 0.82005,0.15677 1.97183,-0.71476 1.74068,-1.31713 -0.0895,-0.23332 -0.67494,-0.56116 -1.30089,-0.72853 -0.62596,-0.16738 -1.28356,-0.42352 -1.46134,-0.56921 -0.46655,-0.38234 -2.11276,-0.71245 -2.73779,-0.549 -0.60705,0.15875 -1.56993,1.8621 -1.56771,2.77331 0.004,1.45352 0.56444,2.61353 1.64069,3.39317 1.20089,0.86992 1.34295,0.9048 2.07939,0.51067 z m -18.047797,-1.5471 c 1.361141,-0.28008 2.598719,-0.63315 2.750174,-0.78461 0.190778,-0.19078 0.170982,-0.52741 -0.06444,-1.09577 -0.554884,-1.3396 -0.06991,-2.01275 1.717453,-2.3838 0.816991,-0.16961 2.145837,-0.65577 2.952991,-1.08035 0.807151,-0.42459 1.807829,-0.77198 2.223719,-0.77198 0.88576,0 1.83593,0.91442 2.51504,2.42039 0.62329,1.38223 1.31407,1.36044 1.73809,-0.0548 0.17698,-0.5907 0.66354,-1.36157 1.08124,-1.71305 0.64668,-0.54414 0.93741,-0.61465 1.95776,-0.47479 0.65907,0.0903 1.63122,0.38495 2.16033,0.65471 0.52911,0.26976 1.28739,0.49047 1.68507,0.49047 0.39768,0 1.05513,0.28564 1.461,0.63475 0.72992,0.62785 0.73323,0.64467 0.30377,1.54526 -0.23881,0.50078 -0.35589,1.02492 -0.26018,1.16477 0.53925,0.78793 5.11424,1.94688 7.6854,1.94688 2.29313,0 6.9771,-0.87711 7.90507,-1.48028 0.7689,-0.49978 0.54618,-0.94548 -1.30347,-2.60847 -2.1171,-1.90346 -2.69331,-2.13534 -4.03395,-1.62335 -1.43119,0.54658 -1.56576,0.5355 -2.45196,-0.20182 -0.91133,-0.75822 -1.64773,-0.95158 -4.71666,-1.23849 -3.35924,-0.31405 -5.81131,-0.8446 -7.80521,-1.68881 -0.94588,-0.40049 -2.03325,-0.85807 -2.41638,-1.01685 -0.59541,-0.24676 -0.94128,-0.16254 -2.38125,0.57983 -2.33224,1.20239 -3.59407,1.5313 -7.108615,1.85299 -3.399893,0.3112 -4.396124,0.54224 -5.728944,1.32862 -1.251193,0.73822 -1.540703,0.68685 -2.173499,-0.38566 -0.459639,-0.77903 -0.693999,-0.92604 -1.476258,-0.92604 -1.203193,0 -4.661257,1.69003 -7.522893,3.67661 -2.731519,1.89625 -2.968469,2.24479 -1.901256,2.79667 2.325037,1.20232 8.496213,1.4065 13.20786,0.43698 z M 28.06251,133.342 c 1.130566,-0.61092 2.305207,-1.74999 2.907771,-2.81973 0.620751,-1.10203 1.135435,-4.95786 0.756338,-5.66621 -0.544776,-1.01792 -1.113113,-0.46222 -2.27682,2.22619 -0.622486,1.43807 -1.375877,2.8745 -1.674203,3.19205 -0.298325,0.31755 -0.54241,0.70007 -0.54241,0.85004 0,0.14996 -0.237457,0.48756 -0.527681,0.75021 -0.561347,0.50801 -1.139001,2.17271 -0.892394,2.57173 0.08117,0.13134 0.40413,0.0535 0.717685,-0.17293 0.313554,-0.22646 1.002826,-0.64556 1.531714,-0.93135 z m 0.879623,-2.72187 c -0.177297,-0.46203 1.081792,-2.84528 1.503184,-2.84528 0.456811,0 -0.08017,1.96754 -0.717545,2.62915 -0.533401,0.55368 -0.64439,0.58421 -0.785639,0.21613 z m 23.106546,0.57387 c 1.051587,-0.59348 2.240799,-0.95161 4.38702,-1.32116 3.87442,-0.66712 5.028917,-0.63989 6.648529,0.15683 1.601277,0.78769 1.773798,0.79766 2.371675,0.13701 0.346681,-0.38307 0.425196,-0.75374 0.300474,-1.41856 -0.110776,-0.59049 -0.05335,-0.99136 0.167007,-1.1657 0.322673,-0.2553 0.586873,-0.33094 3.013398,-0.86274 0.59953,-0.13139 1.790155,-0.49729 2.645834,-0.81311 0.855678,-0.31581 1.912966,-0.63446 2.349529,-0.70811 0.436562,-0.0736 0.972343,-0.28858 1.190625,-0.47764 0.218281,-0.18905 1.051718,-0.59216 1.852083,-0.8958 0.800365,-0.30364 1.640888,-0.65707 1.867826,-0.78542 0.932156,-0.52718 5.361535,-1.89824 8.583216,-2.65682 1.891771,-0.44544 3.856302,-0.92426 4.365625,-1.06403 0.509323,-0.13978 1.907907,-0.33548 3.107967,-0.4349 1.248101,-0.1034 2.302849,-0.32647 2.464467,-0.52121 0.155401,-0.18724 0.245094,-0.79523 0.199327,-1.35109 l -0.08322,-1.01065 -1.316193,-0.0831 c -1.441281,-0.091 -4.647936,0.56481 -6.433098,1.3156 -0.969129,0.40758 -1.156216,0.42118 -1.282094,0.0931 -0.08106,-0.21124 0.106299,-0.70658 0.416356,-1.10076 0.492152,-0.62566 0.51508,-0.76534 0.180562,-1.09986 -0.566425,-0.56642 -1.995246,-0.20433 -3.368714,0.85369 -3.370337,2.59628 -8.523952,4.78705 -15.85223,6.73867 -3.294004,0.87724 -6.04538,1.79365 -6.493873,2.16294 -0.15544,0.12799 -0.687078,0.26586 -1.181415,0.30638 -0.811786,0.0666 -0.912701,-0.003 -1.042458,-0.71754 -0.292531,-1.6111 -2.917468,-1.83352 -2.917468,-0.2472 0,1.11534 -1.464807,2.35275 -3.54608,2.99559 -2.066248,0.6382 -2.727585,0.66056 -5.399038,0.18253 -1.545029,-0.27647 -2.105914,-0.51297 -2.790721,-1.17671 -0.471385,-0.45688 -1.103226,-0.8307 -1.404097,-0.8307 -0.739719,0 -1.941314,0.98175 -1.941314,1.58612 0,0.53422 2.291366,2.64275 2.874907,2.64551 0.852371,0.004 3.027865,0.9852 3.670316,1.65535 0.383641,0.40019 0.754925,0.72761 0.825072,0.72761 0.07015,0 0.776739,-0.36638 1.570198,-0.81419 z m 103.105801,-0.79495 c -0.18698,-0.8513 -0.18858,-0.85023 2.59038,-1.72686 0.84001,-0.26499 1.98383,-0.78365 2.54182,-1.15258 0.55799,-0.36894 1.48946,-0.98813 2.06993,-1.37597 0.58413,-0.39029 1.26788,-1.15824 1.53122,-1.71979 0.2617,-0.55804 0.63494,-1.10854 0.82941,-1.22333 0.19448,-0.1148 0.65675,-0.726 1.02727,-1.35824 1.01433,-1.73082 1.14608,-4.01252 0.40082,-6.94152 -0.86345,-3.39352 -1.49295,-4.49068 -3.01067,-5.24735 -0.31191,-0.1555 -0.5671,-0.51733 -0.5671,-0.80408 0,-0.46316 0.23151,-0.53612 2.07414,-0.65364 1.8648,-0.11894 2.13862,-0.20734 2.71302,-0.87586 0.77706,-0.90439 0.64934,-1.81464 -0.40848,-2.91112 l -0.71802,-0.74427 -1.33114,0.82748 c -1.18374,0.73585 -4.36423,1.70672 -8.67952,2.64949 -0.58208,0.12717 -1.76158,0.47593 -2.62111,0.77504 -1.77759,0.61858 -2.59633,0.67728 -3.30175,0.23674 -0.39861,-0.24894 -0.68601,-0.19234 -1.51776,0.29891 -2.41858,1.42847 -5.11039,3.33952 -5.11841,3.63381 -0.009,0.32473 2.14448,1.40144 2.80276,1.40144 0.19961,0 1.22627,-0.42714 2.28147,-0.94921 3.60628,-1.78423 4.55022,-2.1027 6.94563,-2.34335 2.13581,-0.21457 4.16906,0.35307 5.34827,1.49313 1.4685,1.41976 2.40812,3.31459 2.60245,5.24813 0.15295,1.52175 0.094,1.86492 -0.53367,3.1073 -0.38808,0.76813 -1.29566,2.10563 -2.01684,2.97221 -1.11575,1.34072 -1.69454,1.75835 -3.88247,2.80144 -3.89219,1.8556 -6.67711,1.9179 -6.67711,0.14938 0,-1.3817 -1.36504,-1.85357 -2.39182,-0.82679 -1.31526,1.31526 -3.01726,1.34871 -7.00089,0.1376 -1.60073,-0.48666 -3.37368,-1.06073 -3.93989,-1.27573 -1.19934,-0.4554 -1.63924,-0.38115 -2.68575,0.4533 -0.67269,0.53639 -0.7221,0.66594 -0.40137,1.0524 0.54332,0.65465 4.41452,2.38337 6.23326,2.7835 0.87313,0.19209 2.12328,0.52335 2.77813,0.73613 2.01615,0.65509 4.02906,1.1613 5.68854,1.43056 4.03435,0.6546 6.10265,0.92376 6.29934,0.81979 0.11766,-0.0622 0.13832,-0.45733 0.0459,-0.87809 z m 24.55355,0.12126 c 1.52504,-0.2431 2.12126,-1.62422 1.47395,-3.41433 -0.38997,-1.07843 -0.16726,-1.92447 0.76561,-2.90851 1.00998,-1.06538 1.62613,-2.07924 1.62602,-2.67561 -5e-5,-0.27164 0.0793,-0.81913 0.17633,-1.21666 0.14972,-0.61337 0.0718,-0.76256 -0.51496,-0.98564 -0.46087,-0.17522 -0.69418,-0.46352 -0.69979,-0.86472 -0.0166,-1.18557 -0.59261,-1.56325 -2.25082,-1.47576 -1.29433,0.0683 -1.55125,0.16788 -1.73724,0.67338 -0.17145,0.46599 -0.0704,0.73038 0.47142,1.23274 1.23119,1.14162 0.16303,2.21535 -1.60066,1.60902 -0.5617,-0.1931 -1.59913,-0.43057 -2.30539,-0.52771 -1.06992,-0.14715 -1.41785,-0.0814 -2.08588,0.3943 -0.44097,0.314 -0.80177,0.73275 -0.80177,0.93056 0,0.60092 1.24753,1.38501 2.5032,1.57331 0.88177,0.13223 1.32255,0.36901 1.7163,0.92199 1.30801,1.83693 1.12446,2.95819 -0.74642,4.55959 -0.6005,0.51401 -1.09183,1.0603 -1.09183,1.21397 0,0.15368 0.44649,0.52793 0.99219,0.83167 0.99604,0.5544 1.3651,0.56593 4.10974,0.12841 z M 35.389516,128.65903 c 0.388966,-0.0957 1.463521,-0.63144 2.387899,-1.19054 0.924379,-0.55911 1.892066,-1.01655 2.150416,-1.01655 0.25835,0 0.612894,-0.17251 0.787874,-0.38334 0.174979,-0.21084 0.701468,-0.50985 1.169979,-0.66448 0.468509,-0.15462 1.560314,-0.64971 2.426232,-1.10022 4.148672,-2.15837 6.714636,-3.14363 8.187087,-3.14363 1.391743,0 1.464728,-0.0352 1.8166,-0.8774 0.329157,-0.78778 0.768197,-1.05654 4.298109,-2.63106 2.162325,-0.96452 3.976243,-1.88788 4.030924,-2.05193 0.136192,-0.40857 -0.907113,-1.47422 -1.809089,-1.84783 -0.641019,-0.26552 -1.004051,-0.19635 -2.685846,0.5117 -1.069551,0.45029 -2.589498,1.14442 -3.377657,1.54251 -0.78816,0.39809 -1.526223,0.76146 -1.640139,0.80749 -0.113917,0.046 -0.472797,-0.22185 -0.79751,-0.59531 -0.882563,-1.01503 -1.377439,-0.85939 -2.058419,0.64739 -0.495646,1.0967 -0.980725,1.59736 -2.801186,2.89116 -2.489385,1.7692 -3.011844,2.05966 -5.424937,3.01598 -2.730585,1.08215 -4.751606,1.51994 -6.774317,1.46743 -1.033739,-0.0268 -1.991405,0.0203 -2.128148,0.10487 -0.142836,0.0883 -0.175368,0.865 -0.07646,1.82548 0.114156,1.10851 0.05492,2.02547 -0.175795,2.72143 -0.448396,1.35258 -0.03172,1.67135 1.023763,0.78321 0.419873,-0.35329 1.08165,-0.72066 1.470617,-0.81636 z m 139.563534,-1.73892 c 1.11285,-0.32996 1.55192,-0.89358 1.33683,-1.71606 -0.22753,-0.87009 -1.26297,-1.16959 -3.38027,-0.97772 -1.35332,0.12263 -2.57612,0.038 -4.25035,-0.29424 l -2.35042,-0.4664 -0.61256,0.76552 c -0.3369,0.42104 -0.61314,0.90066 -0.61386,1.06582 -0.002,0.49004 1.21782,1.14275 2.70727,1.44845 0.76585,0.15718 1.80917,0.37991 2.3185,0.49496 1.105,0.24961 3.44431,0.0949 4.84486,-0.32033 z m -120.103256,-0.756 c 1.419072,-0.39402 2.392471,-1.39133 2.02611,-2.07589 -0.445981,-0.83332 0.645507,-1.89047 2.116014,-2.04944 1.00734,-0.1089 1.368435,-0.003 2.444964,0.71659 1.367774,0.91436 1.772428,0.93078 3.896304,0.15817 0.654844,-0.23822 1.702771,-0.5578 2.328731,-0.71019 0.625956,-0.15238 1.2119,-0.46938 1.302096,-0.70442 0.232947,-0.60706 -1.44903,-1.95264 -4.051662,-3.24134 l -2.140628,-1.05993 -1.960414,0.83077 c -4.100925,1.73787 -4.858329,2.21928 -5.003123,3.18006 l -0.132291,0.87782 -2.369183,0.19721 c -4.510455,0.37544 -7.900649,2.33593 -5.899047,3.4113 0.327422,0.17591 0.9525,0.40604 1.389063,0.5114 1.238454,0.29887 4.917178,0.27328 6.053066,-0.0421 z m 61.067726,-0.21686 c 0.3369,-0.13206 1.11396,-0.72737 1.7268,-1.32292 1.26799,-1.2322 2.13,-1.37892 3.19227,-0.54333 0.74981,0.58979 1.57877,0.5304 3.16689,-0.22693 1.02318,-0.48791 1.11349,-1.17088 0.20931,-1.58285 -1.04938,-0.47813 -5.67054,-1.46582 -11.25182,-2.40487 -0.80515,-0.13547 -1.63927,-0.14438 -1.87168,-0.02 -0.42732,0.2287 -1.04152,1.88758 -1.04152,2.81306 0,0.28143 -0.13089,0.64258 -0.29087,0.80256 -0.52414,0.52414 0.0116,1.30558 1.28714,1.8775 1.90328,0.85336 3.68129,1.0751 4.87348,0.60778 z m 39.54132,-0.32942 c 0.4173,-0.20001 0.75872,-0.5397 0.75872,-0.75488 0,-0.84254 -6.95245,-3.79641 -9.87122,-4.19397 -2.2133,-0.30147 -2.69649,-0.59573 -2.69649,-1.64216 0,-0.41015 -0.13622,-0.82992 -0.30271,-0.93282 -0.5701,-0.35234 -1.81482,-0.14414 -2.63659,0.441 -0.71676,0.51038 -0.80298,0.70039 -0.67517,1.48798 0.13678,0.84288 0.0683,0.95009 -1.02992,1.61347 -0.64704,0.39083 -1.17644,0.90689 -1.17644,1.14681 0,0.74108 2.75564,1.70894 5.93774,2.0855 2.05651,0.24337 2.13595,0.23105 3.7292,-0.57829 2.0141,-1.02313 2.6582,-0.91053 4.1763,0.73009 0.99431,1.07457 1.20255,1.18317 2.06679,1.07794 0.52859,-0.0644 1.3025,-0.28067 1.71979,-0.48067 z m -55.45207,-0.23127 c 0.65789,-0.3521 0.65642,-0.91087 -0.004,-1.57142 -0.286066,-0.28607 -0.812561,-1.09722 -1.169981,-1.80256 -0.35742,-0.70533 -0.832691,-1.43417 -1.056161,-1.61963 -0.596733,-0.49524 -3.344331,-0.38099 -6.249562,0.25986 -1.382448,0.30495 -3.230679,0.7029 -4.10718,0.88433 -2.604293,0.53908 -4.62407,1.2555 -4.62407,1.64017 0,0.19641 0.446485,0.54923 0.992188,0.78404 1.184963,0.50989 4.576776,1.69684 4.848855,1.69684 0.105658,0 0.437975,-0.41672 0.738483,-0.92604 0.59843,-1.01427 1.399704,-1.20974 2.155423,-0.52582 0.243234,0.22012 1.26464,0.69533 2.269792,1.05601 1.515427,0.5438 2.157412,0.63399 3.758948,0.52808 1.062271,-0.0702 2.163599,-0.25198 2.447395,-0.40386 z m 2.95023,-2.08869 c 1.22066,-1.42563 1.2674,-2.13279 0.21385,-3.23523 -0.73199,-0.76595 -1.32016,-2.16565 -1.32369,-3.15005 -7.9e-4,-0.22617 0.36112,-0.98296 0.80428,-1.68176 0.74591,-1.17618 0.77639,-1.31536 0.41039,-1.87396 -0.49774,-0.75964 -2.17899,-1.81485 -2.62121,-1.64516 -0.18331,0.0703 -0.686055,0.63693 -1.117201,1.25907 -0.722535,1.04262 -0.783241,1.30905 -0.775486,3.40356 0.0092,2.4761 0.604467,4.55002 1.843417,6.4222 0.76478,1.15567 1.82757,1.36334 2.56565,0.50133 z m 56.8841,-0.46731 c 0.955,-0.91494 0.96036,-1.73496 0.0145,-2.21376 -2.83085,-1.43297 -5.09323,-3.64288 -5.09323,-4.97512 0,-0.27612 -0.18857,-0.65853 -0.41905,-0.84982 -0.576,-0.47803 -1.26239,-0.0125 -1.43429,0.97275 -0.19227,1.10207 -1.03207,1.09272 -3.70291,-0.0412 -1.23692,-0.52516 -2.5934,-1.08209 -3.01438,-1.23763 -1.53158,-0.56587 -7.21548,-3.55976 -8.89187,-4.68363 -2.22622,-1.49249 -2.76065,-1.97961 -4.00431,-3.64988 -0.95947,-1.28861 -1.07347,-1.36171 -1.68734,-1.08201 -0.66212,0.30168 -0.88613,1.10135 -0.39376,1.40565 0.45483,0.2811 0.28893,0.92604 -0.23821,0.92604 -0.27654,0 -2.09224,-0.52218 -4.0349,-1.16039 -1.94265,-0.63821 -4.18695,-1.24695 -4.98731,-1.35275 -2.78534,-0.36819 -7.19464,-0.34509 -9.2399,0.0484 -1.10269,0.21216 -2.54067,0.47477 -3.19552,0.58359 -1.21845,0.20247 -3.9577,1.46154 -4.28101,1.96773 -0.23957,0.37507 0.23835,1.23632 0.68605,1.23632 0.19534,0 0.49271,0.16573 0.66082,0.36829 0.54316,0.65447 1.28508,0.64608 2.7197,-0.0307 3.85592,-1.81912 10.0692,-2.1422 13.84048,-0.71967 1.01865,0.38423 2.11198,0.75881 2.42963,0.83239 0.89674,0.20774 0.9774,0.87189 0.20394,1.67921 -0.48669,0.50799 -0.66464,0.94318 -0.60354,1.47601 0.11204,0.97711 0.71426,1.0841 2.16076,0.38386 1.65007,-0.79878 3.53332,-0.71878 6.26026,0.26594 1.23692,0.44667 2.7252,0.95579 3.30729,1.13139 5.80541,1.75135 7.80521,2.80405 7.80521,4.10866 0,0.62976 0.54785,0.97502 1.88316,1.18677 0.52642,0.0835 1.89292,0.51213 3.03668,0.95255 1.14375,0.44042 2.20132,0.80072 2.35016,0.80066 0.14884,-6e-5 0.985,0.34682 1.85812,0.77084 3.96905,1.92752 4.80164,2.05224 6.00479,0.89955 z m -31.33131,-1.64029 c 1.34809,-1.1538 1.00256,-1.5461 -2.39852,-2.72311 -1.31564,-0.45531 -3.91708,-1.8286 -6.40184,-3.37951 -0.80097,-0.49995 -1.45958,-0.0135 -1.45958,1.07793 0,0.64605 -0.10554,0.76136 -0.6969,0.76136 -0.3833,0 -1.12744,-0.11052 -1.65365,-0.2456 -3.33174,-0.85529 -11.62683,-1.39949 -12.33781,-0.80942 -0.47905,0.39757 -0.52429,2.26166 -0.0622,2.56076 0.1819,0.11773 1.75948,0.22336 3.50573,0.23473 3.52734,0.023 7.70128,0.42285 10.71563,1.02657 1.0914,0.21859 2.69875,0.5245 3.57187,0.67981 0.87313,0.15531 2.36141,0.56284 3.30729,0.90563 2.25329,0.8166 2.86805,0.80258 3.90994,-0.0892 z m -86.647786,0.10845 c 0.820108,-0.34266 0.970505,-0.55576 1.222936,-1.73281 0.158306,-0.73816 0.289404,-1.5446 0.291327,-1.7921 0.0061,-0.78424 2.034543,-4.14754 3.237135,-5.36739 1.571628,-1.59418 2.234012,-1.98987 4.171421,-2.4919 3.006736,-0.77913 6.408441,0.20606 10.963995,3.17535 2.554335,1.66491 2.721094,1.8437 2.835148,3.03981 0.07967,0.83555 0.232799,0.98978 1.660922,1.67286 0.865235,0.41385 1.698672,0.90783 1.852083,1.09773 0.675579,0.83629 3.184856,2.28802 3.706376,2.1443 0.297714,-0.082 0.985533,-0.22349 1.52849,-0.31433 1.254897,-0.20996 1.666748,-0.66534 1.270817,-1.40514 -0.160739,-0.30034 -0.447952,-0.54608 -0.638249,-0.54608 -0.604652,0 -5.136237,-4.81026 -6.667579,-7.0776 -1.563563,-2.31506 -2.293051,-2.72252 -2.960571,-1.65365 -0.418087,0.66946 -1.063358,0.67437 -1.766882,0.0134 -1.983791,-1.86367 -7.118914,-3.51158 -12.449728,-3.99524 -2.134979,-0.19371 -3.941355,-0.51038 -4.7625,-0.8349 -4.058195,-1.60384 -4.524793,-1.59016 -4.256834,0.12475 0.255291,1.63383 1.678242,2.81637 3.40524,2.82993 1.623793,0.0127 1.954493,0.60887 0.829755,1.49572 -2.019059,1.59202 -3.565374,3.70053 -4.537443,6.18713 -0.98416,2.51754 -1.114962,5.82084 -0.230489,5.82084 0.197736,0 0.78032,-0.17582 1.29463,-0.39072 z m 4.248047,-2.04712 c 0.459026,-0.32217 0.87476,-0.68079 0.923851,-0.79694 0.04909,-0.11615 0.599233,-0.56206 1.222536,-0.9909 0.7127,-0.49035 1.342869,-1.2256 1.698035,-1.98119 0.502566,-1.06916 0.661017,-1.20147 1.438873,-1.20147 0.480764,0 1.105234,0.17481 1.387708,0.38846 0.597953,0.45227 1.25875,0.5068 1.906244,0.15731 0.252687,-0.13639 1.029993,-0.51719 1.727345,-0.84621 1.377757,-0.65006 1.905262,-1.12648 1.669547,-1.50788 -0.629504,-1.01856 -4.610867,-1.63353 -7.155532,-1.10526 -1.419172,0.29462 -1.748649,0.50478 -3.47223,2.21486 -1.474449,1.46289 -2.030793,2.23498 -2.4648,3.42063 -0.998831,2.72867 -0.62797,3.47429 1.118423,2.24859 z m 115.943389,0.13604 c 0.36855,-0.36856 0.4227,-0.77202 0.30001,-2.23548 -0.16621,-1.98246 -0.37731,-2.49201 -1.70928,-4.12575 -0.63909,-0.78388 -1.24513,-1.21298 -2.00939,-1.42272 -1.64108,-0.45035 -4.43638,-0.3864 -5.46143,0.12496 -0.48045,0.23969 -0.99626,0.43579 -1.14624,0.43579 -0.4047,0 -2.61837,1.07951 -3.15174,1.53697 -0.66884,0.57366 -0.57851,0.82302 0.45453,1.25465 1.2719,0.53144 1.51687,0.49357 2.65433,-0.41037 0.54934,-0.43656 1.286,-0.79375 1.63702,-0.79375 1.09163,0 2.11455,0.70006 2.28766,1.56562 0.21233,1.06161 1.76123,2.73255 3.44062,3.71171 1.57371,0.91755 2.07791,0.98437 2.70391,0.35837 z M 77.571742,118.8858 c 0.110006,-0.18151 0.586256,-0.41313 1.058334,-0.51472 1.716931,-0.36948 7.226014,-3.24489 8.719092,-4.55085 0.627002,-0.54842 2.074095,-0.23791 2.877698,0.61749 0.571892,0.60875 0.757849,0.65732 1.828255,0.4776 0.655384,-0.11004 1.667857,-0.21604 2.24994,-0.23556 3.384534,-0.11347 3.303141,-0.094 3.599879,-0.86168 0.154681,-0.40018 0.449784,-1.06467 0.655786,-1.47665 0.205999,-0.41197 0.374544,-0.8554 0.374544,-0.98539 0,-0.86957 -4.718206,-1.79385 -9.584749,-1.87762 -2.683316,-0.0462 -3.174809,0.0121 -3.63802,0.43127 -0.294561,0.26657 -0.535565,0.6905 -0.535565,0.94205 0,0.5592 -1.951037,2.37103 -2.5532,2.37103 -0.239255,0 -0.92352,-0.39192 -1.520592,-0.87094 -1.575263,-1.26379 -3.404317,-1.65913 -5.221584,-1.1286 -2.559354,0.74718 -5.121328,1.9025 -5.208622,2.34883 -0.12682,0.64842 1.424985,2.43055 3.743151,4.29871 2.042813,1.64626 2.653929,1.84283 3.155653,1.01503 z m 55.627068,-1.29291 c 0.29104,-0.32226 1.03518,-0.86398 1.65365,-1.20382 1.99618,-1.09691 1.36518,-1.75716 -2.63858,-2.76091 -1.47931,-0.37086 -2.02407,-0.39498 -3.23654,-0.14327 -0.80181,0.16646 -1.52648,0.4137 -1.61036,0.54943 -0.0839,0.13573 -0.57398,0.24678 -1.08909,0.24678 -0.70655,0 -1.12508,-0.2018 -1.70418,-0.82173 -0.83504,-0.89391 -0.93444,-1.43305 -0.45729,-2.48028 0.41815,-0.91774 0.16032,-1.1267 -2.19781,-1.78117 -2.04676,-0.56806 -5.62091,-0.66086 -8.14186,-0.21141 -1.33106,0.23731 -4.1977,1.24316 -4.71861,1.65568 -0.39659,0.31406 -0.22525,1.0987 0.62458,2.86033 0.66926,1.38729 1.03506,1.58206 2.87859,1.53267 0.58208,-0.0156 1.80925,0.0636 2.72704,0.17606 1.66041,0.2034 1.67229,0.20011 2.39079,-0.66052 0.92455,-1.10747 1.85533,-1.1307 3.16435,-0.079 1.47444,1.18462 5.84139,3.34044 9.04803,4.46672 0.81408,0.28593 1.03801,0.25967 1.85208,-0.21719 0.50933,-0.29835 1.16417,-0.80613 1.45521,-1.12839 z m -24.74409,-3.43738 c 0.49513,-0.5966 -0.5754,-2.5607 -2.0646,-3.78793 -2.11153,-1.74007 -3.79849,-2.5148 -8.116309,-3.72734 -2.525072,-0.7091 -7.510923,-1.16975 -12.387188,-1.14448 l -4.978853,0.0258 0.165698,-0.75442 c 0.0969,-0.44116 0.04457,-0.82928 -0.12601,-0.93471 -0.294074,-0.18174 -0.586772,-0.0143 -2.517397,1.4401 -0.582083,0.4385 -1.236927,0.87366 -1.455208,0.96702 -0.218281,0.0934 -1.051719,0.4722 -1.852083,0.84185 -0.800365,0.36965 -2.169584,0.93013 -3.042709,1.24551 -2.68071,0.96829 -3.828999,1.5669 -3.996454,2.08338 -0.185894,0.57335 0.65782,1.84321 1.309878,1.97147 0.353848,0.0696 3.611552,-1.31451 5.520023,-2.34531 0.6017,-0.32499 2.991429,-0.27846 4.310303,0.0839 0.582084,0.15994 1.567477,0.63362 2.189761,1.05263 1.212638,0.81651 2.083353,0.86701 2.534594,0.14702 0.212344,-0.33881 0.170702,-0.56884 -0.171415,-0.94688 -0.61567,-0.6803 -0.567418,-1.30327 0.129847,-1.67643 1.554464,-0.83193 13.294854,0.008 14.89638,1.06593 0.145521,0.0961 0.72281,0.3306 1.282862,0.52108 1.44011,0.4898 3.17635,1.72095 4.13634,2.93303 0.71125,0.89803 0.98689,1.04942 2.06639,1.1349 0.68511,0.0543 1.37991,0.12011 1.54399,0.14634 0.16408,0.0262 0.44405,-0.1279 0.62216,-0.3425 z"
       id="path847" />
  </g>
</svg>
